<mxfile host="app.diagrams.net" agent="Mozilla/5.0 (Windows NT 10.0; Win64; x64; rv:135.0) Gecko/20100101 Firefox/135.0" version="26.0.15">
  <diagram name="Page-1" id="ZUSrD-crt8fSWtilumTJ">
    <mxGraphModel dx="6100" dy="2040" grid="0" gridSize="10" guides="1" tooltips="1" connect="1" arrows="1" fold="1" page="0" pageScale="1" pageWidth="850" pageHeight="1100" math="0" shadow="0">
      <root>
        <mxCell id="0" />
        <mxCell id="1" parent="0" />
        <mxCell id="TFOJBvLKXQj2atVjrU41-29" style="edgeStyle=none;curved=1;rounded=0;orthogonalLoop=1;jettySize=auto;html=1;fontSize=12;startSize=8;endSize=8;strokeWidth=10;" edge="1" parent="1" source="TFOJBvLKXQj2atVjrU41-1">
          <mxGeometry relative="1" as="geometry">
            <mxPoint x="1114.1428571428578" y="80.50294117647059" as="targetPoint" />
          </mxGeometry>
        </mxCell>
        <mxCell id="TFOJBvLKXQj2atVjrU41-1" value="" style="shape=image;verticalLabelPosition=bottom;labelBackgroundColor=default;verticalAlign=top;aspect=fixed;imageAspect=0;image=data:image/png,iVBORw0KGgoAAAANSUhEUgAAAqYAAAJFCAYAAAAPqzWzAAAgAElEQVR4Xu29f7RlVXXne2/9wg4/TARBqjBqFH122id2o4FCpcR0jC0j3T3afmm0B6OHsV/ElwGWZuQ1rzvEYd7LGDrQQgIokDh6gMRuQGgZ+WV3hAKsH+GVsVtivxh/RYEqqopCJSqVqlt1Hzm3jrlzVtX57nnWWvusvffHf3DXWmuuuT5zrr2+d5111plffOZ/c/yvcwS2bdvWOZ/bdHjTpk2mu40bN5rn888/v0136AsCEIAABCAAgQYE5hGmDShVUAUhmhYEhGgaP1pDAAIQgAAE2iCAMG2DcoY+EKZpEBGmafxoDQEIQAACEGiDAMK0DcoZ+kCYpkFEmKbxozUEIAABCECgDQII0zYoZ+gDYZoGEWGaxo/WEIAABCAAgTYIzG/durXRl58uvPDCNvwp1sfv/M7vFLONYQhAAAIQgAAEIJCDwDvf+c4cZmZm4/7770/qG2GahI/GEIAABCAAAQhAIB8BhCk7pvmyCUsQgAAEIAABCEAggQDCFGGakD40hQAEIAABCEAAAvkIIEynFKa33XZbvihksPTMWVlj5frrrzfPnDHNABkTEIAABCAAAQgUJeCFadf01szOmHYNFMK06DzCOAQgAAEIQAACGQggTNkxzZBGmIAABCAAAQhAAALpBBCmCNP0LMICBCAAAQhAAAIQyEAAYZpJmPozntHYzM/PmyZXXHGFef7whz9snhcWFszznj17zPM999xjnvkoPxqRuupfeumlIYduueWWifW9PVU/1HkPKvedT9vji+avTyHyM++kajv+eb3HWt8JKGGq9NZ73vMeg+iaa64xz15vrV692pQ//fTTSXqrmjOmCpRKJISpIjTs8ujCrhZyFqbJ+dR3Pm2PL5q/CNOy77u24192NFjvGwGEKTumfcvpXo4nurAjTNPSoO8Ld9vji+YvwjQtf1XrtuOv/KEcAssJIEwRpsyIDhCILuwI07Sg9n3hbnt80fxFmKblr2rddvyVP5RDAGH6dwSm/klSf13Uli1bTGYdOnTIPK9atWpi5qkzEdu3bzftX/3qV5vn3bt3m+e7777bPHPGtFsTXy0cn/jEJyYOaPPmzabcC1Vvf8OGDab+O97xjm4BK+yt5911Pm3HX/WnwqfyWbWn3BJQ8eh6fhPvbhNQO6ZRvaX0laLl9ZzSW9WcMY2C8iAUOISpSp1+lSNM64onwjQtHkoIKesIU0UoVq7igTCN8aR2XgII00wf5SNM8ybm0K0hTOvKAIRpWjyUEFLWEaaKUKxcxQNhGuNJ7bwEEKYI07wZhbUsBBCmWTBmM4IwTUOphJCyjjBVhGLlKh4I0xhPauclgDCdUpjeeuutJhL+o3Z//ZO/d/R973ufaX/ttdeaZ3/91Gte8xpT7u09sfcJU373f+GMad6p0q613AuHF1Z+ofdnTH25H736cpWvH/3yi7Kv7KkztVH70foqW5S9tvmVPmOs4hXlpf5QiPY363i0He8o77b9U/M39X2kxk/5bAl4YZqqt1asWGEGtHHjRvN8ww03mOf9+/cn6a2ZnTFNBYUwnW3i1947wjT2AwFqoVI70GrhVcKla0Iod36p+RTlo+KJMLWE2s7PaDyj/iFM1YzqdznClB3Tfmd4R0eXWziwY2p/OSt1oVRCVqWd6r+0/dz5pcYbFTII07K/9KbipfIzGs+oPYSpilC/yxGmCNN+Z3hHR5dbOCBMEabLp0Lu/FLTLCpkEKYI00n5qvJD5SPldRNAmE4pTP09pv5MqPqJ0auvvtpkxo4dO8zzueeea579GQlvf+/evab+HXfcYZ65x7Tuiah2yHKfAVRCwe9YKGGrdjiUPT9+9WUXJayi7ZX/6gxu7vGpbO3aPbYqXmq8qfFM5aX8S7Wvjpqk2o++X6LzMdW/0u8jFT/K6yKgvvyk9JbXRwcOHDADXLlypXn2Z04/8pGPmPKo3prZGVOEaV2J3Ddv1EKe+q3Z0gtB6YVW8UkVMqn2Uxdqlc+p9tX4UvMrVQhFhVHpfGs7HqX/0FHxj/LPnY9qRzT6h7KKH+V1EUCYsmNaV0bizYiAWjhShQPCdPJH+4q/Er6pC7WaBqn21fhS8wthagmofGlbWKv4I0zVDKS8JAGEKcK0ZH5he0oCauFIFQ4IU4Tp8tTMfVQEYYowXU4gKszZMZ1y4ehJM4RpJmH60EMPmZTwZ0IPHjxoyq+44grz/NGPftQ8n3DCCebZn5Hw+ffYY4+Zf7rrrrvMM2dMuzVj2xamXph4Wl4IK//UPajRaKgznrWVR/9wyH39kecb5RP1X8VT5YvqT7UvnW8q/9X4245HNJ/UHyaKf+74Rd9Hnq8afzRe1G+XgBKmUb21uLhoBuB/Av7jH/+4Kffvk/Xr15typbeqOWMaBYUwbTfRu9Zb6kKgxqvsI0w3GwSlhZ1aSNUOt4p3af9V/yrfcgsb5Y8qjwo1ZQ9haj+hiOajeh8hTKMZWHd9hCk7pnVn6EC9S13IFTZlXy0Eqn3pHazoL1dFF8JU+0poRRdShGlM2Kj8V+UI03cYRGq+q3xX7dV8U++j6HxS8ad8tgQQpgjT2WYgvR+TgHqRq4VAYVX21UKg2iNM7cKu4sGO6WRes843Psqf/IeBeh9F48dH+eqN0e9yhGkmYerv1VJp48+gXn755abJNddcY579PVqrVq0y5Y888oh5/vSnP22eOWOqIlJXuXqRRxeC6D2dUfvRHclU2mqHxfuvrpeJ+h/t349XfQtblUe/lR8dn4p/NH658zk6nqi/vr768s6s46HyReVfdIdY1Y/2lzqfUuNL+7oIKGEa1Vv+TKnXV9u3bzcAzj//fPMc1VvVnDGNgkKY1jURavMm90KOMP2ECbFaCFPLlbBTQkKVz1oIRedL7nxGmNoIqHyJCkW1Q4wwjc4A6kcIIEzZMY3kC3VbIpB7IUeYIkyXp64S3kpYR6dB7nxGmCJMozlI/e4QQJgiTLuTrQPyNPdCjjBFmCJMp3+B8FH+bM+Y5v5DafpMoGUbBBCmUwrTW2+91cTHn1E4fPjwxPj5j/J9ZX8m4oYbbjBVFhYWzPPjjz9unu+44w7zzBnTNqZTuT6i38pWP2mYumMWFc5R/z3J2oS1+qhTZYKKT6p937/66DX6UbAany+P5ktq+9z5pvyJ8ojGQ9mP5pMaj7en6qf6l/o+Uv1T3i0CXphG9dZ73/teM+DomdLVq1cn6a2ZnTGNgvJpgTDt1kSZtbfRhVYtVKkLQVRoRP1HmE6+rieaj1EhpIRJtP9ovighFB1P1F81/tR8zu2/mu9qxzH6h0l0/Mq/1PdRNL7Ur5sAwpQd07ozFO9GBGpbCKJCI+o/whRhujwHZp1vSihHX1MI09jRGiWso/ypXzcBhCnCtO4MxTuE6TME+CjfnvGLTouoEFI7htH+o8JSCcHoeKL+qvGn/qGV23+1I6mEHTum0QyhfkkCCNMphan/SVF/j6gP2uJh+1utBxcOmipr1qyZGOdvfetbpvwFL3jBxPp33XWXKeeMaclp1L5tdV2Q90gtTOqCdzXCaPuo/2o80f69PdVelSt7ip+KT6p9xU/Zj/qnxhvlmepf7nxT/qjxp8ZD2U+NVzQ+Ub7Kv2j/igfl3SLghWmq3vr2I98O6acoLa+3ZnbGNBUUwjQaeuovJ1DbQhBdSKL+q4U82r8SFuqC/ujCqrJX2VP+KvuKn7If9U/5UzpeajzKv1Res7afGq9ofKLzWfkX7T/Km/p1E0CYsmNad4bi3TEJ1LYQRBeSqP9KKET7V8IFYWrPACohEZ2mpeOl4hv1V40/dz6n+q/8VeOPxic6fuVftH81Hsq7RQBhijDtVsbi7YhAbQtBdCGJ+o8wtQRy81NCSAmJ6LSM5kuqf23zivJQfKP+K3vKv2h8cvsX7V+Nh/JuEUCYTilML7vsMhPp3bt3T4y8/61V/7x///6J7f31Uv6eVH+v6T333GPscca0WxMTbyEAAQhAAAJDJOCFadf01szOmHYNFMJ0iNObMUMAAhCAAAS6RQBhyo5ptzIWbyEAAQhAAAIQ6C0BhCnCtLfJzcAgAAEIQAACEOgWAYTplMK0W2Gem+Oj/K5FDH8hAAEIQAACwyPghWnXCMzsjGnXQCFMuxYx/IUABCAAAQgMjwDClB3T4WU9I4YABCAAAQhAoEoCCFOEaZWJiVMQgAAEIAABCAyPAMK0oTAdXmowYghAAAIQgAAEIACBNgnMb0WYtsmbviAAAQhAAAIQgAAEjkMAYUpqQAACEIAABCAAAQhUQQBhWkUYcAICEIAABCAAAQhAAGFKDkAAAhCAAAQgAAEIVEEAYVpFGHACAhCAAAQgAAEIQABhSg5AAAIQgAAEIAABCFRBAGFaRRhwAgIQgAAEIAABCECgsTC98MILO03L/yTpL/3SL3V6PL/7u7/baf9xHgIQgAAEIACBowlwwX7De0wRpnVNH4RpXfHAGwhAAAIQgEAOAghThGmOPGrdBsK0deR0CAEIQAACEChOAGGKMC2eZCU6QJiWoIpNCEAAAhCAwGwJIEynFKa33XbbbCPnen/mp1XNv1x//fXmWZ0x/b3f+71G4zn33HMb1RtX2rFjR6j+uPKWLVsmjgdhOhVWGkEAAhCAAASqJuCFadf01v3335/Ed+ovP3UNFMI0KU9oDAEIQAACEIBACwQQpuyYjtKMHdMWZhtdQAACEIAABCAwkQDCFGGKMOUlAQEIQAACEIBAFQQQppmEqT/jGY3u/Py8aXLFFVeY5w9/+MPmeWFhwTzv2bPHPN9zzz3mOfpR/viMp/fj3e9+d2hoN9xwg6n/sY99bPT89NNPTxzP3r17TflnPvMZ88wZ01AYBlf50ksvTRrzLbfcktSexnkJRONZOn7eH9Vfbf7njQ7WIJCXgBKmSm+95z3vMQ5dc8015tnrrdWrV5typU+U3qrmjKkCpcKGMLVCG2GqMobySQSiQsDbUkID+u0SiMazdPwQpu3Gn96GRQBhyo7pKOP9GVN2TIf1IujbaKNCBmFadwZE44kwrTueeAeBSQQQpghThCnviN4RiAoZhGndKRCNJ8K07njiHQQQpscnkO26KH/v5qFDh0yvq1atmpiJ6kzE9u3bTftXv/rV5nn37t3m+e677zbPTc+Y+ntK/ZnSF7/4xSO7ajzjzr/yla8YP/yZ049+9KOjcs/Ln+G46667jB3OmPJim0TAC5kNGzaEgG3evNnULy10Qs4NoLL6qPwTn/jERAq54xf1R/Xftv8DSBmG2CMCasc0qreUvlLovD5RequaM6ZRUB6EAocwRZiqyUP53xFAmHY7G6JC0I9WCcMonag/qn+EaTQC1B8SAYRppo/yEabHnjbsmA7pdVLPWBGm9cRiGk+iQhBhOg1l2kCgTgIIU4TpKDPHX37io/w6JypexQggTGO8aquNMN1sQsJRktoyFH9KEkCYTilMb731VhMX/1G7v/7J3zv6vve9z7S/9tprzbO/fuo1r3mNKff2ntj7hCm/+7/Ezph+8pOfHLX3/YzPgKrxrFixwvS/cuVK8zw+k3rZZZeZf9+0adPo2Y9n3xP7TL277uaj/JIvgr7Zjn5Zxo/fCwH/0es73vEO0yTaX1RoRO2r8fjyqP2o/6n5pfir8fgzxj5+yj/1h47Kh2j/0f6U/5RDoEsEvDBN1Vten2zcuNHg8N992b9/f5LemtkZ01RQCNOluCNMu/S66I6vUaGlhJwSRtH+osIual+NRwk5Femo/8qeKlf81XiiwjDVXqqwTG2veFIOgZoJIEzZMR3lJzumNU9TfIsSyC3klDCK9hcVdlH7CFP7y18I0+gMoj4EZkcAYYowRZjObv7RcyECuYUcwtQGKiqsU8Os+KfucCr/ojuY0fql/VfjoxwCNRFAmE4pTG+77TYTR38mVP3E6NVXX23a79ixwzz7LyH5MxLevv8JzzvuuMPYm/Ye0+OdMfX9HzhwwPTnz5iO7wHzRxjGH+V7e088Yc/M3n777cY+95jW9BqpzxclDKIeR88kpl4HlPvLP37HsOvXGak/PKJnhJUwzG1P5V9qf8o+5RComYD68pPSW1F94s+cfuQjHzF4onprZmdMEabzJnAI05qn+fB8Q5huNkFHmNoL+dUfGtE/DKL21IxEmCpClPeZAMKUHdNRfh/vuih2TPs8/fs7NoQpwnR5dqceBUgVimqH18/E1P76O7MZ2RAIIEwRpgjTIcz0gY0RYYowRZgObNIz3N4QQJhmEqYPPfSQSQp/JvTgwYOm/IorrjDP453J8T+ecMIJEz8q9xn42GOPmX/yvy3f9Iyp31nw93t97GMfG/Xjx7O4uGj6H5/JuPzyy82/v/vd7zbPL3/5y485mXbu3Gn+/dOf/rR55oxpb95BRQaihKn66DXqVHRHzNtXH7VHv1Wuxu/PmEbHq/wvzVftKHr/lD+lP7qP+qvOAKfGi/YQqJmAEqZRveX1if8J+I9//OMGh59/69evN+VKb1VzxjQKCmG6FGeEac2vh+76poSZEirRkSNMNxhkpflGhZ7yB2EazXjqQ6AcAYQpO6aj7BqfMWXHtNxkw3J7BBCmk+/xZMfU5iLCtL25SU8QUAQQpghThKmaJZR3jgDCFGG6PGnZMe3cFMbhARNAmGYSpv5eLZVT/gyqP4t5zTXXGBP+Hq3xb8+PKz3yyCOmvj+T2fSM6djIli1bRv/3K1/5irHrz5yqcfozpb79tddeOzLhx/Poo48a03feead55oypIj/s8tLCNLrD5qPhdyzVGdK2jwqkZo8Sgsp+lK/6rXr1gwC58yXVXmp7xZdyCNRMQAnTqN7yZ0q9vtq+fbvBcf7555vnqN6q5oxpFBTCdCnuCNOaXw/d9a30wh4VTgjTWC5F+SJMY3ypDYGaCSBM2TEd5ef4jOk4WdkxrXna4psigDC1hKLf+ld8VTk7ppOPUig+pfNXxY9yCMySAMIUYYowneUMpO8iBEov7NEdPXZMY2GO8mXHNMaX2hComQDCdEpheuutt5q4+jMKhw8fnhh3/1G+r+zPRPizmQsLC6bJ448/bp7vuOMO86zOmH7yk5809bdt22aex+P56le/Gsrnl73sZaP64zOyf/EXf2Ha+3H99m//9qh89+7dpt7tt99unjljGgrD4CqXFqYeaO4zoGpHzd+eMWvhq85wRhMwlafvT+0Yq+unVDzU+KLjKe2P8pdyCMySgBemUb313ve+17gfPVO6evVq0z6qt2Z2xjQKygcZYbpEBGE6y+nf374RpptNcEt/uQphOnkuIUz7+65hZPkJIEzZMR1lFTum+ScXFmdHAGGKMF2efeyYzm4u0jMEogQQpghThGl01lC/egIIU4QpwrT6aYqDEDgmAYTplMLU/6Sov0fU0148bH9L/uDCQVNlzZo1E1P0W9/6lil/wQteMLH+XXfdZcrVGVM/Hn+PaO7xjO1973vfM6b9R/tXXnnlqNzfy8oZU95oEQL+TGbqmUHVtzoDqtqn/jJT6hnFVP9z8031x/P2/tWeH7l5qvyjHAKzJOCFaare+vYj3w7pp+jYvd6a2RnTVFAI06XQI0yjU4D60xCoXXj4MSFMLRGE6TumSXvaQKCTBBCm7JiOEpcd007OX5xuSABh+glDSu3ApQpBZb9h2H5ULdUfdkyjxKkPgdkRQJgiTBGms5t/9NwSAYQpwnR5qvFRfksTj24gMAUBhOmUwvSyyy4zuP29mz4W/rdW/fP+/fsnhs9fL+XvSfX3bN1zzz3Gnjpj6sezZ8+eif6UGo//aP/EE08c+fGZz3zG+MMZ0ylmO006SyB1xzD3DmZnQeI4BCBQPQEvTLumt2Z2xrRroBCm1c9FHITAcQkgTEkOCEBgKAQQpuyYjnKdHdOhTHnG2UUCCNMuRg2fIQCBaQggTBGmCNNpZg5tINAiAYRpi7DpCgIQmCkBhOmUwnSmUZuic/VR/hQmZ9qEM6YzxU/nEIAABCAAgSIEvDAt0klBozM7Y1pwTEVMI0yLYMUoBCAAAQhAAAIZCSBM2THNmE7tmWLHtD3W9AQBCEAAAhBoiwDCFGHaVq5l7QdhmhUnxiAAAQhAAAJVEECYNhSmVUQLJyAAAQhAAAIQgAAEektgfivCtLfBZWAQgAAEIAABCECgSwQQpl2KFr5CAAIQgAAEIACBHhNAmPY4uAwNAhCAAAQgAAEIdInAcYXpww8/3KVx4CsEIAABCEAAAhCAQOUEXvGKV0z0EGFaeQBxDwIQgAAEIAABCPSFAMK0L5FkHBCAAAQgAAEIQKDjBBCmHQ8g7kMAAhCAAAQgAIG+EGgsTP2Z0gsvvLAvDBgHBCAAAQhAAAIQgEAFBO6//37jhReqPzpjijCtIFq4AAEIQAACEIAABHpMAGHa4+AyNAhAAAIQgAAEINAlAgjTLkULXyEAAQhAAAIQgECPCUhheuONNy7+7fj9mdInn3yyx1gYGgQgAAEIQAACEIBA2wT27dtnuty5c6d5nkeYth0S+oMABCAAAQhAAALDJIAwHWbcGTUEIAABCEAAAhCojgDCtLqQ4BAEIAABCEAAAhAYJgGE6TDjzqghAAEIQAACEIBAdQQQptWFBIcgAAEIQAACEIDAMAkgTIcZd0YNAQhAAAIQgAAEqiOAMK0uJDgEAQhAAAIQgAAEhkkAYTrMuDNqCEAAAhCAAAQgUB0BhGl1IcEhCEAAAhCAAAQgMEwCCNNhxp1RQwACEIAABCAAgeoIIEyrCwkOQQACEIAABCAAgWESQJgOM+6MGgIQgAAEIAABCFRHAGFaXUhwCAIQgAAEIAABCAyTAMJ0mHFn1BCAAAQgAAEIQKA6AgjT6kKCQxCAAAQgAAEIQGCYBBCmw4w7o4YABCAAAQhAAALVEUCYVhcSHIIABCAAAQhAAALDJIAwHWbcGTUEIAABCEAAAhCojgDCtLqQ4BAEIAABCEAAAhAYJgGE6TDjzqghAAEIQAACEIBAdQQQptWFBIcgAAEIQAACEIDAMAkgTIcZd0YNAQhAAAIQgAAEqiOAMK0uJDgEAQhAAAIQgAAEhkkAYTrMuDNqCEAAAhCAAAQgUB0BhGl1IcEhCEAAAhCAAAQgMEwCCNNhxp1RQwACEIAABCAAgeoIIEyrCwkOQQACEIAABCAAgWESQJgOM+6MGgIQgAAEIAABCFRHAGFaXUhwCAIQgAAEIAABCAyTAMJ0mHFn1BCAAAQgAAEIQKA6AgjT6kKCQxCAAAQgAAEIQGCYBBCmw4w7o4YABCAAAQhAAALVEUCYVhcSHIIABCAAAQhAAALDJIAwHWbcGTUEIAABCEAAAhCojgDCtLqQ4BAEIAABCEAAAhAYJgGE6TDjzqghAAEIQAACEIBAdQQQptWFBIcgAAEIQAACEIDAMAkgTIcZd0YNAQhAAAIQgAAEqiOAMK0uJDgEAQhAAAIQgAAEhkkAYTrMuDNqCEAAAhCAAAQgUB0BhGl1IcEhCEAAAhCAAAQgMEwCCNNhxp1RQwACEIAABCAAgeoIIEyrCwkOQQACEIAABCAAgWESQJgOM+6MGgIQgAAEIAABCFRHAGFaXUhwCAIQgAAEIAABCAyTAMJ0mHFn1BCAAAQgAAEIQKA6AgjT6kKCQxCAAAQgAAEIQGCYBBCmw4w7o4YABCAAAQhAAALVEUCYVhcSHIIABCAAAQhAAALDJIAwHWbcGTUEIAABCEAAAhCojgDCtLqQ4BAEIAABCEAAAhAYJgGE6TDjzqghAAEIQAACEIBAdQQQptWFBIcgAAEIQAACEIDAMAkgTIcZd0YNAQhAAAIQgAAEqiOAMK0uJDgEAQhAAAIQgAAEhkkAYTrMuDNqCEAAAhCAAAQgUB0BhGl1IcEhCEAAAhCAAAQgMEwCCNNhxp1RQwACEIAABCAAgeoIIEyrCwkOQQACEIAABCAAgWESQJgOM+6MGgIQgAAEIAABCFRHAGFaXUhwCAIQgAAEIAABCAyTAMJ0mHFn1BCAAAQgAAEIQKA6AgjT6kKCQxCAAAQgAAEIQGCYBBCmw4w7o4YABCAAAQhAAALVEUCYVhcSHIIABCAAAQhAAALDJIAwHWbcGTUEIAABCEAAAhCojgDCtLqQ4BAEIAABCEAAAhAYJgGE6TDjzqghAAEIQAACEIBAdQQQptWFBIcgAAEIQAACEIDAMAkgTIcZd0YNAQhAAAIQgAAEqiOAMK0uJDgEAQhAAAIQgAAEhkkAYTrMuDNqCEAAAhCAAAQgUB0BhGl1IcEhCEAAAhCAAAQgMEwCCNNhxp1RQwACEIAABCAAgeoIIEyrCwkOQQACEIAABCAAgWESQJgOM+5HjXrjxo2QWEbgrW99q+Fx5513wmcCnwsuuAA+EJiaAO8fi473z+RU8nx4/0w99apsiDCtMiztO8XCwMIQyToWhggt6ioCvH94/6gcWV7O+ydCq3t1Eabdi1kRj1kYWBgiicXCEKFFXUWA9w/vH5UjCNMIoW7XRZh2O37ZvGdhYGGIJBPCNEKLuooA7x/ePypHEKYRQt2uizDtdvyyee8XBi88snXUEUO/+qu/ajw977zzzDN8LJ9t27Z1JLJ1uunn36ZNm+p0tJBXvH8sWN4/kxPN8+H9U2hizsgswnRG4GvrloWBhSGSkywMEVq6LsLUfvmSP/z4w3jSrOH9o98pXa6BMO1y9DL6jjBFmEbSiYUhQkvXRZgiTJdnCTum7Jjqt0Z/ayBM+xvb0MgQpgjTSMIgTCO0dF2EKcIUYarnybgG75/mrLpYE2HaxagV8DkqTP29cVu2bJnolSpPHZL3R91rp/xpe8dC+ZPK59d+7deMidT+WBhSI2Lbqy//9P3MafT9E6Wfmu+qP/W+Ue19edvvn+j7XI0ntz3FhzOmKiLdKkeYditexbyNLgzRF0/bC4NaKJQ/bS8Myp/UwCNMUwmWbY8wLbtjWnp+qfdNNPDxqLEAACAASURBVHvafv9E3+dqPLntIUwV8X6VI0z7Fc+pR4MwtejaXhhKL5wI06mnRisNEaYI0+WJ1vb7J7eQzG0PYdrKa6iaThCm1YRito4gTBGmkQzko/wILV0XYYowRZjqeTKuwfunOasu1kSYdjFqBXzOLUz9DuCb3vQm4/VFF100cRT33nuvKZ+fn59Y/6abbjLll1xySRKl0jsWs+Zz3XXXGT7RHdvaFobzzz+/Ubz9fbSNGs2gkvqt9L6dOY2+f1RIZj2/an//KH7RHc9ofdW/Kq/t/aP8pTxGAGEa49Xb2tGFQb2IWBgmp8qs+SBM657KCNO3JgVo1vMLYTr5y7BJwX2mMcI0lWDd7RGmdcenNe8QphY1O6aTU6+2hYEd09ZeFUU6ir5/lBMIU0VocrnaePCto/XTvEOYpvKrvT3CtPYIteRfdGFQLyIWBnZMW0rdUTcI0zZp5+8r+v5RHvD+UYQQpmmEaF2SAMK0JN0O2U5dGLxQ/dCHPmRG/8EPfnAijb8++6Wm/ICr/aWbbjT/sri4aJ5vvvlm8+w/SlNC2jsX3TFV18X4hdI/Kz6b7vxD4+JJJ59knl+y5lCIz1A/yr/66qs7NCuP7+qdd95pCrt+5jT1/eNJhefXpk0T8+Kcc84JzS8+yuej/F68aGY0CITpjMDX1m3qwoAwvWBiSBGmZTO+6Y4pwrRsHKa1nvr+QZhOS/7Y7aJ/yEfrp3pb21Gi1PHQ3hJAmJIRIwKpCwPCFGE6y6mEMJ284zfL2DTpO/X9gzBtQrl5najQjNZv7smxayJMUwnW3R5hWnd8WvMudWFAmCJMW0vWY3SEMEWYLk8LPspPm41RoRmtn+YdX35K5Vd7e4Rp7RFqyb+oMFUvIrUwvOhFLzIj+9Kq1RNHuqPyM6YqTFHh7vm876P2jO3JJ59suvzJuf3mOfUMrtqBqm3HoqkwVXGaVflvXHWV6frkU04JudL1M6fR94+CE33/XH755RNNDv2MqeKt3hfR9qp+be8f5S/lMQII0xiv3taOLgwI09g9iwjTslMHYdrtL0NF3z8qmxCmitDkcvVlTmU9+oMdyp4vR5hGiXWrPsK0W/Eq5m10YUCYIkyXJ+O2bduK5WYTwwhThOnyPEGYNpk1x6+DME3jR+s0AgjTNH69aY0wtaGMXhelEoEdU0UorRxhijBFmKbNoeWtEab5WGIpTgBhGmfWyxalham/1/SFL3yh4ejPmPp7TP/HjR+fyP2mm24y5ddff715jn601LYwVXz+3cf+oxnPSSfZe0zPPPC9EJ+3ve1tSXlc20dpt9xyS6PxXHrppY3qtV0pOv+Uf107c5p7/H6+q/mlzpi+8pWvnOn8Ou+880z//idrVT5Ey9UnYt5etH7UH1+/tvdP6nhobwkgTMmIEYHowqBeRNGFAWFqf5DAC3eE6eSJijC1fBCm9oJ3hGlsoVPvd4RpjCe1YwQQpjFeva2NMLWhZcd0cqrXtmOBMEWYLicQ/cOYHVObPwjT3i71nRgYwrQTYSrvJMIUYRrJMoRphJauG51/yiI7puyYqhyZVI4wTaFH21QCCNNUgj1pn7owpn65x3+U/8NFC3bXnbebf3jyySfN880332yec/8WfO4zXtFvDf/7m24z4/t7J55onn/6xywwxSf3b3l35Vv5Po61Tt/cZwhrF6qp7x8fx+j8Ujumb3jDG0Lvn9zzK/f7x/OKClE1b3Lb8/3V9oex4kF5jADCNMart7VTFwaEaSw1ogsnwnQy36bfykeYLnHctKmuX4pKff8gTGPvH4RpGi9alyWAMC3LtzPWUxcGhGks1AjTGC9VG2E6mRA7ph80gPwvq7Fjan9SOXqLSWmhy46pegP2qxxh2q94Tj0ahKlFl/vLT6k7OuyYsmM69eR+piHCFGE6KX9yf/Se2x7CNGX2d68twrR7MSvicVSYqheP/4v79tvtGdFvfvObZhx/ffZLzbM/Y/r4p+8w5T5x/RnT2s94Rfnc9uD/a8Z/srvH9AUr7M2vUT4qnrUvDE13TK+++uoi86drRv/6qaeMyz//5jfPdAjR949yNjq/1NGGiy66qFfvn+h8j9YvvYPKGVM1A7pdjjDtdvyyeR9dGNSLKrowIEwnC3eEaZ4dU4TpEkeEqf3DGGFqbzHILSzVehFdyBCmUWLdqo8w7Va8inmLMLVo2/4oX+0oI0wRpjknP8IUYbo8n9SZ0lRhmdq+9k9scs5NbM3NIUzJghEBhCnCNLJQ1bZjwUf5sRcZwhRhGpnvqcIytT3CNDa/u14bYdr1CGbyf9bCdJ87Y7rg7jEd+hnT/7ztf5hIn3zySeZ53aHvm2fOmGaaGC2Z+Y2rrrLxPeWUrD3X9oeEH1z0/ePbq1tB1CcSuT/Kr+0e5dzCUCWn6k+VK/u157Pyn/LJBBCmZEgVO6YI08lnTBGmkydq0x3TWqc7wnSjCU30BwYQppMzO1UIRueN6k+Vq/4QpopQt8sRpt2OXzbvozsW6sUS/fITwhRhmpLMCNPJ9GpfyKPvH3ZM3xqaLup9HTLWoLLqT5WrLmrPZ+U/5eyYkgMNCEQXBvViQZhOhh7lw44pO6YNpvFxq9S+kEffPwhThOnyHJj1TyKnzE3aHk2AHVOyYkQgdWHwGKO/bLR95eqJkdh1p91RVL8F/4UvfCEUWX+NUO5v5auPGj/4wckXgF/z6T804/H3mD7nh/tMueKT+wzcrBeGW265pVG8L7300kb12q6Ue/7VLkQ93+j4o38Yq/mV+5efZv3+UXxUfqe2V/bVHxbqloCu5XeUx9DrI0yHngFHxh9dGBQ2hKklhDBVGZNWjjC1/Lq2cEffP0o4Rd8/CNPJ7yslFNNm79yciqe337X8TuUztPYI06FF/DjjjS4MClt0YWDHlB1TlVOTyhGmCNPlBKLvH4QpwjTl/UPbvAQQpnl5dtYawtT+VCUf5U9O5dp2LBCmCFOE6d8RiO5Apn60nrrwRf2t7f2TOn7aWwIIUzJiRKC0MP3Qhz5kSL/whS80z2rH9Ms3fXxipN71rneZcn/m8corr5zYfvPmzRPLzzvvPFOe+zobxee6e/7E9H/ySSea54Vv/s+J/t90002m/G1ve5t57vrC0PRb+T6OtU7/aH51faFW7x+Vn+qojJpfasf0la98Zej948+s//7v/37R90+UT+6P5lX/0Xmm7HU936M8hlYfYTq0iB9nvGphiGLyLz61MCBMJwt3hOnkDESY/urEP8yi87ft+ur9o4QKwvQCEzL//lX8UuOd276yhzBNjVjd7RGmdcenNe/UwhB1BGFqiaUunAhThOkkAl1fqNX7RwmV1PnFjmn0DT/5/Za6I6vi3fV8T6Pd/9YI0/7HuNEI1cLQyMiySghThGk0Z1Lqs2PKjuny/PGf0KhPbBCmKbMv/q161RvCVBHqdznCtN/xbTw6JUz9i8Ib9kI0+q1Y/1H+qnnbw5duutH8w+Lionm++eabzfPJJ59sni+++OKJLPxf4Bs2bDD19+/fb57VGUD1Yo3y+Z0/fsCO76STzPMP/vK/h/hccsklpr7y18OrbceiqTD1Z/8aT5DKKtbGPxVP9P2jduSi80sJ03POOSc0v9T7x883n7/R9090/qbGq3R7NZ6+5X9pnl2zjzDtWsQK+RtdGBCmk395Rb1YowsnwnRy4iNMtxV6M7RjNvr+QZja949637QTxXy9qPEgTPOxrtESwrTGqMzAp+jCgDBFmC7PgVn/8hPCFGG6PB+jf/ixYzqDRWdClwjTuuLRtjcI07aJV9ofwtSe0Yt+lObDql6s0YWTHVN2TJcT6NuOUfT9w44pO6Y1/WFc6bLeWbcQpp0NXV7H1cKgelPfivW/Ve3t7X7JS80/pZ4x9Wco/ULu+1f3DrZ9xtT798df3Wn+6TnPtmdof/DlHaZcncG97rrrTH210Ht/ahNGTXdMVR7Pqvw3rrrKdH3yKaeY59p45+ak3j/qDz31CY56/2zatGnikKJnTNt+/0T5RP+QTo131D9Vv+/zIZV319sjTLsewUz+q4VBdYMwtYTUi1XtmCJMVcbZcoRpjFdttdX7R80nhOnke0xVvKN8lb1U4av8QZhGI9Ct+gjTbsWrmLdqYVAdI0wRpipHSpYjTEvSLW9bvX+UUEGYIkzLZyk9tEUAYdoW6cr7UQuDch9hijBVOVKyHGFakm552+r9gzCdfF1dlE/qjmY0I6L+qfrsmEYj0K36CNNuxauYt2phUB0rYfqmN73JmLjooosmmrz33ntN+fy8u9jUtfa/Bf+FL3zB1FBnSL0zmzdvNv/kf2Nd3WOqePmP8tvm07d7TG+55RaFfFR+6aWXNqrXdiU//7Zv325cmPWtB6V5RN8/SrjUPr+uvPJKg9S/bzzv6PtH8Skdz6j9qL8I0yjhbtVHmHYrXsW8jS4M6i9u/0srbQsvhKmNkBfuCNNiU2kqwwjTjYab+sNPCRmEadpH+1MlcUIjFU9vGmGaALsDTRGmHQhSGy4iTC1ldky3TEy72hYGdkzbeEuU6yP6/lFCBmGKMC2XrVguTQBhWppwR+xHFwZ2TCdfsK/CXvvCqa6PQpiqCMfK2TFlx3RSxvBRvqVT2/snNtuprQggTBWhgZSnClMlVH/lV36lKMnoR/cXX3yx8Ufdc5q6MPjBe+H3qU99qigf/9G9ilfXhGlReC0Y/+M/+iPTy8+/+c0t9FpPF6nvH7+D6kfW9vvHnwmOzqfUH/hQ87ueyC95ovh4fxGmtUUwrz8I07w8O2stdWFQL8K2Fwb1ZSeEqY2Y+miUhaHs1EaYxnZM1fsGYTp5fpfN5rh1hGmcWZ9bIEz7HN3A2BCm9idJPTp2TC0RdiwCk6tBVYQpwnR5mrBjOnnS8P5p8FLpcBWEaYeDl9N1hCnCdHk+qR0MFoacs29uDmGKMEWYNp9TvH+as+piTYRpF6NWwOfcwrSAixNNqjOiUX9y71hE+6+9PgtD7RHqln9df/942tH3kTp6tH//5Av2uxXtdG95/6QzrNkCwrTm6LToW9cXhuhCoNAiTPkoTeUI5fkIdP39gzDNlwtNLCFMm1Dqbh2EaXdjl9Xzri8MCNOs6SCNsTBIRFQIEOj6+wdhGgh2hqq8fzJArNgEwrTi4LTpWtcXBoRpm9kyN8fC0C7vvvfW9fcPwrTdDOX90y7vtntDmLZNvNL+/Jddcgu9toftP4pP7T96vVRqf11r3/ffcu9aPLrmb9/eP55/9H3kf3nOn0Ht+vs5d37y/slNdLb2EKaz5V9N731bGKILgQoEwnQyIRYGlUGUTyLQt/cPwrTdfOf90y7v0r0hTEsT7oj9vi0MCNN2E4+FoV3efeutb+8fhGm7Gcr7p13epXtDmJYm3BH7fVsYEKbtJh4LQ7u8+9Zb394/CNN2M5T3T7u8S/eGMC1NGPsQgAAEIAABCEAAAo0IIEwbYaISBCAAAQhAAAIQgEBpAgjT0oSxDwEIQAACEIAABCDQiADCtBEmKkEAAhCAAAQgAAEIlCaAMC1NGPsQgAAEIAABCEAAAo0IIEwbYaISBCAAAQhAAAIQgEBpAgjT0oSxDwEIQAACEIAABCDQiADCtBEmKkEAAhCAAAQgAAEIlCaAMC1NGPsQgAAEIAABCEAAAo0IIEwbYaISBCAAAQhAAAIQgEBpAgjT0oSxDwEIQAACEIAABCDQiADCtBEmKkEAAhCAAAQgAAEIlCaAMC1NGPsQgAAEIAABCEAAAo0IIEwbYaISBCAAAQhAAAIQgEBpAgjT0oSxDwEIQAACEIAABCDQiADCtBEmKkEAAhCAAAQgAAEIlCaAMC1NGPsQgAAEIAABCEAAAo0IIEwbYaISBCAAAQhAAAIQgEBpAgjT0oSxDwEIQAACEIAABCDQiADCtBEmKkEAAhCAAAQgAAEIlCaAMC1NGPsQgAAEIAABCEAAAo0IIEwbYaISBCAAAQhAAAIQgEBpAgjT0oSxDwEIQAACEIAABCDQiADCtBEmKkEAAhCAAAQgAAEIlCaAMC1NGPsQgAAEIAABCEAAAo0IIEwbYaISBCAAAQhAAAIQgEBpAgjT0oSxDwEIQAACEIAABCDQiADCtBEmKkEAAhCAAAQgAAEIlCaAMC1NGPsQgAAEIAABCEAAAo0IIEwbYaISBCAAAQhAAAIQgEBpAgjT0oSxDwEIQAACEIAABCDQiADCtBEmKkEAAhCAAAQgAAEIlCaAMC1NGPsQgAAEIAABCEAAAo0IIEwbYaISBCAAAQhAAAIQgEBpAgjT0oSxDwEIQAACEIAABCDQiADCtBEmKkEAAhCAAAQgAAEIlCaAMC1NGPsQgAAEIAABCEAAAo0IIEwbYaISBCAAAQhAAAIQgEBpAgjT0oSxDwEIQAACEIAABCDQiADCtBEmKkEAAhCAAAQgAAEIlCaAMC1NGPsQgAAEIAABCEAAAo0IIEwbYaISBCAAAQhAAAIQgEBpAgjT0oSxDwEIQAACEIAABCDQiADCtBEmKkEAAhCAAAQgAAEIlCaAMC1NGPsQgAAEIAABCEAAAo0IIEwbYaISBCAAAQhAAAIQgEBpAgjT0oSxDwEIQAACEIAABCDQiADCtBEmKkEAAhCAAAQgAAEIlCaAMC1NGPsQgAAEIAABCEAAAo0IIEwbYaISBCAAAQhAAAIQgEBpAgjT0oSxDwEIQAACEIAABCDQiADCtBEmKkEAAhCAAAQgAAEIlCaAMC1NGPsQgAAEIAABCEAAAo0IIEwbYaISBCAAAQhAAAIQgEBpAgjT0oSxDwEIQAACEIAABCDQiADCtBEmKkEAAhCAAAQgAAEIlCaAMC1NGPsQgAAEIAABCEAAAo0IIEwbYaISBCAAAQhAAAIQgEBpAgjT0oSxDwEIQAACEIAABCDQiADCtBEmKkEAAhCAAAQgAAEIlCaAMC1NGPsQgAAEIAABCEAAAo0IIEwbYaISBCAAAQhAAAIQgEBpAgjT0oSxDwEIQAACEIAABCDQiADCtBEmKkEAAhCAAAQgAAEIlCaAMC1NGPsQgAAEIAABCEAAAo0IIEwbYaISBCAAAQhAAAIQgEBpAgjT0oSxDwEIQAACEIAABCDQiADCtBEmKkEAAhCAAAQgAAEIlCaAMC1NGPsQgAAEIAABCEAAAo0IIEwbYaISBCAAAQhAAAIQgEBpAgjT0oSxDwEIQAACEIAABCDQiADCtBEmKkEAAhCAAAQgAAEIlCaAMC1NGPsQgAAEIAABCEAAAo0IIEwbYaISBCAAAQhAAAIQgEBpAgjT0oSxDwEIQAACEIAABCDQiADCtBEmKkEAAhCAAAQgAAEIlCaAMC1NGPsQgAAEIAABCEAAAo0IIEwbYaISBCAAAQhAAAIQgEBpAgjT0oSxDwEIQAACEIAABCDQiADCtBEmKkEAAhCAAAQgAAEIlCaAMC1NGPu9ILB+/fpejCPXIH7mZ37GmNq0aVMu09gZIAHmlw0682uAk4Ah/4gAwpRkgEADAiycLJwN0oQqUxJgfjG/pkwdmvWQAMK0h0FlSPkJsHCycObPKiyOCTC/mF/MBgiMCSBMyQUINCDAwsnC2SBNqDIlAeYX82vK1KFZDwkgTHsYVIaUn4BfOM990+dNJ/Ouy8MLB82/HD50yDwvuue5OWthftUqU/9ZP/Hj5nnhh0+b51UnrLH9HT5s6z/9Q+vvytW2/kHr7/z8Cjsi9/ivfu4hU37BBRfkh47FwRDw8+tz973YzpfFyShW+gnoqq9audL8ywpX/7Cwv+jqz7v6q1e5CbJoKxw8NLmDhUU7X3c89MvMr8Fkf/6Bnn/+JSGj27Z9KlS/dGWEaWnC2O8FAYSpDSPCtBdpXc0gEKYI02qSsQeOIEx7EESGAAFFAGGKMFU5Qvn0BBCmCNPps4eWngDClJyAwAAIIEwRpgNI85kNEWGKMJ1Z8vWwY4RpD4PKkCDgCfiF85zXftZWcWfQVqy2Zz79kc01Jz/btP+Jk040z3v37DXPC/vtGdGjz6i6M25uAOvWnWn+5bFHHzPPi+6M29EZYO3/63/+56YKZ0yZMykE/Pz67Od+yphb5Q6FrnFnRhfcmW1/pPNlLz3b2Pv2N79hnlc6++pM6HOfe5pp/93vPGGeDy5YGt4/xWrHjncxvxSkDpfnFo5RewqdOnMa7U/Z8/5wxlRFiHIIPEMAYYowZSKUI4AwtWwRpuVyrQbLuYVd1J5ioIRktD9lD2GqIkI5BI5BAGGKMGVilCOAMEWYlsuu+iznFnZRe4qIEpLR/pQ9hKmKCOUQQJgegwDClIlRjgDCFGFaLrvqs5xb2EXtKSJKSEb7U/YQpioilEOggTB9zVu2mlonnHySeT500N5bevD7P7DlB+y9oWeefqop92dAj3LJ36u4yt5LuvbF9h7Ik06y/v3wsO3/O3vsGbm/eer7psv5FVaY/ssND5pyzpgybVIIeGF6n7vHdM6dAV3p7v1d5e4R/ZsD7pCnc+7ss+2Z029+w5459WPxZ0p37dljq4iLUP2Z10PunlN/hvbPOGOakk7Vt40Ku+oHJBxEmHY9gvhfJQG/cCJMEaZVJmpHnUKY2r80EaYdTeSGbiNMJ4Piy08NE4lqwyaAMGXHdNgzoOzoEaYI07IZVpd1hCnCtK6MxJtOEkCYIkw7mbgdcRphijDtSKpmcRNhijDNkkgYGTYBv3C+/m0PGyAnrTrBPC+6M6a7HvkrU75u7Vrz/Oijj4YA+zOfc+6nuNedtc7Ye/apzzXP3/nOd83z3n323lTvzAp3b+S/vMieseWMaSh8VHYE/Px64H57BvSQS/AV7oypB3r4sL2w/oA7A/pyd6/p17/2NWvCnWk97VR7b+kTe+188WdI5/29xkdNKFfBle946JfNvzC/+jVlSgvT6JnO2vzho/x+5TujKUQAYbrSkEWYFkq0gZpFmNrAI0z7PRFqE4K1+YMw7Xf+M7pMBBCmCNNMqYSZYxBAmCJMhzQxahOCtfmDMB3SbGCsUxNAmCJMp04eGkoCCFOEqUySHlWoTQjW5g/CtEfJzlDKETj6l5/+aHJn/sznOnvm89TT7L2lT+x70tjbtceeYVs85O5lPGzvSfXOzLt7Tc983vOs/ccfN89nPu+MiePZ+ehOU/72f/ol88wZuHK5NwTLfn5tefClZtgH3JlR+1W8uTl7ovSZpu5MqS9/8UteYuw/9b2nzLO/V3TB9b9rt73HdKU7VOrPmK5eZf+wW+kH4IK8deu/ZX4NIfGPjDEqDKNnSFNRtu0fwjQ1YrQfBAGEKcJ0EIk+o0EiTC14hOmMEnFG3bYt/KLDbNs/hGk0QtQfJAGEKcJ0kInf0qARpgjTllKtym7aFn5RCG37hzCNRoj6gySAMEWYDjLxWxo0whRh2lKqVdlN28IvCqFt/xCm0QhRf5AEjhKmr/uvlsOiO/Mp7hX9idPsvYj79n3H2Nu9e7d5Xjxsz5ie+Tx7D+rcvO1w5yPfNu3XrTvLPIfvTV25yrR/+y9wxnSQE6HQoP38evABe8Z04ZCdX4fdPabPWmMPbe4/YE+VrnD3oL7oJfae1Mf+6htmZAcWbH8/cZq9B3j3nslnTFdOvqZ0boW7J9WfQd2y9Z3GH85wF0q8Sswq4df2mdJZY0GYzjoC9N8JAghThGknErWjTiJM7ZejEKYdTeQp3UaYWnAI0ykTiWbDIoAwRZgOK+PbHS3CFGHabsbV1RvCFGFaV0biTScIIEwRpp1I1I46iTBFmHY0dbO4jTBFmGZJJIwMi4BfOF91oT1juugvSnRnzObdGU11r6i/mfF5p59pgP/4qfYe1Hl3L+J3n9hn6u/a9Zh5XvWsH7MBdBcvLrp7Ug+7M3eXvHmHac8ZuGHNh9yj9fPrvvtebLrwv3Xv+1/jzmz66Xi2u7f069/4ujFx0horDA8s2DPbC+5e1Gc/x91DvNfeO+zvMfX+rlphJ+wK12D7n3KPae4cq8meEqLeV86Y2i/fzt94442jGXrhhRcaVk8+aS8Eryno+AKB3AQQpvbLIAjT3Bk2bHsIU/uXLMK03/MBYTo5vpwx7Xf+M7pMBBCmCNNMqYSZYxBAmCJMhzQxEKYI0yHlO2MtRABhijAtlFqYfYYAwhRhOqSJgDBFmA4p3xlrIQJHCdM33Gt6Wjx00PbsfltbubX2LHvP6OKcPYO26zF7RnTtOnvmdM7d67jT1V+31tZ/7LFdxqW1Z9l7UXfttmfmVq5ZY+r/4s9uM8+cMVURpnwSAT+/PufOmPoznv636b3tl5z9EvNPX/+aPVPq7zVdt/Z5pv6T+54wz4cO2TOn/p7TM8443dTf686cLrhDr75/7/+OHe9ifvVoyrQtRKP9tY1anZnlo/y2I0J/nSSAMEWYdjJxO+I0wtQGCmHakcRt6GZUKCrhprqN9qfs5S5X40OY5iaOvV4SQJgiTHuZ2JUMCmGKMK0kFYu4ERWKSrgpJ6P9KXu5y9X4EKa5iWOvlwQQpgjTXiZ2JYNCmCJMK0nFIm5EhaISbsrJaH/KXu5yNT6EaW7i2OslAb9wvuYt2804D/7g++Z50Z0xnXcXjT7vzHWm/q6dj1hui/ZMWxiquxdx7Vp/htT+1veZrvw733fjcb81/i9eu9m4xBnTcIRosIyAn19/cq+9x1T99vyL3D2l3/za1yxfd8+pPzOq7x21X0560U9Z//y9qGeebs+c7tljz2wfcvNpzt2Tykf5/ZoeUaGohJuiE+1P2ctdrsaHMM1NHHu9JIAwtUIZYdrLNJ/ZoBCmdn4hTGeWikU6jgpFJdyUk9H+lL3c5Wp8CNPcxLHXSwIIU4RpLxO7kkEhTBGmlaRiETeiQlEJN+VktD9lL3e5Gh/CNDdx7PWSAMIUYdrLxK5kUAhThGklqVjEjahQVMJNORntT9nLXa7GhzDNTRx7vSTgF85/9LP3mXHOr1xtnhd++EPz3HyNPQAAHyZJREFUvPZMe4/oaac9x5Tve8Lem/joo486jvZe03n3W9v+ROpRZ+b8mdPnP9/Y37XT3ms67+qvXGPH97+9kXtMe5noMxqUn1+f/dxPGU/WrLL5/7KzzzblX/nqV83zCnev7yp3xvQnX2Tt/+VR7f30s2dMj8LkzoiuWrnSVDnt9NPM83f27TPPf3NgwTzzUf6MErFQt1GhqISbcjPan7KXu1yND2Gamzj2ekkAYYow7WViVzIohCnCtJJULOJGVCgq4aacjPan7OUuV+NDmOYmjr1eEkCYIkx7mdiVDAphijCtJBWLuBEVikq4KSej/Sl7ucvV+BCmuYljr5cEEKYI014mdiWDQpgiTCtJxSJuRIWiEm7KyWh/yl7ucjU+hGlu4tjrJQG/cJ7zus/acbp7SxcX7Y9jn3XWWab+aafaM2dPuN/mPvqMaRrWdc//SWPg1FNPNc/7nnzSPO/cudN26O5VffsvfMmUc49pWnyG3lp9+ellL7VnSr/xdXtP6Rnu3tB9T9oz22vcmewDbr4ecD9mv8rdO3zW2jNMiHbvtvcAP71wyL0P7Knvla7/009/rqm/6/Hd5pkzpv2eEVHhqIRc27RK+48wbTui9NdJAghTu9AiTDuZxtU6jTBFmFabnAUcKy3sCrhsTJb2H2FaOoLY7wUBhCnCtBeJXOkgEKYI00pTs4hbpYVdEaeXGS3tP8K0dASx3wsCCFOEaS8SudJBIEwRppWmZhG3Sgu7Ik4jTEtjxT4EYgT8wvnK9X8w0cDzz1pnyh959DHz7M+c+jOl8+6Mm7uW8Rh923se5/wZ13X+HlV7xnXvE/ZeRXXG9V//8/9pfOCMaSyfqG0J+Pn1ufteYir8lPtt+r/8mr231N9zesIqe4/oinn7h9WBg/bZ39u7wjY/KlyH3ZHSA4fcP7gWbnbOPfeM002NfXvtmdiHHvrfmV8DmiRKqHbtjGmqv+yYDij5Ger0BBCmlh3CdPpcouXRBBCmCNMhzwuEqY0+wnTIs4GxNyaAMEWYNk4WKoYJIEwRpuGk6VEDhCnCtEfpzFDaIoAwRZi2lWtD7AdhijAdYt6Px4wwRZgOOf8Z+5QE/ML5qjf8ibH0Z/e+cfR87s89OPrv6c+x94TueuzR0b9/8cGfO6YH/+Rf2TOb889aM6r3B//RnrUbNz73Hz9g7Jxx5F7EP7jt5ce0/6rX/1fz7198YMmPi3/x4dF/H3VnYOfdvYv+jCvXRU2ZSDQ7JgE/vx584KWjeq993VeOWX/z5mPPiw0b7P2m48YPf3m9sbN379I9pBcdp/6Dn3+ZqT8+ono8fx559OdN/eef9cej57Gf9lbjubkz3BnT7+2zZ7y3bv+3xh5nuPs9cZQw9aNPPcMZpdm2f3yUH40Q9QdJAGFqw44wHeQ0KDZohCnCtFhydcBw28IviqRt/xCm0QhRf5AEjidMxzulYygbNmwY/d8fe94NhtMf/qe/P3p+1euWdi6fvfK3TPnmzZtHz+Od03H9t/ybpR2gH/zVO49Zf7xzuuO/vX5U/pa3/39L9R+77Jj1xzun4x3Tsb/fPfjvTH12TAeZ5jMbtJ9fi0d+aezzDy7tXP6HX7e3Sozny3hHcrxTOn5+//vtL62N6493Tl/x01tHdu89svP6gePUH++cvu61Szu3yp/xzul4x3Q8v656/9InJuP/sWM6s1SrsuO2hV8UQtv+IUyjEaL+IAkgTG3Y2TEd5DQoNmiEKTumxZKrA4bbFn5RJG37hzCNRoj6gyRw1AX7r/2s4TA+OzreIfnegt2B/OLnl86gjctPOuPa0fPv/+f/1dgZl493eMbPJ555/ajeH3zqpxvVf2ru34/q/dnmf9yo/olnXmfq7dy5y8b5yA7W+B8RpoOcBsUG7efXlgeXzpj+X/9haaf0Ax+w9wC//vVL95geb76Mdyj9GdLj1f/131ja0XzjG+wZ1Vz2r//YAcNu9+695nnNSnvT6fY/5YxpsWSrwHBU6EVdjp5Brc0fhGk04tQfJAGEKb/8NMjEb2nQCFOEaUupVkU3tQnB2vxBmFaRpjhRO4HcwnS8I3rxL35pNPTxzunxdmjG9d9yyZdH9cc7p6r+P9zw30b1xzunx9+RZce09hzss3/HE6bjMa8/csZz/Lx71z8Z/d9fvOSHo//6TxjGz+MzpOOdUzVfxr84Nd45VfWb2mfHtM/ZGx9bbUKwNn8QpvGcosUACSBM2TEdYNq3NmSEKTumrSVbBR3VJgRr8wdhWkGS4kL9BI4Sphf8kXHanyEdnwkdV/JnQ8+54A9HRT+++kMTd3zG7V/1+qWdz2ev+H8a1f9Hb9w8qnfyofdPrP+jM6xr7S0CO929pnPux8Hf/s/+3Iyfexbrz+GaPfTz6777Xjxyd/xt+weO3Gt61VVrzTA++FuPj55/Zv1fmH//8y+fP3r+lf/jhEbzpVT98fz6rd+yZ7YXFuzNpv6e0x0P/TLzq+aETfSttBBMdC978+iZV4Rp9hBgsI8EEKaHTFgRpn3M8tmNCWFq2SNMZ5eLbfSMMJ1MGWHaRhbSR+cJ5BKm4x2UMZDvHvy10f/971uWzswd70zbuP73Di992/6LDyx9217V/+uV7x/V+8LnNkysfyI7pp3P0S4P4HjXRfl7ST/wgZ2jYb7+9X85+u+fbv1fRv8d75j6+XXd9X8zKv8HP72t0XwpVZ8d0y5nZ37fEaaTmSJM8+ccFntIAGHKjmkP07qaISFMbSjYMa0mNYs4gjBFmBZJLIwOi8DxFk5F4VUXLp0NXbFq9ei/451L32787flT5pbOkD41/+uj//7ZfW88ZhevPfJt/lW7Lx+VLxy5F/Xz7l7UcePzfuGh0f991lNLO7Tjby0r///hhs8ds8rbLv6i+XfOmCqSlE8iMO38Gu+Qju85Hd9v6vvyv9j0m0d2Xl93ZOfV19/8wNmjf3r/VeuW/nvkHtUNR+5P9fUfOFL/qiP1m86v8bf6V62YNyYf4oxprydMVJiqM5pRewpu7v6UPe8PO6YqQpRD4BkC0y6cCFPSBwKawLTzC2Gq2VKjPgJRIamEXdSeIpK7P2UPYaoiQjkEjkHgqI/yX7f0y0/PXmF/8/548MZnPcfl42/L+/rjX2yam7fXx5yy+JvHND3eKfWF451U/+/7T1m6BWDh6aX7H086+P5G8X5qbmkHd/w/dkwbYaNSQwLH+/KT/83745nzvww13rn09f/v31z6dvyi+yWzX3ff9h+3G++UejvjnVT/72M/Tli9NH//zyuXfrlK/c/7z46pItbt8qiQVMIuak/Ry92fsuf9YcdURYhyCDxDAGGKMGUilCOAMLU/uYowLZdrNViOCkkl7KL2FIPc/Sl7CFMVEcohcAwCGzduNP/61re+FU7LCHDGlHRIIcD8mkyP+ZWSXcNrGxWqUeFYmig7pqUJY78XBFg4WTh7kciVDoL5xfyqNDU76RbCtJNhw2kIxAiwcLJwxjKG2hECzC/mVyRfqDuZAMKUDIHAAAiwcLJwDiDNZzZE5hfza2bJ18OOEaY9DCpDggAEIAABCEAAAhBonwBnTNtnTo8QgAAEIAABCEAAAscggDAlLSAAAQhAAAIQgAAEqiCAMK0iDDgBAQhAAAIQgAAEIIAwJQcgAAEIQAACEIAABKoggDCtIgw4AQEIQAACEIAABCCAMCUHIAABCEAAAhCAAASqIIAwrSIMOAEBCEAAAhCAAAQggDAlByAAAQhAAAIQgAAEqiCAMK0iDDgBAQhAAAIQgAAEIIAwJQcgAAEIQAACEIAABKoggDCtIgw4AQEIQAACEIAABCAghenWrVsX/xbTww8/bGitXbsWehCAAAQgAAEIQAACEMhGYOfOncbWK17xCvM8jzDNxhpDEIAABCAAAQhAAAITCCBMSQ8IQAACEIAABCAAgSoIIEyrCANOQAACEIAABCAAAQg0FqYelT9zCkoIQAACEIAABCAAAQikEPBnSr2tH50xRZimYKYtBCAAAQhAAAIQgIAigDBVhCiHAAQgAAEIQAACEGiFAMK0Fcx0AgEIQAACEIAABCCgCEwtTJVhyiEAAQhAAAIQgAAEIJCTwHHPmObsBFsQgAAEIAABCEAAAhBQBBCmihDlEIAABCAAAQhAAAKtEECYtoKZTiAAAQhAAAIQgAAEFAGEqSJEOQQgAAEIQAACEIBAKwQQpq1gphMIQAACEIAABCAAAUUAYaoIUQ4BCEAAAhCAAAQg0AoBhGkrmOkEAhCAAAQgAAEIQEARQJgqQpRDAAIQgAAEIAABCLRCAGHaCmY6gQAEIAABCEAAAhBQBBCmihDlEIAABCAAAQhAAAKtEECYtoKZTiAAAQhAAAIQgAAEFIHWhOn69euVL6HyrVu3hurnruzHgz+WcG3xjvoTjWfX7UfnR3S8yr7nnTq/UtsrfymHAAQgAIEyBBCmU3KtbeGr3Z8pMf+oWVQo+v6iQiraX9ftR+MTHa+yjzBVhCiHAAQgMAwCCNMp41y7EIwKqykxHLdZaeES9TfqT5Rf1+2X5qnsI0wVIcohAAEIDIMAwnTKOCNMJ4OLCjUVhqhQZMe07FGX0vFNnV+p7VU+Ug4BCEAAAmUItCZMlftdW0hq8zfqT7S+ip8SglFhmepf6fZdtx+NZ+74qv5L81X9Uw4BCEAAArMhgDCdknvqwjllt8dtFvUnWj/qb6r92tuX9q+0/Wg8EaapxGgPAQhAAAJNCCBMm1A6Rp1U4TBltwjThuBS46Paq3LlpmqvylPtq/aqPNW/0vZL+6f8pxwCEIAABKYjgDCdjttcbQtf1J9o/SimVPu1ty/tX2n70XiyY5pKjPYQgAAEINCEQG+FqV/YFQx1BrJr9qLjUfUVv9zlqcIs1R/VvypXQs6Xp34rXeVn7viq/tT4VHyifBXv3ONX/lMOAQhAAALTEUCYHuGmFq7cC3Fpe9HxqPrTpdf0rVKFyfQ9L7VU/atyJZSUcCttPzcfZS+aX9HxK97R/tV4KIcABCAAgTIEEKYI0xGB2hbuVGGSOl1U/6pcCSWE6eQIRfkq3rXld2p+0h4CEIBAXwkgTBGmCNNjzG4ljFS5EkoIU4RpXxcVxgUBCEAghUBvhGlUKCjhoHZYUvuLBk31p8qj/bVdv23/1VGK1Pir8cy6PDW+yv9Z2y/tX+r4aA8BCEAAAscmgDA9wiW6kEXrpyag6k+Vp/Zfun3b/iNM0yJaOl6p9lPbp9GhNQQgAAEITEsAYYownTZ3srZrW0ggTNPCVzpeqfZT26fRoTUEIAABCExLAGGKMJ02d7K2a1tIIEzTwlc6Xqn2U9un0aE1BCAAAQhMSwBhOiNhqoSRCmjqvZfKfunytoVD7v5U/HKfUfXxSLWfGt/cPL0/qfZT26fyoT0EIAABCExHAGGKMJ0ucxJbtS0ccveHMF1vMkAJ5Wi6pMYrtX3UX+pDAAIQgEAeAghThGmeTApaaVs45O4PYYowDaY81SEAAQhAoAEBhCnCtEGa5K+SWygqD3P3hzBFmKqcoxwCEIAABOIEEKYtCdNUYaTaq3KfGtH68dSa3CK1f9VelavxqPaqvHb7yj9Vnjr+0vZL+6f8pxwCEIAABKYjgDBFmI4I5D4jqNIxVTio9qo81b+u21fjV+Wp4y9tv7R/yn/KIQABCEBgOgIIU4QpwvQYc0cJG1WupqNqr8pT7av2qjzVv9L2S/un/KccAhCAAASmI4AwRZgiTBGm4bdHaeGXaj+1fRgIDSAAAQhAIAuB3ghTT0N9OcXXT/0oO7oQRv2L+qv8UeVZsmuCkdT+VftUvqm8Fb9ovkXHE7Wv/E2dX8q+8re28avxUA4BCEAAAtMRQJge4aYWRoVXCaXcC7vyV/mjytV4U8tT+1fto0JGjSfKO9Vear4of5V/qrxvfNV4KYcABCAAgXYIIEwRpiMCpYWMElrR/hGmk18QUZ7R1w3CNEqM+hCAAAQg0IQAwhRhijBtMFOU0IsKNWVPCXnlctS+spfqj7Kv/C3NV/lHOQQgAAEItEOgGmHaznDppS8E1I5pX8bJOCAAAQhAAAJDIoAwHVK0ezRWhGmPgslQIAABCEAAAkcIIExJhU4SQJh2Mmw4DQEIQAACEJhIAGFKgnSSAMK0k2HDaQhAAAIQgADClByAAAQgAAEIQAACEKifADum9ccIDyEAAQhAAAIQgMAgCCBMBxFmBgkBCEAAAhCAAATqJ4AwrT9GeAgBCEAAAhCAAAQGQQBhOogwM0gIQAACEIAABCBQPwGEaf0xwkMIQAACEIAABCAwCAII00GEmUFCAAIQgAAEIACB+gkgTOuPER5CAAIQgAAEIACBQRBoTZimXoie2n4Q0RzQIH0+qKFv3bpVVTHlpe2HnHmmctQfZd/zSJ1fqe2Vv1H70fqq/9RyFb/c8VD+pvJR7aPjVf5SDgEIDIcAwnQ4se7VSNXC5weLMLVEcgshJVRSky9qP1o/1T/VXuVr7nhE/UmdH8r/1PmoxkM5BCDQHwII0/7EclAjUQt96kJY2n40WFF/lH0lJHILFeWPKo8KzWh91X9quYpf7ngof1P5qPbR8Sp/KYcABIZDAGE6nFj3aqRq4UOYTg53biGkhEpq8kXtR+un+qfaq3zNHY+oP7n/EImOV/lLOQQgMBwCCNPhxLroSEsLgVT7qr0qV/BS23fdfu7xp9pLba/iocpT+09tX7t/pcenxk85BCBQLwGEab2x6ZRnpReaVPuqvSpXwUht33X7ucefai+1vYqHKk/tP7V97f6VHp8aP+UQgEC9BBCm9camU56VXmhS7av2qlwFI7V91+3nHn+qvdT2Kh6qPLX/1Pa1+1d6fGr8lEMAAvUSQJjWG5tOeVZ6oUm1r9qrchWM1PZdt597/Kn2UtureKjy1P5T29fuX+nxqfFTDgEI1Eugt8LUv/iiIVBfBojaV/a8f1H7vr3qL2o/ak/Vj8Yjtb5aCFV5ND65x587Xmo8Uf+j/FQ8o/ZK88ntb9v2+hZvxY9yCECguwQQpseJnVqYSy+EUfsI08mTUAkdVa4W9ij/6Csjmg8qf9V42m6f6k9pPipe0fxp214q39ztS9tTfCmHAATqJYAwRZg2yk4lVHIvzI2cClRS/qlytZAiTNcbBCpfVOhyx6Pt+LQ9fsVT5W/U32h8lH+57an+KIcABOolgDBFmDbKTrVw1b6wKP9UuVrY2xY+KmgqXmo8bbdP9YcdU5URtjya76nxUd6l+qPsUw4BCHSHQG+Eae0vNuWfKlcppdqr8lT7qn3pciVMlNBSfFLLU8ev+p+1/VT/UtuXFk6Kb9f8T/U3tf2s46XiSTkEIDA7AgjTltirF7kqV26q9qo81b5qX7ocYZpGeNb5kdr/rIVO1/xP9Te1/azjlTZbaA0BCJQkgDAtSXeZbfUiV+XKTdVelafaV+1LlyNM0wjPOj9S+5+10Oma/6n+prafdbzSZgutIQCBkgQQpiXpIkxbojs3hzBNQ50qNGbdftZCJ3X8bfuf6m9q+7bHmzY7aA0BCLRJoDfCVL3oFFR1BjHVvm/v+0t90av2SrgpPsr/aPu266fyUfmh7KeOt3b7Uf+i9aP8SttX7wOVL2o8tflf2p/S9hVvyiEAgXoIIEyPxCK6kKQKPYRpu5NALXwqnio/lP3U0dZuP+pftH6UX2n7CNOt0ZBMrN92vLI6jzEIQCArAYQpwnSqhFJCbSqjBRuphQ9hmnYPqeJbWsi1bb90f1GeqVNH9afKS/efap/2EIBAdwggTBGmU2UrwtRi6/rCnep/tH20fjRJS9tHmLJjGs1J6kMAAs0I9FaYNhv+39VSC5kqV/1F26sdPNVf7qMCqr/o+JS93Au/8k+VK39T23fdfnT80fqKT+58ifaXu//SfKL+5vYnt73UeNEeAhCohwDC9Egs1ItSlauQRtsjTPPuSCr+qjx3fJW9qHCI2sttP8ovWj86vtL2lT+p/ae2V/5F45/bn9z2ouOlPgQgUC8BhCnCNEt2ll5oUu2r9qpcQUpt33X70fFH6ys+UaEVtRetnzq+1Pa5/c3tT2570fFSHwIQqJcAwhRhmiU7Sy80qfZVe1WuIKW277r96Pij9RUfhGmUkK2v4qHKo73nthftn/oQgEC9BFoTpmrhUIjUl21yf/St/Gm7v6g/bfNqe6GJ8lc8Suenip8qj45X2VM8ov1F7an6yv9oedv5Gc0ndSY8Ol5fP8o7lZfKn6g/qeOnPQQg0B0CCNMjsYq+KNWLV6VAtD9lL7qQ5PY/2r8ajyqP+h/lXdq+Gl9U2ETtKR65x992fih+avxRnqq+4okwVQQphwAEhkIAYYownSrX1UJaeuFXC33uHSMFqbbxpvqbmy/C1N4Tq/Izyj813rmFvPK/9HxRPCiHAATqJYAwRZhOlZ0IU4ut9EKrFvpoEJW/0f6i9lT96HhU/dqEMcI07z2oKv6UQwAC3SEwM2HaHUTteBoVAmpha8dreoEABCAAAQhAAAL5CCBM87FMsoQwTcJHYwhAAAIQgAAEekAAYVpJEBGmlQQCNyAAAQhAAAIQmBkBhOnM0NuOEaaVBAI3IAABCEAAAhCYGQGE6czQ0zEEIAABCEAAAhCAwHICCFPyAQIQgAAEIAABCECgCgII0yrCgBMQgAAEIAABCEAAAghTcgACEIAABCAAAQhAoAoCCNMqwoATEIAABCAAAQhAAAIIU3IAAhCAAAQgAAEIQKAKAgjTKsKAExCAAAQgAAEIQAACCFNyAAIQgAAEIAABCECgCgKtCdPUC+Q9ra1bt5p/8vZ9eRW0O+xEbr7RfCCeHU4eXIcABCAAAQg0JIAwbQhq6NUQpkPPAMYPAQhAAAIQKE8AYVqecS96QJj2IowMAgIQgAAEIFA1AYRp1eGpxzmEaT2xwBMIQAACEIBAXwm0JkwVwNzCR/XXtfK2+agzoNEzn6n+p7bvWrzxFwIQgAAEIDBEAgjTjkS9bWGGMO1IYuAmBCAAAQhAoEcEEKYdCSbCdL2JVHTHtiNhxk0IQAACEIDAoAkgTDsSfoQpwrQjqYqbEIAABCAAgakJ9EaYKuEW/Wha2VPEVX++vdoBTPVH+avKh9Z/NH6p8VT8VX749lH/S9uP8lE8KIcABCAAgX4SQJgeiWvuC/tzC4OhCUMltKJCKjp9o/GLCq+o/eh4a7Mf5RONF/UhAAEIQKAfBBCmCNNGmTw0YRwVdlHhFbWPMG2UplSCAAQgAIGOE0CYIkwbpTDCtBGmH1VSQhJhan9SOEaX2hCAAAQg0FcCgxWm0Y/ulTBT5SqBUtsr+6nlpf1TQk0Jva6NLzoexV+VKz6qvSpX9imHAAQgAAEINCGAMD1CSS28qeUqGMq+al+6vLR/CNPJEVT8VbnKD9VelSv7lEMAAhCAAASaEECYIkyb5MlcaWGCMEWYNkpEKkEAAhCAQK8JIEwRpo0SHGHaCNNxK6XyU+1VufJetVflyj7lEIAABCAAgSYEEKaFhGkT+JPqRM8gpvan2ucWJrntKf+j5WoH19tT8YraU/5Gz0gre9Hy6HgUn2j/1IcABCAAgX4SQJgiTBtldm4hmdteo0EEKuUWXlF7ylWEqSJEOQQgAAEIdJEAwhRh2ihvcwvJ3PYaDSJQKSok1Y5g1J5yFWGqCFEOAQhAAAJdJIAwRZg2ytvcQjK3vUaDCFSKCkmE6WS4ik8gNFSFAAQgAIEeE0CYNgyuElKqvGE3x61W2r7yL7X/WbdX40stV+NT5aX7V/Zr90/5TzkEIAABCPSDAMK0YRzVwq3KG3aDMD0OgdJ8S8entP+p9lPbK36l7av+KYcABCAAgW4QQJg2jJNaWFV5w24QpgjTqVIlNf9S2yunS9tX/VMOAQhAAALdIIAwbRgntbCq8obdIEwRplOlSmr+pbZXTpe2r/qnHAIQgAAEukEAYdowTtGFNfrlGe9G29+6TvU36n9D7MetlvvLNKnjj/pTur+ofeV/1J7Kh9T40x4CEIAABPpJAGHaMK4I04agjlRTwjpm7ejaSkhF7bctvEr3F7WveEbtIUyjGUh9CEAAAhD4WwII04Z5gDBtCAph2ghUaaEXtY8wbRQ2KkEAAhCAQGECCNOGgBGmDUEhTBuBigrH6A5k1D7CtFHYqAQBCEAAAoUJVCNMC48T8xCAAAQgAAEIQAAClRNAmFYeINyDAAQgAAEIQAACQyGAMB1KpBknBCAAAQhAAAIQqJwAwrTyAOEeBCAAAQhAAAIQGAoBhOlQIs04IQABCEAAAhCAQOUEEKaVBwj3IAABCEAAAhCAwFAIIEyHEmnGCQEIQAACEIAABCongDCtPEC4BwEIQAACEIAABIZCAGE6lEgzTghAAAIQgAAEIFA5AYRp5QHCPQhAAAIQgAAEIDAUAgjToUSacUIAAhCAAAQgAIHKCSBMKw8Q7kEAAhCAAAQgAIGhEECYDiXSjBMCEIAABCAAAQhUTgBhWnmAcA8CEIAABCAAAQgMhQDCdCiRZpwQgAAEIAABCECgcgII08oDhHsQgAAEIAABCEBgKAQQpkOJNOOEAAQgAAEIQAAClRNAmFYeINyDAAQgAAEIQAACQyGAMB1KpBknBCAAAQhAAAIQqJwAwrTyAOEeBCAAAQhAAAIQGAqB/x/uxIs/tCLJgAAAAABJRU5ErkJggg==;" vertex="1" parent="1">
          <mxGeometry x="174.00058823529415" y="-209.9970588235294" width="678" height="581" as="geometry" />
        </mxCell>
        <mxCell id="TFOJBvLKXQj2atVjrU41-2" value="" style="shape=image;verticalLabelPosition=bottom;labelBackgroundColor=default;verticalAlign=top;aspect=fixed;imageAspect=0;image=data:image/png,iVBORw0KGgoAAAANSUhEUgAAAp4AAAJFCAYAAAB0j/d/AAAgAElEQVR4Xu3df7RnV3nf97kjzUgCia7mT/cHOLaxHYf+U8BIrFW0cFYxSRy3jeoEuiKD/CPGywsx4Dp1m+J0NWmDKpAACyQwMpb4ESMBRk4c9xcVq0s/SvRHGpoE4iy7gCGIXyk2YUaj0Uzx1Vwxe2vu97nP3eec7z7nvLyWlziz937287yf5+zzuefs7zk7R44cOfft//d/HRA4d25zKh566KEOvOzXhVtuuWWjc/fcc0+/zvMMAQQQQACBFRDY+bbYITxnkmjCc3OiauF54sSJYsDVV189k0xzEwEEEEAAgWUSIDxnlFfCk/CcUblyFQEEEEAAgacRIDxnVBSEJ+E5o3LlKgIIIIAAAoTnnGuA8CQ851y/fEcAAQQQQMAdz45rgNBsS449nW38jEYAAQQQQGBoAoTn0EQHtEd4tsEkPNv4GY0AAggggMDQBAjPoYkOaI/wbINJeLbxMxoBBBBAAIGhCRCeQxMd0B7h2QaT8GzjZzQCCCCAAAJDE9h58MEH932P50te8pKh55vU3q/92q9NOp/JEEAAAQQQQACBLIGf/umfzg7pqv8nPvGJA/tDeB4YlY4IIIAAAggggMDwBAjP80zd8Ry+uFhEAAEEEEAAAQQuJEB4Ep7OCAQQQAABBBBAYBIChOc+wvP973//JAk46CTf3p9adL3tttuKY3s8D0pSPwQQQAABBBDYFoFaeM5Nb422x3NuIAjPbZ1C5kUAAQQQQACBgxIgPN3xPGit6IcAAggggAACCDQRIDwJz6YCMhgBBBBAAAEEEDgoAcLzgMKz3mN5UMB7/XZ2doohN954Y3H85je/uTg+c+ZMcfzlL3+5OL7vvvuKY4/asxnpq//111+fcuiuu+7a2L+2F/VPTb6AzkvnM3V82fqtS0h9DntSTZ3/Yb1nbekEIuEZ6a3Xve51BaJbb721OK711rFjx4r2kydPNumtyfZ4RiCiQiE8I0Lrbs9euKMLtQvP5npaOp+p48vWL+E57no3df7HjYb1pREgPM9ntH6PZ/3jIsJzaaXfVzzZCzfh2Za/pV+Yp44vW7+EZ1v9RqOnzn/kj3YELiRAeBKezogOCGQv3IRnW9KWfmGeOr5s/RKebfUbjZ46/5E/2hEgPC9SA9EdzwceeKAY9cQTTxTHl1566cbKivYkPPzww8X4F7zgBcXxo48+Whx/9KMfLY7t8ZzXiR1dGO68886NAd1///1Fey1Ea/vXXntt0f+GG26YF7CRva15z53P1PmP5ovSF9VzNF57SSDKx9zrW77nTSC645nVW5G+imjVei7SW5Pt8cyCqAONwBCeUWksq53w7CufhGdbPiKhE1knPCNCufYoH4RnjqfewxIgPM/zdMdz2MJibTMBwrOvCiE82/IRCZ3IOuEZEcq1R/kgPHM89R6WAOFJeA5bUawdiADheSBMk3UiPNtQR0Insk54RoRy7VE+CM8cT72HJUB47iM877777oJ0/Si8fj1S/d7NN7zhDcX4t73tbcVx/Sv5F77whUV7be+rX/lq0f7R37LHc9hTYVprQ18YauFUX8jrPZ51ex199OOlun/2xyWR/chetKc1az/bP6qWyN7U/Mbe4xvlK8sr+kMgO9+28zF1vrO8p/YvOn9b16Mofu3bJVALz1a9dfTo0SKgEydOFMfveMc7iuNTp0416a3R9ni2giA8t1vYvc9OeOZegB9diKI7yNGFNRImcxM6Q9dXdD5l+UT5JDxLQlPXZzafWf8Iz+iMWnY74Xk+v/UeT8Jz2YW/7eiGFgbueJZffmq9EEZCNaqfaP6x7Q9dX1G8WaFCeI77pbIoX1F9ZvOZtUd4RhladjvhSXguu8I7jW5oYUB4Ep4XlvrQ9RWdRlmhQngSnpvqNaqPqB61902A8NxHeEZfLoo+gXnzzTcXmX/kkUeK4+c///nFcb1Hobb/la98peh/zz33FMfe49n3iRbd4Rp6D14kBOo7DpFwje5QRPbq+KMfk0TCKTs+8j/aAzt0fFG1zu09rlG+onhb89nKK/Kv1X60FaTVfnZ9yZ6Prf6NvR5F+dPeF4Hox0X1b2BqPVQfnz59ugjwkksuKY7rPZ9vectbivas3hptjyfh2VehLs2b6ELd+qvTsRf6sS+kEZ9WodJqv/VCHNVzq/0ovtb6ahU6WeEzdr1NnY+x/5CJ8p/lP3Q9Rnc0s38IR/nT3hcBwtMdz74qciXeRBeGVmFAeG5+9B7xj4Rt64U4KvNW+1F8rfVFeJYEonqZWjhH+Sc8ozNQ+5gECE/Cc8z6YnsfAtGFoVUYEJ6E54WlN/RWDsKT8LyQQFZ4u+O57ksj4XlA4fnJT36yqJR6T+bjjz9etN94443F8Vvf+tbi+LLLLiuO6z0KdVl+4QtfKP7pIx/5SHFsj+e8TuSphWctPGpatdCN/IveA5rNRrTHsrf27B8GQ78eqOab5ZP1P8pnVC/RfNH4sestqv8o/qnzka2n6A+PiP/Q+cuuRzXfKP5svvSflkAkPLN669y5c0UA9SfKb7/99qK9Xk+uueaaoj3SW5Pt8cyCIDynLeS5zda60EfxRvYJz/sLBGMLt+hCGd2hjvI9tv/R/FG9DS1cIn+i9qwQi+wRnuUThmw9RusR4ZmtwL77E57n8xN9q53w7LuQ5+Zd64U6ijeyHy300fix70Blv7yUvdC12o+EVPZCSXjmhEtU/1E74XlDgSg636N6j8ZH51u0HmXPpyj/2rdLgPAkPLdbgSudPVqoo4U+whbZjxb6aDzhWV64o3y447mZ17brzaP2zcI/Wo+y+fOoPVoxlt1OeB5QeNbvlYrKot4D+trXvrYYcuuttxbH9XukLr300qL985//fHH84Q9/uDi2xzPKSF/t0UKdXeiz76nM2s/eUWylHd0hqf2PXr+S9T87fx1v9CvmqD37q/ZsfFH+s/kbup6z8WT9rftHP47Zdj6ieonqL3uHN+qfna/1fGrNr/F9EYiEZ1Zv1Xs6a3318MMPFwCuvvrq4jirtybb45kFQXj2Vei9eTP0hZrwvLNIcXSha22PhFskFKL2bQud7PkydD0TnmUGonrJCsHoDi/hmT0D9M8QIDzd8czUi74DERj6Qk14Ep4XlmYkrCPhnC3zoeuZ8CQ8szWo/3wIEJ6E53yqdUGeDn2hJjwJT8Lz8AuER+3b3eM59B9Ch68EI6cgQHjuIzzvvvvugn+9R+Ds2bMb81M/aq8713sS3vGOdxRdzpw5Uxx/6UtfKo59q32K02O6ObK/ao4+udd6xysrjLP+12R7E87Ro8ioMqL8tNqv548ejWYf1Ubx1e3ZemkdP3S9Rf5keWTzEdnP1lMUT20v6t/qX+t6FM2vfV4EauGZ1Vuvf/3ri4CzezqPHTvWpLdG2+OZBVGnnfCc14mwbW+zF9LoQtS60GeFRNZ/wnPz62yy9ZgVOpHwyM6frZdI6GTjyfobxd9az0P7H53v0R3D7B8e2fgj/1rXo2x+9e+bAOF5Pj/1ezwJz74Ld2ne9bbQZ4VE1n/Ck/C8sAa2XW+REM6uN4RnbutLJJyz/PXvmwDhSXj2XaEr8S4r3Ma+w7BtIZCdPxIO2R+rtD4Kj/LTar+ONyt0ojt+2dNu7HwNzSuKP3s+tuYj4p2tp+h8GDr+yD93PKMMr6ud8NxHeNafvKzfo1mXybmz5bdCHz9Tfrv9+PHjGyvrs5/9bNH+7Gc/e2N/32pf9okavU6njj66YxC9wDyimR2f9T+KJzt/bS8aH7VH9iJ+UX5a7Uf8IvtZ/6J4szxb/Ru63iJ/ovhb8xHZb81XNj9ZvpF/2fkjHtrnRaAWnq1663Of/1xKP2Vp1XprtD2erSAIz2xq9b+QQG8LffZCkfU/ulBn54+EQ/QC+uyFM6reyF7kb2Q/4hfZz/oX+TN2vqJ4Iv9aeW3bfmu+svnJns+Rf9n5s7z175sA4Xk+P/UeT8Kz78Jdune9LfTZC0XW/0gIZOePhAnhWe7Bi4RC9nwbO19RfrP+RvEPXc+t/kf+RvFn85ONP/IvO38Uj/Z5ESA8Cc95VexKvO1toc9eKLL+E54lgaH5RUInEgrZ0y5bL63+Tc0ryyPim/U/shf5l83P0P5l54/i0T4vAoTnPsLzNa95TZHJRx99dGNm62991senTp3aOL5+/VL9ntD6vZ733XdfYc+32ud14vEWAQQQQACBNRKohefc9NZoezznBoLwXOPpK2YEEEAAAQTmRYDwdMdzXhXLWwQQQAABBBCYLQHCk/CcbfFyHAEEEEAAAQTmRYDw3Ed4ziuNR4541D63jPEXAQQQQACB9RGohefcCIy2x3NuIAjPuWWMvwgggAACCKyPAOHpjuf6ql7ECCCAAAIIILAVAoQn4bmVwjMpAggggAACCKyPAOG5vpyLGAEEEEAAAQQQQGBkAjsPPvjguZHnYB4BBBBAAAEEEEAAgSOEpyJAAAEEEEAAAQQQmIQA4TkJZpMggAACCCCAAAIIEJ5qAAEEEEAAAQQQQGASAoTnJJhNggACCCCAAAIIIEB4qgEEEEAAAQQQQACBSQgQnpNgNgkCCCCAAAIIIIDARuH5kpe8ZNaE6k9m/tRP/dSs43nPe94za/85jwACCCCAAAJPJ+AF8ueZEJ59nR6EZ1/54A0CCCCAAAJDECA8Cc8h6mhwG4Tn4EgZRAABBBBAYOsECE/Cc+tFeDEHCM8u08IpBBBAAAEEmggQnvsIz/e///1NYIce/O3PfRYmb7vttuI42uP5gQ984EAuPf/5zz9Qv71OjzzySKr/XucHHnhgYzyE56GwGoQAAggggEDXBGrhOTe99YlPfOLAfFM/LpobCMLzwHWgIwIIIIAAAghsiQDh6Y5nUXrueG7pTDQtAggggAACKyBAeBKehOcKTnQhIoAAAggg0AMBwvOAwrPeY5lN3s7OTjHkxhtvLI7f/OY3F8dnzpwpjr/85S8Xx/fdd19xnH3UvrfHsvbj53/+51OhveMd7yj6v/Od79w9Pnny5MZ4vvKVrxTtH/vYx4pjezxTaVhd5+uvv74p5rvuuqtpvMHTEojyPXQ+6/la7U/t/7TZMRsCOQKR8Iz01ute97piwltvvbU4rvXWsWPHivZIn0R6a7I9nhGICDvhWQppwjOqGO2bCEQX8oheq5CI7GsflkCU76HzSXgOmz/WELiQAOF5nkb9Avn6x0WE58VPHHc8LSjbIBAJkcinoYVKNJ/2NgJRvofOJ+HZli+jEdhEgPAkPIv68KjdgjEHApEQiWIYWqhE82lvIxDle+h8Ep5t+TIaAcLzSQJNr1Oq3zv5xBNPFFwvvfTSjZUW7Ul4+OGHi/EveMELiuNHH320OP7oRz9aHB90j2f9q/VaaH7P93zPrt0onr3JP/OZzxR+1HdA3/rWt+6217zqPRQf+chHCjv2eFq4NhGohcG1116bAnb//fcX/YcWLilndH4agUj4Rfm/4YYbUlSj+e68887CXmQ/sje0/6lgdUZgywSiO55ZvRXpqyjcWp9EemuyPZ5ZEHWgERjCk/CMTg7t3yEQXbgjVoRnRGi77VMLt2g+wnO79WD2ZREgPM/nM9rjSXhevPDd8VzWgjCXaAjPuWTqcH5GQjDKf3RHsvYqmo/wPFwejULgYgQIT8KzqAuP2i0UcyAQCY8oBnc8I0LbbY+EYJR/wnO7+TM7ApsIEJ77CM+777674FY/Cq9fj1S/d/MNb3hDMf5tb3tbcVz/Sv6FL3xh0V7b++pXvlq0f/S3cns83/e+9+2Or+fZ24MZxXP06NFi/ksuuaQ43tsT+prXvKb491tuuWX3uI7na1/9WtHvIx/1qN1SdXAC0Y9NIkv1ns7ojlZ2vuye0az9Or5ovqz9yF7EN9seCc06P/UfDvUe31bhmbW3bf+zvPVHYJsEauHZqrdqfXLixIkivPq3J6dOnWrSW6Pt8WwFQXg+mVfCc5un93LnzgqpSKgRniUhwvPaAkgkZAnP5a41IhueAOF5nmm9x5PwLF/47o7n8Ccfi4cnQHjmhGKWF+FJeB7+7DQSgc0ECE/Cc5eAR+2WijkRyAopdzxznxglPAnPOa0HfJ0XAcJzH+EZfbko+gTmzTffXFTCI488UhzX79Os7yjW9utPTN5zzz2FvcO+x3O/PZ71/KdPny7mq/d47r0Hq95isPeovbb31a+We1Y/9KEPFfa9x3NeC8nU3kY/Lsn6Ez1Kre3Vj+br9ujHS9lHs5H9ek9iNH+r/1m+df9s/HV+ovxH+Rx6/tY9w9k9pa38jUdgmwSiHxfVv4Gp9UNWn9R7Pt/ylrcU4Wf11mh7PAnPnSIxhOc2T1NzR8Il+wL52l4kVAjPuwYtwqGFX1a4DT0/4TloeTC2cAKEpzueuwRa/6Jwx3PhK0Vn4UV3vLLuEp4lseiOaZZv9IfD1MKN8GzNoPEIHJ4A4Ul4Ep6HP3+M3BIBwvP+grxH7dcWPKI/JAjPLZ24pkXg2wQIzwMKz09+8pNFwdR7Mh9//PGi/cYbbyyO9/ZS7v3jZZddVrTXj7Lr6vzCF75Q/FP9bfOD7vGs93bV77d65zvfuTtPHc+5c+eK+ffukL72ta8t/r3+9vsP/uAPXvRE++IXv1j8+4c//OHi2B5P69MmApHwjIRHlm7rj5kiYdj6qDiyn4237p/1L5qvlWfWv1ahWc83tf8RT+0IzIlAJDyzeqvWJ/Unym+//fYCT/1E55prrinaI7012R7PLAjC88k8Ep5zWg7m4yvhWf5KnfC8tije6MdI2Uf7hOd81gae9k+A8Dyfo+hb7YSnO579n87r8ZDwJDwvrPbojqw7nutZG0TaPwHCk/AsqtSj9v5PWh4eOUJ4Ep6Ep5UAgXkSIDwPKDzr90pF6a73gNZ7IW+99dbCRP2r8r1vn+91+vznP1/0r/dEHnSP556RBx54YPd/fuYznyns1ns+ozjrPZ31+L1v1Nfx/OEf/mFh+t577y2O7fGMyK+7fWzhmb1DVmcj+y3x1j2D0aP21tdN1fENvYc2eq/o0HyjO6TZs2ts/7P+6I9AzwQi4ZnVW/WezlpfPfzwwwWOq6++ujjO6q3J9nhmQRCeT+aV8Oz59J+vb4RnmTvC89oCSLTHk/Cc77nP8/kTIDzP5zDa40l4XrzY3fGc/yIwxwgIT8LzQgKRkBy7XtzxnOMqwudtESA8Cc+i9jxq39apaN4MgbGFhEftm7PhUXvJh/DMnL36rp0A4bmP8Lz77ruL2qj3CJw9e3Zj7dSP2uvO9Z6EWvCdOXOmGPKlL32pOM5+q/1973tfMf6hhx4qjvfi+b3f+73UOfH93//9u/339qh++tOf3ihk3/72t++2P/roo0U/32pPYV9957GFZw146D2YkXCLhMzUe0jr1w9tuwCj/EdfXqr5RvkYOt7I/6n9GTo+9hDYRKAWnlm99frXv74wn93TeezYsWJ8Vm+NtsczC6KGTHg+SaQW1ISnBWkIAlNfuAnPYb/V3loDUf4Jz1bCxiMwHgHC8zzbeo8n4XmwonPH82Cc9BqWQCQ8hr5jRHgSnkNW8NT1O6TvbCHQSoDwJDx3CXjU3noqGT8lgakv3IQn4TlkfU9dv0P6zhYCrQQIz32EZ/3Jy/o9mjX4c2fLL/s8fqb8dvvx48c35uqzn/1s0f7sZz97Y//st9rreOr3aA4dz569b3zjG4Xp+tH7L//yL++2+1Z766m87vFT79mL9mBG2agfBUf96/bWTz62+j/0HeVs/HX/KP9Re+v8reN79681PuMRuJBALTxb9dbnPv+5lH7KZqPWW6Pt8WwFQXg+mVrCM1vi+h+GwNQX7lbhRngeJsv7j4nyH7UP603eWu/+5SMyAoH9CRCe59nUezwJz7Y7uHslR3hafqYgMPWFm/C8YYq0HniOKP9R+4EnGqlj7/6NFDazKyVAeBKeFy391q0DhOdKV5QthT31hZvwJDyHLPWp63dI39lCIEuA8NxHeL7mNa8pWNbvnaxB19/6rI9PnTq1MTf165fq94TW75m67777CnvRt9rreL785S9v9GeseOo7oM985jN3/fjYxz5W+ONb7dlTWf85E2gVsr3tuZxzLviOAALjEqiF59z01mh7POcGgvAc90RhHYExCRCeY9JlGwEEeiJAeLrjedF6dMezp9OUL0snQHguPcPiQwCBPQKEJ+FJeFoPENgyAcJzywkwPQIITEaA8NxHeE6WgYEmih61DzTNZGbs8ZwMtYkQQAABBBCYjEAtPCebeKCJRtvjOZB/k5khPCdDbSIEEEAAAQQQOCQBwtMdz0OWzrjD3PEcly/rCCCAAAIIbIMA4Ul4bqPuwjkJzxCRDggggAACCMyOAOE5u5RxGAEEEEAAAQQQQKB3AjsPPvhg+R3I3j3mHwIIIIAAAggggMAsCRCes0wbpxFAAAEEEEAAgfkRIDznlzMeI4AAAggggAACsyRQCM9PfepTswyC0wgggAACCCCAAAJ9Enje8573lGOEZ5854hUCCCCAAAIIILAIAoTnItIoCAQQQAABBBBAoH8ChGf/OeIhAggggAACCCCwCAKF8Lzjjjueep3SS17ykkUEKAgEEEAAAQQQQACBPghc+C33HcKzj6TwAgEEEEAAAQQQWCIBwnOJWRUTAggggAACCCDQIQHCs8OkcAkBBBBAAAEEEFgigUJ4fvrTn35qj+fXv/71JcYrJgQQQAABBBBAAIEtEfja17721Mw7hOeWsmBaBBBAAAEEEEBgBQQIzxUkWYgIIIAAAggggEAPBAjPHrLABwQQQAABBBBAYAUECM8VJFmICCCAAAIIIIBADwQIzx6ywAcEEEAAAQQQQGAFBAjPFSRZiAgggAACCCCAQA8ECM8essAHBBBAAAEEEEBgBQQIzxUkWYgIIIAAAggggEAPBAjPHrLABwQQQAABBBBAYAUECM8VJFmICCCAAAIIIIBADwQIzx6ywAcEEEAAAQQQQGAFBAjPFSRZiAgggAACCCCAQA8ECM8essAHBBBAAAEEEEBgBQQIzxUkWYgIIIAAAggggEAPBAjPHrLABwQQQAABBBBAYAUECM8VJFmICCCAAAIIIIBADwQIzx6ywAcEEEAAAQQQQGAFBAjPFSRZiAgggAACCCCAQA8ECM8essAHBBBAAAEEEEBgBQQIzxUkWYgIIIAAAggggEAPBAjPHrLABwQQQAABBBBAYAUECM8VJFmICCCAAAIIIIBADwQIzx6ywAcEEEAAAQQQQGAFBAjPFSRZiAgggAACCCCAQA8ECM8essAHBBBAAAEEEEBgBQQIzxUkWYgIIIAAAggggEAPBAjPHrLABwQQQAABBBBAYAUECM8VJFmICCCAAAIIIIBADwQIzx6ywAcEEEAAAQQQQGAFBAjPFSRZiAgggAACCCCAQA8ECM8essAHBBBAAAEEEEBgBQQIzxUkWYgIIIAAAggggEAPBAjPHrLABwQQQAABBBBAYAUECM8VJFmICCCAAAIIIIBADwQIzx6ywAcEEEAAAQQQQGAFBAjPFSRZiAgggAACCCCAQA8ECM8essAHBBBAAAEEEEBgBQQIzxUkWYgIIIAAAggggEAPBAjPHrLABwQQQAABBBBAYAUECM8VJFmICCCAAAIIIIBADwQIzx6ywAcEEEAAAQQQQGAFBAjPFSRZiAgggAACCCCAQA8ECM8essAHBBBAAAEEEEBgBQQIzxUkWYgIIIAAAggggEAPBAjPHrLABwQQQAABBBBAYAUECM8VJFmICCCAAAIIIIBADwQIzx6ywAcEEEAAAQQQQGAFBAjPFSRZiAgggAACCCCAQA8ECM8essAHBBBAAAEEEEBgBQQIzxUkWYgIIIAAAggggEAPBAjPHrLABwQQQAABBBBAYAUECM8VJFmICCCAAAIIIIBADwQIzx6ywAcEEEAAAQQQQGAFBAjPFSRZiAgggAACCCCAQA8ECM8essAHBBBAAAEEEEBgBQQIzxUkWYgIIIAAAggggEAPBAjPHrLABwQQQAABBBBAYAUECM8VJFmICCCAAAIIIIBADwQIzx6ywAcEEEAAAQQQQGAFBAjPFSRZiAgggAACCCCAQA8ECM8essAHBBBAAAEEEEBgBQQIzxUkWYgIIIAAAggggEAPBAjPHrLABwQQQAABBBBAYAUECM8VJFmICCCAAAIIIIBADwQIzx6ywAcEEEAAAQQQQGAFBAjPFSRZiAgggAACCCCAQA8ECM8essAHBBBAAAEEEEBgBQQIzxUkWYgIIIAAAggggEAPBAjPHrLABwQQQAABBBBAYAUECM8VJFmICCCAAAIIIIBADwQIzx6ywAcEEEAAAQQQQGAFBAjPFSRZiAgggAACCCCAQA8ECM8essAHBBBAAAEEEEBgBQQIzxUkWYgIIIAAAggggEAPBAjPHrLABwQQQAABBBBAYAUECM8VJPlPQjxx4sRKIj1YmNddd13R8d577z3YwJX0qvm8+MUvXknkwhyDgPWnpGr92Vxl1p8xzsJ+bBKe/eRiVE8s/Bb+TIFZ+DO09I0IWH+sP1GNXNhu/cnQml9fwnN+OTuUxxZ+C3+mcCz8GVr6RgSsP9afqEYIzwyhefclPOedvwN7b+G38B+4WL7dkfDM0NI3ImD9sf5ENUJ4ZgjNuy/hOe/8Hdj7euGvhcWBDS2k4y/+4i8WkbzoRS8qjvEp+Tz00EMLyfx2wqjPv1tuuWU7jmxpVutPCd76s7kQaz7Wny2duCNNS3iOBLY3sxZ+C3+mJi38GVpxX8Kz/HGjP+z84bvprLH+xGvKnHsQnnPOXsJ3wjMnPB/8jbO7A97y2z9xUcqv/7EPXbR979/rQfvZSaRw0q4W/mFxE56E54UV5Y6nO57DrjDzskZ4zitfh/aW8CQ8M8VDeGZoxX0JT8KT8IzPk70e1p+Ds5pjT8Jzjlk7hM9Z4Vm/t/GBBx7YOGhImN4AACAASURBVGvUfgiXiyG1P9F7JSN/ojsOe3c895yo71jWdzz3jv/yf/Xv7A6p/dtr/7++/tbd9ptuumljfDWvOp6IR9Z+PZ+Fv7Viy/HRj2uWvuczu/5k6Ufne9Ze3T9ab7L2o/Vn6K0I2fU8imdoe9afiPiy2gnPZeVz32iyC392YZl64Y8uBJE/0cJPePpx0ZBLA+E57h3P6HxvzWW03mTtR+sP4Wn9ydbUnPoTnnPKVoOvhGcJL1r46z2e+93h3LsTGt3xrC9c2TuS7ng2FH8HQwlPwvPCMozWH8KT8Oxg2RrNBcJzNLR9GSY8Cc9MRXrUnqEV9yU8CU/CMz5P9npYfw7Oao49Cc85Zu0QPg8tPOs7cC972csKr1760pdu9PLjH/940b6zs7Ox/7ve9a6i/RWveMUhKHxnSHTHYb9ftde/Wt/WHc9f+qVfKuKv8xHdIY3g9bbwX3311ZHLk7bX733NTh59q3tpez6z60/Ec+nrz9B3PGue2a1U2f5R/qL23tafyF/tOQKEZ47XbHtnF/5ooVn6wk949vWoi/Cc7dKz63h2/YmiXfr6Q3j2tf5E9ag9R4DwzPGabe/swk945t7jOfUeT3c8t3squuOZ459dfyLrhGdEaHN7tL633iFt8+7IEXc8Wwn2PZ7w7Ds/g3mXXfijhWnpC3/2BfKE52ClelFD7niOy3ds69n1J/Jn6euPO57ueEbnwJzbCc85Zy/he+vCH/0q+01vetNGb9587z8o2q+88sri+LmXPXmHce//zp07Vxy/+93vLo7rPZ6RUK6dy+7xrC90H/67X9g1uffezvq4ni9qT6RykK6f+9znNvLs7Y5Db8Lz5ptvHiQP+xm59957i6a57/lsXX9qTvX5GK0/j37vcwsTl1Zbyv/Ju+5oWn+yxRCtP4Qn4ZmtqTn1JzznlK0GX1sXfsKzfIE+4dlQjIcYSnjecghq/QxpXX8Iz2Fzmf1DPdu/1dve/vBtjcf4kgDhuZKKaF34Cc/NwnOvjPYEaV1We3dGeyk3dzzbMuGOZ45f6/pDeOZ4R72zQjLbP5o/aic8I0Lzbic8552/A3vfuvATnoTngYtthI7ueLrjeWFZedTedpJlhWS2f5t3flzUyq/38YRn7xkayL+s8IwWmmjh/+7v/u7C8ze8tdxDdVW1x/Pf33ms6L/tPZ71Hqs63v/oR/6Dwt/jx48Vx0cvuaQ4rt9TerR6b+nO0XLTWd0/e1zze+LME4U/t7/9N4vjes9sb3ccehOe2dPyV974xmLIVc96VsrE3Pd8ZtefCE52/Xnk0vL8rO2vfY9nxDu645wdH/Xvbf2J/NWeI0B45njNtnd24Sc8rytyTXg+tNXaJzzn/WOj7PoTFRvhGRHa3N767fmaf5s3Tx9NeA5NtC97hGdf+RjNm+zCT3gSnhcW40MPEZ4tJ6c7nsN+MpPwbKnGI0cIzzZ+RrcRIDzb+M1mNOFZpir7OhN3PAnPlpOd8CQ8L6yf7PrTUnsXG0t4Dk2UvQwBwjNDa8Z9xxaeN910U0HnOc95TnH8N97x3uK4fo/ndz3+jY1062+133bbbUX/7KOf7MJf2/9zL39+Mf9llx8vjk8/9nhxXO/hfOYzn1G213s+q+N6T+jJk6c2jr/iGZcX7Y+fLv156813F+297/G86667ujr7rr/++pQ/2fMvMj63PZ9Dx1+fj9H6U+/xPFO+JvjIP33X7an155WvfGWUoo3t2fWnabKLDI6eaNVDsv1b/fWovZVg3+MJz77zM5h32YU/WmiyCz/hWf54iPDMlTbhWfIiPMu3TBCeufMpWt8JzxxPvXMECM8cr9n2JjzL1GXvOLjjud1H7YQn4Xkhgewfvu54lvVDeM72Ur4IxwnPRaQxDoLwJDwvJOBRe3zObOrhUXuOX3b9iawTnhGhze2EZxs/o9sIEJ5t/GYzunXhz75Avn6P59/8tfcXrJ75zGcWxz9webnp6utf/3rRXn+r/Vd/9VeL9qn3eL7sL76wmP/s2dL/K68q4zt69GjR/yP3lN+uv+6v/FjRfrR6r2e9p7PmV20JPfKbH7ivsPefXvfy4vgtf/fXi+Pe93j29jqlF73oRU3n/tDf4u790Xvr+lPDzv6q/Z9U7/E8XRn8/D0fKv4lWn/q8yVbDNknLln7df+s0IzmG9pePZ89nlEG5t1OeM47fwf2vnXhJzzLPWWE54FLb5COhOdmjITnmwpA9R++hOeLm/5QH1vIEp6DLJOzMUJ4ziZVbY4SniW/7B2H+g4L4dlWj9nRhCfheSEBdzxzZ9DQdyiHtkd45vI5996E59wzeED/CU/C80ICHrUf8MTZp5tH7Tl+retPPRvhmeM/tFAc2h7hmcvn3HsTnnPP4AH9zy780cJSL/wf+lC5R+oP/uAPCs/u/j//UXF85TOvLI7/9CXlrqsLC/NPOtZ7PKfeY/W0O54/9sOF/+eqPZ5XPavc47mzU+7x/PCHyj2eP/GKco9n/W32U6fKb9nXr2M6cqR8XdNvfuBjhX/1Hs83/493Fu32eB7wRDrf7eabb84NmLj3H//RHxUz/ujLyz2+E7tzJLv+RP5l15+vfd9zN5r8w3vvKdp7W38iHnV7tH639h96POGZzfC8+xOe887fgb3PLvzRwpVd+AlPwvPAxXqRjr09aic8c9nMrj+R9ez6Q3iWe9SHFo7R9SLKJ+GZJTTv/oTnvPN3YO+zC3+0kGQXfsKT8DxwsRKeLah2x7rjWT5xITwJz+aTioHBCBCeg6Hs2xDhWean+cdFHrVPWvDueOZwE56E54UVE71uLrrREFVf63h3PCPCy2onPJeVz32j2bbw/OBD/7jw7aorryqO/72z3yyOe9tjVS/cP/qXyvc4Xn75ZYX/px8r96wevaS84xl9MvNotSe0/tb7077VXu3xrL/Vfrr6VvvN/8N7Cn/t8Rx3IfiVN76xrP9nPWvQCXt/72F2/anhRK9zi/aYP/q9m/d4funDuT2eU79HOCqWoYVf63yt/vRezxEf7ZsJEJ4rqZDswh8tHNlH7YQn4dlyqvV2xzMbC+F5okCWfYE+4bm54qL1OluvUf9ovqg9sk94RoTm3U54zjt/B/ae8CxRtT5qd8fzwKU3SEfCczPG3i/U2fXHHc/rUudNq9BLTfbtztF8UXs0X+/1HPmv3R1PNfBtAtmFP1o43PH0qH3KE4vwJDwvJHDTTTcVQDxqH/bLRNG5HV0fovbIPuEZEZp3uzue887fgb3PCs/IcPYFzrd++HcKk1ddWb7H809962tFe2/fSq7jffmPl8Kz/lb7VVeV8dXfar/3N/9+Ee9feeVfKo7r93iePFm+x/PKK5+xsf8H3/9bRftfvu7PF8c3/Z1fK4573+N51113RSU5afv111+fmm/o829uF+Zs/JFwya4/D19ybGO+/tW9bd9qj/ytJ88+canHZ+cbenyq+L/dOevv3Oo7y2Pt/QnPlVRAduGPsGQXfsKz3ONJeEYVVrYTniWPuV2Ys+tPJFSy6w/hWdZPxDd3dsa9s/PNrb5jAnpcSIDwXEk9ZBf+CEt24Sc8Cc+opja1E56E54UEsusP4Ul4tqw/xg5LgPAclme31gjPzRfu+tvb9a9uPWp/aKu1TXgSnoTndwhk7yDWJ2/r+OxikJ3PHc8s4Xn1Jzznla9Dezu28Kw3+z/nOc8pfL3tvv+1OL6y2uN55g/+2cbY3vWud5X2brutOI5ekFwbz+6xioRn/a32K4M9nh/+ULnH8yde8eOFi0ePlt9er9/b+fT3gJZ3VP/e+z9a2PvP/vO/UBzf9LffXRz3vseztx8X1X+oZE/M7OuE5n4hjtafSJhEr1OK1p9HLt28x/P/vuP21Przyle+cmP/KJ7s+hPZi9qz9Tm2UI38nXu9t/Je+njCc+kZPh9ftPBnMdRCLFr4Cc/6k5mEZ6bmCM9fLHA99NB270BncvcnfaP1JxIihOfmX61H/LL5IjxbiRm/iQDhuZL6iBb+LAbCs/xVuzue2QrK9Sc8Cc8LK6b+Qzf6w9cdz9z5Rni28TJ6MwHCcyUVQniWic4+6vKofbt32AhPwpPw/A6Bej1yx3MlF/KFhEl4LiSRURiR8KwXrtpevdBlf1X67t/9RGGy/lb7t/5F+S33c+fOFf3f/e5yT+LU30oOv9V+Wfmt9sdOV99qP7r5k5n1ns76PZ471bfbT506VfCp+19xxRVF+5nHHy+O5/Yez96E58033xydck3tS9vjll1/oj3b2fWnvuN5vMrOI++6o/iXaP2p90Rn7xBm//AdW1g2FeshBkfxLK3+D4Fo0UMIz0Wn9zvBZRd+wrP8ZB3h6Y7nhecE4ZlbOLPrD+FZrj+RUMtlY/u9o3gIz+3naEwPCM8x6XZkO7vwE56E54U1sO0fs7jjuV3h37qUZdcfwpPw7Gn9aa1/40sChOdKKiK78BOehGdPCz/hSXheWI8etT8w6yuXO56zTl+z84RnM8J5GIiEZxRF9DqTN73pTRtN/B+//6+K9mdddVVx/Ef/zz8qjrN7rLJ7VLN7rOoL3Y+8/D8s/L3seLlr7Ogl5Z7O+lvt9fHT93SW7/HM9i9HHzny+JknCn9vvem9xbH3eEZnQFv7r7zxjYWBq571rOJ46Y8Wo/UnEiLRH8LR+vO173tuYWJtezyzfLPVnrUf9V/6+ZDlu7T+hOfSMrpPPNHCH2EgPMs7DIRnVDHDtvd2xzMbHeF5okBWv0A/EiKE5+b3eEb1mOUb2avbs/aj/oRnNgPz6k94zitfh/aW8CyFozue7nge+mQ6xEDCk/C8sGyy608k1KKSbB0/tP3IH8IzIj7vdsJz3vk7sPeEJ+F5YbF41H7gU2eQjoQn4Ul4focA4TnIsjJbI4TnbFOXc3xs4fmyl72scOilL33pRgc//vGPF+31Hsd6cP2t9ug9ehGd7B2HD37wg5HJrbbXe2IjnrWzve/xvOuuu7bKt578+uuvT/lTn38PP/xwMX7bbw1IBXOIztn1JxIm9Z7rba8/kb81suz6U4/PzneIlA06JOuvO56D4u/OGOHZXUrGcSi78EcLXf2Jum0v/Flq2YWf8Nzur6oJz2yF99U/u/5EQoXwbNvzOXV1RPmMhPnS/zCbOh/bno/w3HYGJpo/u/ATnuXrlAhPwvPCc8Idz9zClV1/IqFCeBKeuQrUuycChGdP2RjRl+zCT3gSnhfWwLbvOLjjOeLiMIHp7PpDeJbrT7QeRy/cnyDFG6eI8umO57YzNO38hOe0vLc2W3bhjxytF5Jf+IVfiIY0tbfu6YwWthe96EVFl/p1L9HCX8df+xvxiuKr77hm+2e/bW+PVVO5Pm3w7/7Df1j824++/OXDTtC5tdb1J3pP79jrT33+1Lizwi+71SdKb8QnGj92eyufbf/hOzaftdknPFeS8daFPyu8hsYaCa3sfK0Lf1ZIZvvX8RCe2Qz31Z/w3Pyr9ihbkbAiPMtH7xHPqdsJz6mJ9z0f4dl3fgbzjvAsURKemz+5547nYKferiHCk/C8sKJa15/oRsCw1dtujfBsZ7gkC4TnkrK5IRbCk/C8kEB0ISA8h10YCE/Ck/A8+Dll/Tk4qzn2JDznmLVD+Dy08DyEC10NGfqOQ+uj8Ggrwdj26+RY+Lsq19k7Y/0Z9g/f2RdEEID1Z9kZJjyXnd+norPwj7vwjy0Mx7ZPeK5kIdhSmNafcdefLaV1tGkJz9HQdmGY8OwiDeM7YeEfd+EfWxiObZ/wHP8cXPMM1p9x15+l1RbhubSMlvEQnsvOrzue++TXo/bNhW/hX8nCMFGYhCfhmSk160+G1vz6Ep7zy9mhPK5/TFKf2IcyuqBBN998cxENPmVyvUdvQcW+hVCsP5uhW38287H+bOGkHXFKwnNEuD2ZtvBb+Fvq0cLfQs9Y64/1p+UssP600OtvLOHZX05G8cjCb+FvKSwLfws9Y60/1p+Ws8D600Kvv7GEZ385GcUjC7+Fv6WwLPwt9Iy1/lh/Ws4C608Lvf7GEp795YRHCCCAAAIIIIDAIgkQnotMq6AQQAABBBBAAIH+CBCe/eWERwgggAACCCCAwCIJEJ6LTKugEEAAAQQQQACB/ggQnv3lhEcIIIAAAggggMAiCRCei0yroBBAAAEEEEAAgf4IEJ795YRHCCCAAAIIIIDAIgkQnotMq6AQQAABBBBAAIH+CBCe/eWERwgggAACCCCAwCIJEJ6LTKugEEAAAQQQQACB/ggQnv3lhEcIIIAAAggggMAiCRCei0yroBBAAAEEEEAAgf4IEJ795YRHCCCAAAIIIIDAIgkQnotMq6AQQAABBBBAAIH+CBCe/eWERwgggAACCCCAwCIJEJ6LTKugEEAAAQQQQACB/ggQnv3lhEcIIIAAAggggMAiCRCei0yroBBAAAEEEEAAgf4IEJ795YRHCCCAAAIIIIDAIgkQnotMq6AQQAABBBBAAIH+CBCe/eWERwgggAACCCCAwCIJEJ6LTKugEEAAAQQQQACB/ggQnv3lhEcIIIAAAggggMAiCRCei0yroBBAAAEEEEAAgf4IEJ795YRHCCCAAAIIIIDAIgkQnotMq6AQQAABBBBAAIH+CBCe/eWERwgggAACCCCAwCIJEJ6LTKugEEAAAQQQQACB/ggQnv3lhEcIIIAAAggggMAiCRCei0yroBBAAAEEEEAAgf4IEJ795YRHCCCAAAIIIIDAIgkQnotMq6AQQAABBBBAAIH+CBCe/eWERwgggAACCCCAwCIJEJ6LTKugEEAAAQQQQACB/ggQnv3lhEcIIIAAAggggMAiCRCei0yroBBAAAEEEEAAgf4IEJ795YRHCCCAAAIIIIDAIgkQnotMq6AQQAABBBBAAIH+CBCe/eWERwgggAACCCCAwCIJEJ6LTKugEEAAAQQQQACB/ggQnv3lhEcIIIAAAggggMAiCRCei0yroBBAAAEEEEAAgf4IEJ795YRHCCCAAAIIIIDAIgkQnotMq6AQQAABBBBAAIH+CBCe/eWERwgggAACCCCAwCIJEJ6LTKugEEAAAQQQQACB/ggQnv3lhEcIIIAAAggggMAiCRCei0yroBBAAAEEEEAAgf4IEJ795YRHCCCAAAIIIIDAIgkQnotMq6AQQAABBBBAAIH+CBCe/eWERwgggAACCCCAwCIJEJ6LTKugEEAAAQQQQACB/ggQnv3lhEcIIIAAAggggMAiCRCei0yroBBAAAEEEEAAgf4IEJ795YRHCCCAAAIIIIDAIgkQnotMq6AQQAABBBBAAIH+CBCe/eWERwgggAACCCCAwCIJEJ6LTKugEEAAAQQQQACB/ggQnv3lhEcIIIAAAggggMAiCRCei0yroBBAAAEEEEAAgf4IEJ795YRHCCCAAAIIIIDAIgkQnotMq6AQQAABBBBAAIH+CBCe/eWERwgggAACCCCAwCIJEJ6LTKugEEAAAQQQQACB/ggQnv3lhEcIIIAAAggggMAiCRCei0yroBBAAAEEEEAAgf4IEJ795YRHCCCAAAIIIIDAIgkQnotMq6AQQAABBBBAAIH+CBCe/eWERwgggAACCCCAwCIJEJ6LTKugEEAAAQQQQACB/ggQnv3lhEcIIIAAAggggMAiCRCei0yroBBAAAEEEEAAgf4IEJ795YRHCCCAAAIIIIDAIgkQnotMq6AQQAABBBBAAIH+CBCe/eWERwgggAACCCCAwCIJEJ6LTKugEEAAAQQQQACB/ggQnv3lhEcIIIAAAggggMAiCRCei0yroBBAAAEEEEAAgf4IEJ795YRHCCCAAAIIIIDAIgkQnotMq6AQQAABBBBAAIH+CBCe/eWER1sgcM0112xh1n6n/OEf/uHCuVtuuaVfZ3nWPQHnV5ki51f3JcvBEQkQniPCZXo+BFwYXRjnU63z89T55fyaX9XyeCwChOdYZNmdFQEXRhfGWRXszJx1fjm/Zlay3B2RAOE5Ilym50PAhdGFcT7VOj9PnV/Or/lVLY/HIkB4jkWW3VkRqC+MP/Pejxf+P3H6dHF87uwT5fG5cxuPj1TtO0d3iv47Ry8pjo9ecmzjfGefOFOO39ls75JLS3vHnnFlMf7Y5c8ojv/d3/vd4vjFL37xrPLJ2b4I1OdXvcexL2/H9+a6665zfo2PebEzXH31K1KxPfTQB1P9x+5MeI5NmP1ZECA8Cc9ZFOpMnSQ8y8QRnjMt5E7cJjw7SQQ3EGghQHgSni31Y+xmAoQn4ekcGY4A4TkcS5YQ2BoBwpPw3FrxrWBiwpPwXEGZTxYi4TkZahMhMB6B+sL4k2//rWKynUvLPZg7O0eL9nPnzpb9j15aHF9++eXF8amT36rGb94jWm3hPHL2TLnH84orSuF46uTJ0v6R0v7OkXJP6Lmq/Xmn/mUx3h7P8WpvDZbHFp71e2ZPnDjRhLV+FH7vvfc22asHe9Q+KM7ujA0tDLP2IiDRns/sfJG92h97PKMMaV8FAcKzFKaE5yrKfrIgCU93PCcrtg4mGlq4Ze1FCCKhmJ0vskd4RhnRvkoChCfhucrCnyhowpPwnKjUuphmaOGWtRdBiIRidr7IHuEZZUT7KgkQnoTnKgt/oqAJT8JzolLrYpqhhVvWXgQhEorZ+SJ7hGeUEe2rJFBfGF/1zt8uONTv2Tx3ttzTeaTaI3nubCnkrnhGtAezxH70aLmHtJ7/Gf/Wv10MuKTcsnnkicq9b/3Rvy761+8Brf3/oW9+uuhvj+cqT4vBgh5beNaOZvd8jr2ns/bPHs/BSqtLQ1nh1mUQCacIzwQsXRHYI0B4lkKZ8HRuDEmA8HTHc8h66t0W4bk5Q35c1HsF828SAoQn4TlJoa10EsKT8FxT6ROehOea6l2shyRAeBKehywdww5AgPAkPA9QJovpQngSnospZoGMR6C+ML76jt8pJrvs+PGNk5+s3pt5xRVXFP1Pnym/7V5/u/3pey43x3p5Zf/4ZeV8Z848Xhg4+a1/k4L3Z/7onxb97fFM4dO5IkB4Ep5rOinGFp7ZPZW9+eNR+5rOBrHuS4DwLNEQnk6WIQkQnoTnkPXUu63ehF5v/hCevVcw/yYhQHgSnpMU2konITwJzzWVfm9Crzd/CM81nQ1idcfzgDXgjucBQel2IAKEJ+F5oEJZSKfehF5v/hCeCyl0YbQRCF8gf0n5rfbqU+dHLr+83GN5/LLy2+ynHztVOHjyW+W32o/U7wV92ns8q2+rP+09oeX8jz12upjvsupb8fV7QU/+mz8u+nudUls9GV0S2LbwfOCBB1IpGfrb7PXk3uOZSsfsO2eFX3YPZyugqf0jPFszZvwiCBCehOciCrnTIAhPdzw7Lc1J3Jpa2GWDmto/wjObIf0XSYDwJDwXWdidBEV4Ep6dlOJW3Jha2GWDnNo/wjObIf0XSYDwJDwXWdidBEV4Ep6dlOJW3Jha2GWDnNo/wjObIf0XSSB6gXz97fWdo+Wey8urPZ3Hq/d+nn68fK/m6TPlx9TPPVG213sya+inT5f9jx+7tOhSv1d0p/qWe5REezwjQtozBLYtPE+cOLHRXd9qz2RT3yyBSNhNvacz6//Q/QnPoYmyN0sChGeZNsJzlmXcrdOEpzue3RbnBI4RniVkwnOCojNF/wQIT8Kz/yqdr4eEJ+E53+pt95zwJDzbq4iFxREgPAnPxRV1RwERnoRnR+U4uSuEJ+E5edGZsH8C9YXxhnf9buF09C31neq9m/V7PR977LHC3iWXHiuOj1V7NC89flkJrXrP5+OPnSza6z2dx654ZtF+tJrvkkvLb88/9s1vFP1/4F//4+LYt9r7r+GePRxbeN5yyy1F+NGezojV2Hs+vcczysC82yOhWUdnj+d5Il//+tfnnXneI5AgQHgSnoly0TVJgPB0xzNZMrPuTnhuTp89nrMub84PRYDwJDyHqiV2nk6A8CQ813ReEJ6E55rqXayHJEB4Ep6HLB3DDkCA8CQ8D1Ami+lCeBKeiylmgYxHoL4w/uxdnygmO3bFlcXx6T/+/4rjM4+XezjPnX2iaL/iimcUxzuXlHs862+lP+09nufOFeNPnSr3eNbvET1VfRu+3nP6ePWt9yOl+SP2eI5Xa2u0PLTwzO7pbN2z2Tq+zrk9nss6C6YWmtn5pqYd7Vn1qH3qjJivSwKEZ5kWwrPLMp2tU4SnO56zLd4DOJ4VgpEwi6bMzhfZG7o9io/wHJo4e7MkQHgSnrMs3Jk4TXgSnjMp1UO5mRWCkTCLnMjOF9kbuj2Kj/Acmjh7syRAeBKesyzcmThNeBKeMynVQ7mZFYKRMIucyM4X2Ru6PYqP8ByaOHuzJBAJz3PVezSPVJsizz1Rfnv9iiufVXA4e6T8WPrpk98s2p84Xe0RPVfai6BeXu0hPXOm3GN66SVHCxNPe69o9d7Q537lkaK/93hGGdC+iUCr8Mzu6WzNRjRf655PezxbM9TX+KwQjIRZFF12vsje0O1RfITn0MTZmyUBwrN8YT3hOcsy7tZpwtMdz26LcwDHskIwEmaRS9n5IntDt0fxEZ5DE2dvlgQIT8JzloU7E6cJT8JzJqV6KDezQjASZpET2fkie0O3R/ERnkMTZ2+WBAhPwnOWhTsTpwlPwnMmpXooN7NCMBJmkRPZ+SJ7Q7dH8RGeQxNnb5YE6gvjq97x20Uc554o90zuXHpJ0X7ZsfK9nMerPZOnqz2c9bfVI2g7R8v5jlR7Tmt/nv5ez/o9o+Ue0p2j5R7UH/rmpwuX7PGMMqR9E4Gs8Iz2WEa0W8dH9uv27J5PezyzhPvunxWCkTCLos3OF9kbuj2Kj/Acmjh7syRAeBKesyzcmThNeLrjOZNSPZSbWSEYCbPIiex8kb2h26P4CM+hibM3SwKEJ+E5y8KdidOEJ+E5k1I9lJtZIRgJs8iJ7HyRvaHbo/gIz6GJszdLAoQn4TnLwp2JQsb+NgAAGv1JREFU04Qn4TmTUj2Um1khGAmzyInsfJG9oduj+AjPoYmzN0sCTxOe76z2eNbfNq+ivPyy8sc5lx0/XvQ4Xe0Rrb+1XkM7V823s1MKw+q1oEfq93geP3ZpOf/px4vjx06fLo7rb8vb4znLMu7W6Uh4Rnsys3sosyCGth/Zs8czm6F59c8Kw0ioTR392P4TnlNn1HxdEiA8yx9PEZ5dlulsnSI87y1yR3jOtpQP5PjYwu1ATjR0Gtt/wrMhOYYuhwDhSXgup5r7i4TwJDz7q8rxPBpbuI3n+ZOWx/af8Bw7g+zPggDhSXjOolBn6iThSXjOtHQP5fbYwu1QTiUGje0/4ZlIhq7LJRAJz7NnzhTBX1F9G/2xx8s9k5cdK/d4njz5rWJ8/V7Oeo9lTXqn2tR5rvpWfO3P8WqP6ePBHtOdnfJb7n/mj/9Z4YL3eC639qeIrFV4TuHjkHPY4zkkzfnbioTc3PZ4tvpLeM6/pkUwAAHCk/AcoIyY2IcA4emO55pPDsKzzD7hueazQexPESA8CU+nw3gECE/Cc7zq6t8y4Ul49l+lPJycAOFJeE5edCuakPAkPFdU7k8LlfAkPNdc/2I/4KPAn3z7bxU93/sLP757vPcN9yuecUXRfvJbJ3eP3/vzP3bRGV7z3v/9ov/+zlf9yEX//YY7fqf498vOvyd0v/6vvv0fFP1//ef+wu7xa379f9v9b/bb8H/2W58p7Nnj6dRpITC28Iz2VLb4/idjo/eM1vYjf7xOqTUj8xofCc86mtY9lFk6U/vnUXs2Q/ovkkB9YSQ8Cc9FFvqWgiI83fHcUul1Me3Uwi4b9NT+EZ7ZDOm/SAL7Cc+9O517QV977bW7//MHX/U3Cw7vfNWf2z3euyP6/37ozUX7/fffv3u8d+dz787l3vE/f+9/f9H+e3c+7/zrf74Yv1//vTufe3c89/x9zk+8IZU3dzxTuHQOCBCehOeaT5KphV2W9dT+EZ7ZDOm/SAKEZ5lWwnORZb61oAhPwnNrxdfBxFMLu2zIU/tHeGYzpP8iCdQXxldXeyzv/NmX78b91B3E604UHPbujO61/8Bf+69322//qf+46LfXvncH9Dt3UP/b3X71Hs79+n/f9U/2f/cN5R7Rfe2/+o2FH4+dOlUcnzt3tjj2ycxFlvnWgoqEZ+1Ydk/l1gI7P3G0p7P2zx7PbWds3PmzQi7rTXYPaG/+EJ7ZjOu/SAKEJ+G5yMLuJCjCs0wE4dlJYY7kRm9Crzd/CM+RCo/ZeREYWnju3dH8uff8L7sg9u587ndHcr89oFH/n7nzyV/L7935dMdzXnW3Fm8JT8JzLbX+J3H2JvR684fwXNPZINZ9CRCe7ng6PcYjQHgSnuNVV3+WexN6vflDePZXszzaAoGDvk6p3pO552q9N/Mnf/XJ94B+9t5bd/9b7+ncO94b/+rb//7u//yDv3fzgfr/9bs+sdvvM3f+ysb+e/7+0E+Xv5r/1je/UVA+d/ZccezHRVsowgVPmRWeNYp6z+cDDzzQFa177y1/PBQ551F7RGje7WMLvd7oZPecEp69ZZA/WyFAeBKeWym8lUxKeJaJJjyXXfiE5+b8Ep7Lrn/RHZDAUMJz7w7j3rTPvu51u//zN37hP9n97357MPf6f/df/cXd//nrP/cXD9T/+2/473b73XH9Szb2d8fzgIWg2ygECE/Cc5TC6tQo4Ul4dlqa3OqJAOHpjmdP9bg0XwhPwnNpNb0pHsKT8FxTvYv1kATqC+O5c6UQ28/sU99U39nZ7bL3vs+6/8+9/8k9aZ9+93+z+98f+Jm/s/vf2/+LF1/U9M/+xv27//4vfv1v7f63vrNZD/rp9zz5TfZ/efff3v1vvYd0P/9/6t3/827T2SfOFF1+6Jv/vDj2rfb9CPr3gxBoFZ4HmWNOfTxqn1O28r5mhWe0RzJrL/J46Pkie7U/HrVHGdK+CgKEJ+G5ikLfUpCEZwme8NxSIU40bVYoRsItay8Kc+j5InuEZ5QR7askUF8YX/XOvV+Z/08H4vGnX/k3in6//4E3XXTc3p3OunHvTmj978999d/a/aed83dU99r3fs1e9//ev/bkN+TPnjm9+9/f/+BNB/L/u//qf1n0c8fzQNh0OiABwpPwPGCpLKJbVihGwi1rL4I49HyRPcIzyoj2VRIgPAnPVRb+REETnoTnRKXWxTRZoRgJt6y9CMLQ80X2CM8oI9pXSeDEifLb6/WjsFVCuSBoezzXXgFt8Tu/NvNzfrXV19pGZ4VoVhiOzdMez7EJsz8LAi6MLoyzKNSZOun8cn7NtHS7dJvw7DItnEIgR8CF0YUxVzF6Zwg4v5xfmXrRdzMBwlOFILAAAi6MLowLKONuQ3B+Ob+6Lc4ZOkZ4zjBpXEYAAQQQQAABBBCYnoA9ntMzNyMCCCCAAAIIILBKAoTnKtMuaAQQQAABBBBAYHoChOf0zM2IAAIIIIAAAgiskgDhucq0CxoBBBBAAAEEEJieAOE5PXMzIoAAAggggAACqyRAeK4y7YJGAAEEEEAAAQSmJ0B4Ts/cjAgggAACCCCAwCoJEJ6rTLugEUAAAQQQQACB6QkQntMzNyMCCCCAAAIIILBKAoTnKtMuaAQQQAABBBBAYHoChOf0zM2IAAIIIIAAAgiskkAhPO+4445zexS+67u+a5VABI0AAggggAACCCAwDoEvfvGLTxneITzHgcwqAggggAACCCCAwJEjhKcqQAABBBBAAAEEEJiEAOE5CWaTIIAAAggggAACCBTC88EHH3xqj+enPvUpdBBAAAEEEEAAAQQQGIzA8573vKds7RCeg3FlCAEEEEAAAQQQQKAiQHgqCQQQQAABBBBAAIFJCBCek2A2CQIIIIAAAggggMC+whMaBBBAAAEEEEAAAQTGIlDs8RxrEnYRQAABBBBAAAEEECA81QACCCCAAAIIIIDAJAQIz0kwmwQBBBBAAAEEEECA8FQDCCCAAAIIIIAAApMQIDwnwWwSBBBAAAEEEEAAAcJTDSCAAAIIIIAAAghMQoDwnASzSRBAAAEEEEAAAQQITzWAAAIIIIAAAgggMAkBwnMSzCZBAAEEEEAAAQQQIDzVAAIIIIAAAggggMAkBAjPSTCbBAEEEEAAAQQQQGBU4XnNNdcMSvjBBx8c1F7WWB0Pf7IEy/5RfbTyjezX3mfnm7v9bPay8Ub2a96t51fr+Mhf7QgggAAC7QQIzwTD3i5svfmTQLnbNRIyWSFYzx/ZJzxzGcvyjKwTnhEh7QgggMDyCBCeiZz2JvR68yeBkvA8AKys0GsV6pFLWX8ie4RnREg7AgggsDwChGcip70Jvd78SaAkPA8AKyv0CM9ya8/YPA6QQl0QQAABBCoCowrPiPbchFNv/mb9yfaP8pdtj+aP2qP5xh4/d/sRv6i9Nf6x7Y/tX+S/dgQQQACBmADhGTN6qkdvF7asP9n+CTQH6hrNH7VHk4w9fu72I35Re2v8Y9sf27/If+0IIIAAAjEBwjNmRHgmGG3qGgmDqD1yY+zxc7cf8YvaW+Mf2/7Y/kX+a0cAAQQQiAkQnjEjwjPBiPDcn0AkjKL2KA2t4+duf+z4Iz7aEUAAAQRiAosSnkP/GGNu9qIfU0x9Yc7Ol+1fl/fY47P2o/pp/VV31n68HGzuEc1Xj47qcer8tcZvPAIIIIBAOwHCcwPDoS+0Y9uLLvRZ4dRaXtn5sv2nFi5Z/6J8E55lBrN8h85/a70bjwACCCAQEyA8Cc+4Sg7ZIysksv2HFh7R/FF75E90R3Bs+4dM41PDIiEdxRfNn40/4h39IRb5ox0BBBBAYHgChCfhOXxVnbeYFRLZ/kMLj2j+qD3yJxJmY9tvTTTh2UrQeAQQQACBWQvP7IU6EgbRHZLW+bLlFs0XtWfna+3f6k/r+Ci/UXyt+Y/833Z7FH/UHvkfjY/aW+23jo/8044AAggg0E6A8LyAYavwaE9HaSG6kEbtQ/sT2Wv1p3U84Tnul3uGzk+Ur+h8HHp8VN/aEUAAAQTaCRCehGd7FZ230CpMWsdHQiQKNBI6kX+9t0fxR+1RfNH4qL3Vfuv4yD/tCCCAAALtBAhPwrO9igjPXQKR8Nl2e2uiI/+3bX9s/1rjMx4BBBBA4MgRwnNC4Zn9cUZdoK2v3xm74Fvji+KN/G8VHtH4KL6h75hmeUT+R/yi9t7tj+1fxEc7AggggEBMgPAkPOMqOWCPSJgd0MxT3SIhV9trFR7R+Ci+yN9t28/yH5pvNH/EZ+zxkX3tCCCAAALtBAhPwrO9is5biIRZdqJIyA0tjCLhE8UX+btt+1n+Q/ON5o/4jD0+sq8dAQQQQKCdAOFJeLZXEeG5S4DwbCslwrONn9EIIIDAHAgQniMKz7EvpFn72f5TF3DkX2t7FM/S7UfxR+0Rn2h81N5qv3V85J92BBBAAIF2AoQn4dleRQNZiIRDa3vk5tLtR/FH7RGfaHzU3mq/dXzkn3YEEEAAgXYChCfh2V5FA1mIhENre+Tm0u1H8UftEZ9ofNTear91fOSfdgQQQACBdgKEJ+HZXkUDWYiEQ2t75ObS7UfxR+0Rn2h81N5qv3V85J92BBBAAIF2ArMWnnX40a+O6/7Rj0EivNkLXda/rL+RP1F7FO/Y7ZF/UfvU9ZDNZ7bexrafzWfWn8h+xCM7X2Qv8kc7AggggMD4BAjPBsZjCyHC88ECwdi8s8JlbGE0tv1s6Wf9iexHvLPzRfYif7QjgAACCIxPgPBsYDy2ECI8Cc9MeY4tvLJCMPI98jc7X2Qv8kc7AggggMD4BAjPBsaEZwO8iwyNeEbttcmxhcvc7Wezl403sh8Jxex8kb3IH+0IIIAAAuMT2KrwHD88MyyJQFZ4Lil2sSCAAAIIILAEAoTnErK4khgIz5UkWpgIIIAAAoslQHguNrXLC4zwXF5ORYQAAgggsC4ChOe68j3raAnPWaeP8wgggAACCBwhPBUBAggggAACCCCAwCQECM9JMJsEAQQQQAABBBBAgPBUAwgggAACCCCAAAKTECA8J8FsEgQQQAABBBBAAAHCUw0ggAACCCCAAAIITEKA8JwEs0kQQAABBBBAAAEECE81gAACCCCAAAIIIDAJAcJzEswmQQABBBBAAAEEEBhVeLa+8Lt1vPQui0BdD1F0Dz74YNSlaB/bfsqZb3fO+hPZr3m0nl+t4yN/s/az/aP5W9uj/A2dj8jfVj7R+Gy8kb/aEUBgmQQIz2XmdZFRRRe2OmjCsyQytNCJhEhrEWbtZ/u3+heNj+p16Hxk/Wk9PyL/W8/HKB7tCCAwTwKE5zzztkqvowt564VubPvZpGX9iexHQmFoIRL5E7VnhWS2fzR/a3uUv6HzEfnbyican4038lc7AggskwDhucy8LjKq6MJGeG5O+9BCJxIirUWYtZ/t3+pfND6q16HzkfVn6D80svFG/mpHAIFlEiA8l5nXSaIa+0Lfaj8aH7VHEFvHz93+0PG32msdH+Ujam+dv3V87/6NHV8Uv3YEEOiDAOHZRx5m6cXYF5JW+9H4qD1KSuv4udsfOv5We63jo3xE7a3zt47v3b+x44vi144AAn0QIDz7yMMsvRj7QtJqPxoftUdJaR0/d/tDx99qr3V8lI+ovXX+1vG9+zd2fFH82hFAoA8ChGcfeZilF2NfSFrtR+Oj9igprePnbn/o+FvttY6P8hG1t87fOr53/8aOL4pfOwII9EFgUcKzXtiyiKPN9ln7kb3av6z9enw0X9Z+1l7UP5uP1v7RhS5qz+Zn6PiHzlcUT9b/LL8on1l7Y/MZ2t+p7S0t3xE/7QggMA8ChOcFeYouvGNf6LL2Cc/NJ1kkZKL26MKd5Z9dErL1ENVvFM/U41v9GZtPlK9s/Uxtr5Xv0OPHthfx1Y4AAn0QIDwJz30rMRIiQ194hz4lIv+i9uhCSXheUyCI6iXK79D5mDo/U8cf8YzqN+tvNj+Rf0Pbi+bTjgACfRAgPAlPwvM8gehCHN1hi8ZnT/lovlZh1Xrhbx3fKozG5hPla9vxR/618h16/Nj2sjz0RwCB7RCYtfAceuEfOgWRf1F75E80PmpvtR+NH7s9Eh6REIz4tLa3xh/Nv237rf61jt+2kJmb/63+to7fdr5azxfjEUBgGAKE5zAcL2olWqij9si1aHzU3mo/Gj92O+HZRnjb9dE6/7aFzNz8b/W3dfy289V2thiNAAJDESA8hyJ5ETvRQh21R65F46P2VvvR+LHbCc82wtuuj9b5ty1k5uZ/q7+t47edr7azxWgEEBiKAOE5FEnCc0SSFzdNeLYhbxUS2x6/bSHTGv/U/rf62zp+6njbzg6jEUBgLAKzFp7RQhZBi/YAttqvx9fztS7k0fhImEV8Iv+z46fu38onqo/Ifmu8vdvP+pftn+U3tv1oPYjqJYqnN//H9mds+xFv7QggsB0ChGeCe6uQIzwTsAfoGl3YonxGQiKy3xpC7/az/mX7Z/mNbZ/wfDCbko39p87XoM4zhgAChyZAeCbQRUIlMkV4RoSGbY8ubFE+Cc/N+Yj4ji3UprY/9nxZnq1nSzRf1D72/K32jUcAgT4JEJ6JvERCJTJFeEaEhm2PLpxRPglPwnMTgai+stU8tL1o/mi+qD2yH7WPbT+aXzsCCGyHwKKEZxZhtPBF7dF82fGREIrmG1rYRvNl44vsDX1HKfIvao/8bR0/d/vZ+LP9Iz5D10t2vqHnH5tP1t+h/RnaXmu+jEcAge0QIDwv4D60cMsutIRneRJk+U19YW31Lzrle7ef9S/bP+KTzXfWXrZ/a3yt44f2d2h/hraXjVd/BBDogwDhSXgeuhLHvpC02o/GR+0RmNbxc7efjT/bP+JDeGYJ5f6wGzpfQ9tri95oBBDYFgHCk/A8dO2NfSFptR+Nj9ojMK3j524/G3+2f8SH8MwSIjzbiBmNAAJDEBhVeEYXhiiA7I87Int1e2S/1f/W+aJ4shfyuT3Kb+U/dn6z9qN8tsYb2Y/8zdZH1l7UP/I/2549P7L2o/4Rz2hrT2Q/as/ybuWVjTfyXzsCCCyTAOGZyGu0sEamsheCyF72QjG0/9n5o3ii9qz/Wd5j24/iIzyzhDb3n7o+s/kjPIfNN2sIIDAPAoRnIk9ZYVKbzgqhyLXshXVo/7PzR/FE7Vn/s7zHth/FlxUuWXsRj6Hjn7o+In5R/FmeUf+IJ+EZEdSOAAJLJEB4JrIaXUgiU0Nf+LIX9qH9z84f8Ynas/5neY9tP4ovEk7Z8dk/fIaOf+r6iPhl66GVd8ST8GwlbDwCCMyRwKTCc46AxvQ5ujBFc099IY380Y4AAggggAACCGwiQHhusT4Izy3CNzUCCCCAAAIITE6A8Jwc+XcmJDy3CN/UCCCAAAIIIDA5AcJzcuSE5xaRmxoBBBBAAAEEtkiA8NwifFMjgAACCCCAAAJrIkB4rinbYkUAAQQQQAABBLZIgPDcInxTI4AAAggggAACayJAeK4p22JFAAEEEEAAAQS2SIDw3CJ8UyOAAAIIIIAAAmsiQHiuKdtiRQABBBBAAAEEtkiA8NwifFMjgAACCCCAAAJrIkB4rinbYkUAAQQQQAABBLZIYFTh2fplnppL/W3y2r5vl7dVUjZfeLfxNhoBBBBAAIG1ESA815bxDfESnooBAQQQQAABBMYkQHiOSXdmtgnPmSWMuwgggAACCMyMAOE5s4SN6S7hOSZdthFAAAEEEEBgVOEZ4bVHczOhsfm02m8dH9WHdgQQQAABBBBYFgHCs+N8ji3sWu23ju8YPdcQQAABBBBAYAQChOcIUIcyObawa7XfOn4oTuwggAACCCCAwDwIEJ4d52lsYddqv3V8x+i5hgACCCCAAAIjEJi18IyET/RjmaHfCxrNV+cveg9mFF9rPbTabx2f9T/Lt5V35F+Uv3p81v+x7Wf5RDy0I4AAAgggEBEgPC8g1CqkhhYWrf5EyW+13zo+8q9VuGWF1dD5a/Wf8MxWiP4IIIAAAr0TIDwJz6cItAqd7PjsyZEVhoRnjvDY+ct5ozcCCCCAwBIJEJ6EJ+F5nkBW2GaFWm/2s8J8iQugmBBAAAEEpiWwKuGZ3dMZPUqO2qNUto6P7GfbxxZGrf5khV40Xyv/aHzU3upfq/1ofu0IIIAAAggMTYDwvIDo0MI0SlZvwoHwfDBKWdEe5S9qjyaLxkftkX3tCCCAAAIITE2A8CQ8nyJAeBKeUy9A5kMAAQQQWBcBwpPwJDzPE8g+yo/uOEbt0VITjY/aI/vaEUAAAQQQmJoA4Tmg8GxNXlb4tM7XKlxax2f9H/qObNZe5G92q0ZkL9uejWfqesvGoz8CCCCAwPIIEJ6E51MEskKE8CwXBMJzeQukiBBAAAEEhiVAeBKehOdA5xThORBIZhBAAAEEFkuA8CQ8Cc+BTm/CcyCQzCCAAAIILJbAqoVnlNXoUXLUHtmP2nu3P7Z/EZ+oPfIvao/sR+2t9lvHj+1fZF87AggggAACNQHCc0NNRBf+qL213Hq3P7Z/Y/Mb2/9W+63jI35j24/m144AAgggsD4ChCfh+RSB3n9clD09I2EVtWfnq/u32m8dH/k/tv1ofu0IIIAAAusjQHgSnoTneQJZ4R0tF63CrnX82P5F9rUjgAACCCBQEyA8G4RndIcrW25+nFISy76XsuadFZJjz5e1H/mftdfKJ1vP+iOAAAIIIEB4Jmoge8dpaCGQnT8R2kW7Zv2PhNHU/rQKq2z82fmy9iO+WXtZf1vzZzwCCCCAAAKEZ6IGssJvaCGQnT8RGuF5EQJD56/1jjjh2VrRxiOAAAII9EbAo/YNGckKv6GFS3b+1uLK+h8Jo6n9ab2jl40/O1/WfsQ3ay/rb2v+jEcAAQQQQKCrO57SgQACCCCAAAIIILAeAlu947kezCJFAAEEEEAAAQQQIDzVAAIIIIAAAggggMAkBAjPSTCbBAEEEEAAAQQQQIDwVAMIIIAAAggggAACkxAgPCfBbBIEEEAAAQQQQAABwlMNIIAAAggggAACCExCgPCcBLNJEEAAAQQQQAABBAhPNYAAAggggAACCCAwCQHCcxLMJkEAAQQQQAABBBAgPNUAAggggAACCCCAwCQECM9JMJsEAQQQQAABBBBAgPBUAwgggAACCCCAAAKTECA8J8FsEgQQQAABBBBAAAHCUw0ggAACCCCAAAIITEKA8JwEs0kQQAABBBBAAAEE/n/OjK5d5SMhdQAAAABJRU5ErkJggg==;" vertex="1" parent="1">
          <mxGeometry x="-714" y="304" width="670" height="581" as="geometry" />
        </mxCell>
        <mxCell id="TFOJBvLKXQj2atVjrU41-3" value="" style="edgeStyle=none;orthogonalLoop=1;jettySize=auto;html=1;rounded=0;fontSize=12;startSize=8;endSize=8;curved=1;" edge="1" parent="1">
          <mxGeometry width="140" relative="1" as="geometry">
            <mxPoint x="203" y="-94" as="sourcePoint" />
            <mxPoint x="343" y="-94" as="targetPoint" />
            <Array as="points" />
          </mxGeometry>
        </mxCell>
        <mxCell id="TFOJBvLKXQj2atVjrU41-14" value="" style="edgeStyle=segmentEdgeStyle;endArrow=classic;html=1;curved=0;rounded=0;endSize=8;startSize=8;sourcePerimeterSpacing=0;targetPerimeterSpacing=0;fontSize=12;exitX=1;exitY=0.5;exitDx=0;exitDy=0;entryX=0;entryY=0.5;entryDx=0;entryDy=0;strokeWidth=9;" edge="1" parent="1" source="TFOJBvLKXQj2atVjrU41-2" target="TFOJBvLKXQj2atVjrU41-1">
          <mxGeometry width="140" relative="1" as="geometry">
            <mxPoint x="511" y="180" as="sourcePoint" />
            <mxPoint x="271" y="740" as="targetPoint" />
            <Array as="points">
              <mxPoint x="97" y="595" />
              <mxPoint x="97" y="81" />
            </Array>
          </mxGeometry>
        </mxCell>
        <mxCell id="TFOJBvLKXQj2atVjrU41-16" style="edgeStyle=none;curved=1;rounded=0;orthogonalLoop=1;jettySize=auto;html=1;exitX=1;exitY=0.5;exitDx=0;exitDy=0;entryX=0;entryY=0.5;entryDx=0;entryDy=0;fontSize=12;startSize=8;endSize=8;strokeWidth=10;" edge="1" parent="1" source="TFOJBvLKXQj2atVjrU41-15" target="TFOJBvLKXQj2atVjrU41-2">
          <mxGeometry relative="1" as="geometry" />
        </mxCell>
        <mxCell id="TFOJBvLKXQj2atVjrU41-15" value="" style="shape=image;verticalLabelPosition=bottom;labelBackgroundColor=default;verticalAlign=top;aspect=fixed;imageAspect=0;image=data:image/png,iVBORw0KGgoAAAANSUhEUgAAAp8AAAJGCAYAAAAd2e7vAAAgAElEQVR4Xu2dfbRnVXnf5955AwbQ9k/bVaKJWmuIWau+AK4VCElrbE18IyommSjSKmoYRlw2dqW62iZpYI3M8A4KaAZ8YRheJUmbt2JWmZlS7FqtKytQpYAEl4CgIMIwb7f2Xn7k7mfuPd/fc/fe5+y9z8d/8Mze+9nP/jzP3ud799m/c2bmfvy/VfyvCgK7d++uws+hnNy6dWvQ9ebNm4PrE088cSjX6BcCEIAABCAAgecJzCA+68kFxGd3rBCf9eQynkIAAhCAwHgJID4Ljj1iMy447HTG8aM1BCAAAQhAIAcBxGcOqolsIj7jQCI+4/jRGgIQgAAEIJCDAOIzB9VENhGfcSARn3H8aA0BCEAAAhDIQQDxmYNqIpuIzziQiM84frSGAAQgAAEI5CAws2vXrmV/7X7yySfn6LM3m1dddVVvfdERBCAAAQhAAAIQWAmBM888cyXNimnzta99zeUL4tOFi8oQgAAEIAABCEAgLQHE5yKe7HymTS6sQQACEIAABCAAAUsA8Yn4ZFZAAAIQgAAEIACB3gggPjvE5xe/+MXeAjFNRz8+rxpUu/TSS4NrznxOQ5E6EIAABCAAAQgMScCKz9r0VtYzn7XBQHwOOZXoGwIQgAAEIACBaQggPtn5nCZPqAMBCEAAAhCAAASSEEB8Ij6TJBJGIAABCEAAAhCAwDQEEJ8O8WnPXE4DeHGdmZmZoMmmTZuC68985jPB9YEDB4LrRx99NLi+7bbbgmseu3sjUlb9jRs3uhzavn17Z31rT9V3dd5A5db59D0+b/7aFCI/006qvuOf1nustU5AiU+lt84555wA0bZt24Jrq7fWrl0blD/77LNReqvXM58KhkoWxKciNO5y781b3ay5+XTnU+t8+h6fN38Rn3nXu77jn3c0WG+NAOJzUUTtez7tD44Qn62lf1nj8d68EZ9x8Wv95tz3+Lz5i/iMy1/Vuu/4K38oh8BiAohPxCczohAC3ps34jMucK3fnPsenzd/EZ9x+ata9x1/5Q/lEEB8LpMDaufzzjvvDFoePHgwuF6zZk1ndqkzCnv27Anav+51rwuuH3nkkeD65ptvDq4581nX5FY3h2uuuaZzQHfccUdQbsWotX/KKacE9c8444y6gGX21vKunU/f8Vf9qfCpfFbtKQ8JqHjUnt/Eu24CaufTq7eUvlK0rJ5TeqvXM59eGHawCg7iU6VHW+WIz7LiifiMi4cSO8o64lMR8pWreCA+fTypnZYA4nMRT3Y+0yYX1roJID7LyhDEZ1w8lNhR1hGfipCvXMUD8enjSe20BBCfiM+0GYW1qQkgPqdG1UtFxGccZiV2lHXEpyLkK1fxQHz6eFI7LQHEZ4f4vPbaawPa9rG4fXWSfS/nueeeG7S/6KKLgmv76/nXv/71Qbm1973HvheU33wLZz7TTod+raW+OVjxZG/m9synLbejVz9osvW9PzhR9pU9dcbVa99bX2WLstc3v9xnflW8vLzUHwPe/oaOR9/x9vLu2z81f2PXIzV+yoclYMVnrN6anZ0NBrR58+bg+rLLLguu9+7dG6W3sp75jIWB+Bw2uUvvHfHpe0m+uhmpnWR1c1XipDaxkzq/1Hzy8lHxRHyGhPrOT288vf4hPtWMarsc8bkovvbMJ+Kz7eQfenSpxQE7n+EXomJvhkqsqvxR/ee2nzq/1Hi9YgXxmfeLZipeKj+98fTaQ3yqCLVdjvhEfLad4QWPLrU4QHwiPhene+r8UlPJK1YQn4jPrnxV+aHykfKyCSA+O8Sn+sKR+lzmli1bgujffffdwfVrX/va4NqeWbD2H3vssaD+DTfcEFzzns+yJ5va6Up9Jk+JAbvzoMSr2qlQ9uz41Q9MlHjytlf+qzOxqcensrW297yqeKnxxsYzlpfyL9a+OhYSa9+7vnjnY6x/udcjFT/KyyKgfnBkfxNj9ZC93rdvXzDA1atXB9f2DOgFF1wQlHv1VtYzn4jPspK1NW/UzTr216i5F/vcN1PFJ1asxNqPvRmrfI61r8YXm1+xYscrfnLnW9/xyP3HjIq/l3/qfFQ7m94/hlX8KC+LAOKTnc+yMnJE3qibQ6w4QHx2P4ZX/JW4jb0Zq1SPta/GF5tfiM+QgMqXvsWzij/iU81AynMSQHwiPnPmF7Y7CKibQ6w4QHwiPhenX+pjHYhPxOdiAl7xzc7nuG+PiE+H+LzrrruCbLFnNPfv3x+Ub9q0Kbi+8MILg+v169cH1/bMgk3Nhx9+OPinm266KbjmzGddk7lv8WnFh6Vlxa7yT70n1BsNdeaytHLvHwepXx1k+Xr5eP1X8VT5ovpT7XPnm8p/Nf6+4+HNJ/XHh+KfOn7e9cjyVeP3xov6/RJQ4tOrt+bm5oIB2M+ZX3HFFUG5XU9OOumkoFzprV7PfHphID77Tebaeotd7NV4lX3E5x0BgtziTd0s1U61indu/1X/Kt9Sixfljyr3ijFlD/EZPmnw5qNajxCf3gwsuz7ic1F81LfdEZ9lJ3Nt3sXerNV4lX212Kv2uXeivF9o8t7sYu0rMeW9WSI+feJF5b8qR3yeESBS813lu2qv5ptaj7zzScWf8mEJID4Rn8Nm4Ih7V4u1WuwVOmVfLfaqPeIzvHmreLDz2c1r6HzjsXu3+FfrkTd+PHZXK0bb5YhPh/i0751SqWHPhJ599tlBk23btgXX9j1Ta9asCcofeuih4PrGG28MrjnzqSJSVrlarL2Lvfc9ll773p3FWNpqp8T6r17N4vXf278dr/p1syr3/trdOz4Vf2/8Uuezdzxef2199YOZoeOh8kXln3enV9X39hc7n2LjS/uyCCjx6dVb9oyn1Vd79uwJAJx44onBtVdv9Xrm0wsD8VlWspfmTeqbNeLzmiDE6mYXW67EmxILqnxoseOdL6nzGfEZRkDli1cMqp1exKd3BlDfQwDxyc6nJ1+om5BA6ps14hPxuTg9lbhW4tmb6qnzGfGJ+PTmIPXrIYD4RHzWk62NeZr6Zo34RHwiPle+SPDYfdgzn6n/GFp5JtCyDwKIzw7xee211wYxsGcGDh061Bkj+9jdVrZnFC677LKgyoEDB4Lr7373u8E133bvY4r014f3187q83yxO19ecez135ItTTyrx5IqM1R8Yu3b/tVjUu9jWzU+W+7Nl9j2qfNN+ePl4Y2Hsu/NJzUea0/Vj/Uvdj1S/VNeFwErPr1662Mf+1gwYO8Zz7Vr10bpraxnPr0wbOgRn3VNhqG99d5M1c0odrH3igmv/4jP7lfdePPRK3aU+PD2780XJXa84/H6q8Yfm8+p/VfzXe0cev/48I5f+Re7HnnjS/2yCSA+F8XHvucT8Vl28rbmXWmLvVdMeP1HfCI+F+fA0PmmxLB3vUF8+o7BKPHs5U/9sgkgPhGfZWfoiLzzirfcOw1DiwFv/0o8eH/AEvtYXMUn1r4dr1fsqJ0/79TLHa/UvNT4vfMxNh6Ktzef1HxIPX7lHzufKsLjKkd8dohP+3lM+55Nmypzh8Jvi+4/EH7rfd26dZ3Z9eCDDwblxx13XGd9vu3e9mRVr9qxo1c7B+ol54qmt73XfzUeb//WnmqvypU9xU/FJ9a+4qfse/1T4/XyjPUvdb4pf9T4Y+Oh7MfGyxsfL1/ln7d/xYPyughY8Rmrt7790Ldd+slLy+qtrGc+Y2EgPr3hpf5iAqUt9t6bhdd/dbP29q/Eg3pJvffmqbJX2VP+KvuKn7Lv9U/5kzteajzKv1heQ9uPjZc3Pt75rPzz9u/lTf2yCSA+F8XHnvlEfJadvK17V9pi771ZeP1XYsDbvxIniM/wTJ4SC975ljteKr5ef9X4U+dzrP/KXzV+b3y841f+eftX46G8LgKIT8RnXRk7Im9LW+y9Nwuv/4jPkEBqfkrsKLHgnXrefIn1r29eXh6Kr9d/ZU/5541Pav+8/avxUF4XAcRnh/g866yzgmg+8sgjndG13wa113v37u1sb1/NZN8jat/7edtttwX2+LZ7XZMPbyEAAQhAAAJjJGDFZ216K+uZz9pgID7HOIUZMwQgAAEIQKAuAohPdj7ryli8hQAEIAABCECgagKIT8Rn1QmM8xCAAAQgAAEI1EUA8dkhPusK5apVPHavLWL4CwEIQAACEBgfASs+ayOQ9cxnbTAQn7VFDH8hAAEIQAAC4yOA+GTnc3xZz4ghAAEIQAACEBiMAOIT8TlY8tExBCAAAQhAAALjI4D4HF/MGTEEIAABCEAAAhCAQE8EZnbt2jXXU190AwEIQAACEIAABCAwcgKIz5EnAMOHAAQgAAEIQAACfRJAfPZJm74gAAEIQAACEIDAyAkgPkeeAAwfAhCAAAQgAAEI9EkA8dknbfqCAAQgAAEIQAACIyeA+Bx5AjB8CEAAAhCAAAQg0CcBxGeftOkLAhCAAAQgAAEIjJxAp/g8+eSTq8ZjP6/5gQ98oOrxXH311VX7j/MQgAAEIAABCBxOgJfML2KC+CxriiA+y4oH3kAAAhCAAARSEEB8Ij5T5FEWG4jPLFgxCgEIQAACEBiUAOIT8TloAnZ1jvgsNjQ4BgEIQAACEFgxAcRnh/j84he/uGKwORr++NOggdlLL700uFZnPr/0pS9N5dZrX/vaqepNKt19992u+pPKd955Z+d4EJ8rwkojCEAAAhCAQNEErPisTW997Wtfc/F1/eCoNhiIT1cuUBkCEIAABCAAgQEIID7Z+Tws7dj5HGAm0iUEIAABCEBgJAQQn4hPxOdIJjvDhAAEIAABCJRAAPHpEJ/2zKU3gDMzM0GTTZs2Bdef+cxngusDBw4E148++mhwfdtttwXX3sfukzOX1o8Pf/jDrqFddtllQf3LL798/vrZZ5/tHM9jjz0WlN96663BNWc+XWEorvLGjRujfNq+fXtUexrnJWDjmzpeue0rOrH9x7a3/nnnU+p4KF6UQ8BDQIlPpbfOOeecoLtt27YF11ZvrV27NihX+kTprV7PfCoYCjziMxTTiE+VMXWXe2+WdrTcPMuOf2pxpcRW3/kQO77Y9oqHyo6+eSl/KIfAYgKIz0U07Evm7Q+OEJ9LTx52PllUliKA+Gw7L1KLKyW2+hZTseOLba94qOzqm5fyh3IIID6XyQHE5wIYHruzSKQggPhMQbFcG6nFlRJbfYup2PHFtlc8VGb0zUv5QzkEEJ8rFJ/2vZQHDx4MLK1Zs6Yzu9QZhT179gTtX/e61wXXjzzySHB98803B9fTnvm0v2a3YvMnf/In5+2q8Uw6v/feewM/7E7ohRdeOF9uedkzFTfddFNghzOfdS9W9uZ7yimnuAZ0xx13BPW5mbrwJa+s/piw8T3jjDNcPuS2r5xRYvGaa64JTNjxpfbf648dH/NHRZzyIQmox+5evaX0lRqr1SdKb/V65tMLww5WwUF8Ij7VBKmpHPFZU7S0r6nFle0xt301Qq/YQ3wqopRDYHkCiM9FbNRjd8Tn0onEzidLzFIEEJ9t5UVucZjbvooG4lMRohwC6QggPhGfh53x5LF7ugk2ZkuIz7ain1sc5ravooH4VIQoh0A6AojPDvF57bXXBqTtY3H76iT7Xs5zzz03aH/RRRcF1/bX869//euDcmvve499Lyi/+Rbfmc/rrrtuvr3tZ3ImU41ndnY26H/16tXB9eSM6FlnnRX8+9atW+ev7Xge/97jQb2bbuaxe7qpPbwlJSaUh/aMZ+yZO9uf9wxp6vFYf7z2vf4r3t5y9ceF98yn4hF7plSNL/V4UttT+T80P8WXcggsJmDFZ6zesvpk8+bNAXD7W5S9e/dG6a2sZz5jYSA+F2KL+BznouMVU0ocqpuvtz+vePPaV+NRYkFljdd/Zc9bnlpcKR6Iz+4fPA3Nz5s/1B83AcTnovjbM5+Iz/Cl8Ox8jnux8I4+tVhDfIYRQHz6fk2v8je1mE5tT+U/4lNFmPKSCCA+EZ+reOxe0pRsxxfEp08senkhPhGfXatFavHbzsrESEoggPjsEJ/qC0fqc5lbtmwJYnz33XcH1/Z9m3Zn0dq3n6O84YYbAnsrfc/ncuLT9r9v376gP3vmc/KeLHvcYPLY3dr73vfCM6w7duwI7POezxKWiJX7oG5+XsveM4R2p8j2p96D6P0BirJvHxur/mP99/L11lfx9car7507b3y94+mbj+XnPTPtjT/1IRBDQP3gyP4mxuoHrz6xZ0AvuOCCwH2v3sp65hPxORMEB/EZM9XG11bdfL1EvDf/WPHmFSeIz1MCBN54IT59M0LtlCM+fTyp3S8BxCc7n8s+dvf+ZcHOZ7+Tt/TeEJ93BCFi59OXsSp/Uovb1GKtb//Z+fTlF7WHJYD4RHwiPoedg832rm6+3oF7xQY7n17Cvvoqvt54sfMZxx/x6eNH7WEJID4d4vOuu+4KomXPaO7fvz8o37RpU3A9OVs5+cf169cH5faxtk2Nhx9+OPgn+y30ac982puyff/V5ZdfPt+PHc/c3FzQ/2Rn9Oyzzw7+3X4r/lWvetWSWf6d73wn+Pcbb7wxuObM57CLQ2zvucWJEite/9XOpPdVP2r89syn119b3+tfbH9qfKWJT+8xitL8V/Gy67o6U6zsUQ6BnASU+PTqLatP7OfMr7jiimA4dn6cdNJJQbnSW72e+fTCQHwuxBLxmXMKl2s7tzhBfIYEEJ/dcwHxub3cxQLPRkcA8bko5Orb7ohPdj5Ht0JEDBjxuTGgp3ZWI1DPN0V8Ij4XE2DnM3ZG0T4nAcQn4nMVj91zTrHx2kZ8Ij5jsj91/rDzyc5nTD7SNi0BxKdDfNr3TqlQ2DOh9mzktm3bAhP21+WTb6VPKj300ENBfXtGctoznxMjd9555/z/vffeewO7Voyqcdoznrb95Jv2djx/+7d/G5jeuXNncM2ZT0W+7PLU4sGO1ismbHu7M6R2DtWrbVQ01M6nLVf2VHnsmUVlv+/4qvgM7a/KT6//Kr9LG6/yh3IILCagxKdXb9kznlZf7dmzJwjAiSeeGFx79VavZz69MBCfC7FFfI5z0elbnKhX5SA+0+Zh3/H1irfUYtBLL5YP4tNLnPo1EUB8LoqWOvOJ+Fw6tdn5rGnK9+dr7M1Xeapuzt5XLSlxw85nGJG+46vi482XWHu5+1P5nbt/ZZ9yCMQQQHwiPnnsHjODaLssgb7FCTufYSh47N6vWE6904r4ZHFtmQDis0N8XnvttUHs7ZmBQ4cOdeaGfexuK9szCvas5IEDB4Im3/3ud4Nr77fdr7vuuqD97t27g+vJeL75zW+6cv6Vr3zlfP3JmdV77rknaG/HdfHFF8+XP/LII0E9vu3uwl585dziU93svYC8O2Gl7axa8e0df2qe1p71L3Yn2Wtf/XHiFeu5/Y+NR+rxxuYT7SGwmIAVn1699bGPfSwA6j3juXbt2qC9V29lPfPphWFTC/G5QATxOc5FB/F5RxB4JW5jxQziM/w1t9o5tH88ID7HuU4x6mEIID4XcbdnPhGf0yUlO5/TcRpbLcQn4nNxzrPz2b0CqD8evH+csPM5thW3rvEiPhGfLxDgsXtdk7d0bxGfiE/E5/SzFPE5PStq1k8A8dkhPu3nMe17Nm345w6FXwDafyD81vu6des6M+bBBx8Myo877rjO+t5vu9vx2Pdsph7PxN6TTz4ZmLaP4T/5yU/Ol/Nt9/oXlK4RxD7m9NJRZzKVvdhvr8fuPMX6732MrHjE+mPtW//6tl8bH8vPyyv1eFW+UA6BLgJWfMbqrW8/9G2XfvJGx+qtrGc+Y2EgPhfCi/j0pnmb9RGf1wSBVWLAKy6UuIvNqlh/lH9921f8vbxy+4/49EaE+iUTQHwuio4984n4jNvJnaBFfJa8BPTnG+IT8bk429j57J57Shx7xa6y199KQE8QWLUK8Yn4XHYexB4jQHyyxCwmgPhEfCI+p18TlFhEfE7PkprlEUB8dojPs846K4iYfS+lDaf9Nqi93rt3b2cG2Fcz2feI2vdQ3XbbbYE99W13O55HH320059c47E7oRs2bJj349Zbbw384dvu5S0YY/bIe7O3rJSYGDNbxg4BCIyLgBWftemtrGc+a4OB+BzX5GW0/RJAfPbLm94gAIF2CSA+2flcNrvZ+Wx34jMyPwHEp58ZLSAAAQgsRQDxifhEfLI2QGAKAojPKSBRBQIQgMAUBBCfHeJzCn5FVVGP3YtydgpnOPM5BSSqQAACEIAABCojYMVnZe6vynrmszYYiM/aIoa/EIAABCAAgfERQHyy81ls1rPzWWxocAwCEIAABCCwYgKIT8TnipMnd0PEZ27C2IcABCAAAQj0TwDx2T9zeoQABCAAAQhAAAIQGAmBmV27doXfjBzJwBkmBCAAAQhAAAIQgED/BBCf/TOnRwhAAAIQgAAEIDBaAojP0YaegUMAAhCAAAQgAIH+CQTi8xvf+Eb/HtAjBCAAAQhAAAIQgECzBI4//vhgbIjPZkPNwCAAAQhAAAIQgMDwBBCfw8cADyAAAQhAAAIQgMBoCCA+RxNqBgoBCEAAAhCAAASGJ3CY+LzyyitfeNXSySefPLyHeAABCEAAAhCAAAQg0AwB++33GcRnM7FlIBCAAAQgAAEIQKA4AojP4kKCQxCAAAQgAAEIQKBdAojPdmPLyCAAAQhAAAIQgEBxBA4Tn/fcc88LZz6feOKJ4hzGIQhAAAIQgAAEIACBegk8/vjjgfMziM96g4nnEIAABCAAAQhAoHQCiM/SI4R/EIAABCAAAQhAoCECiM+GgslQIAABCEAAAhCAQOkEEJ+lRwj/IAABCEAAAhCAQEMEEJ8NBZOhQAACEIAABCAAgdIJID5LjxD+QQACEIAABCAAgYYIID4bCiZDgQAEIAABCEAAAqUTQHyWHiH8gwAEIAABCEAAAg0RQHw2FEyGAgEIQAACEIAABEongPgsPUL4BwEIQAACEIAABBoigPhsKJgMBQIQgAAEIAABCJROAPFZeoTwDwIQgAAEIAABCDREAPHZUDAZCgQgAAEIQAACECidAOKz9AjhHwQgAAEIQAACEGiIAOKzoWAyFAhAAAIQgAAEIFA6AcRn6RHCPwhAAAIQgAAEINAQAcRnQ8FkKBCAAAQgAAEIQKB0AojP0iOEfxCAAAQgAAEIQKAhAojPhoLJUCAAAQhAAAIQgEDpBBCfpUcI/yAAAQhAAAIQgEBDBBCfDQWToUAAAhCAAAQgAIHSCSA+S48Q/kEAAhCAAAQgAIGGCCA+GwomQ4EABCAAAQhAAAKlE0B8lh4h/IMABCAAAQhAAAINEUB8NhRMhgIBCEAAAhCAAARKJ4D4LD1C+AcBCEAAAhCAAAQaIoD4bCiYDAUCEIAABCAAAQiUTgDxWXqE8A8CEIAABCAAAQg0RADx2VAwGQoEIAABCEAAAhAonQDis/QI4R8EIAABCEAAAhBoiADis6FgMhQIQAACEIAABCBQOgHEZ+kRwj8IQAACEIAABCDQEAHEZ0PBZCgQgAAEIAABCECgdAKIz9IjhH8QgAAEIAABCECgIQKIz4aCyVAgAAEIQAACEIBA6QQQn6VHCP8gAAEIQAACEIBAQwQQnw0Fk6FAAAIQgAAEIACB0gkgPkuPEP5BAAIQgAAEIACBhgggPhsKJkOBAAQgAAEIQAACpRNAfJYeIfyDAAQgAAEIQAACDRFAfDYUTIYCAQhAAAIQgAAESieA+Cw9QvgHAQhAAAIQgAAEGiKA+GwomAwFAhCAAAQgAAEIlE4A8Vl6hPAPAhCAAAQgAAEINEQA8dlQMBkKBCAAAQhAAAIQKJ0A4rP0COEfBCAAAQhAAAIQaIgA4rOhYDIUCEAAAhCAAAQgUDoBxGfpEcI/CEAAAhCAAAQg0BABxGdDwWQoEIAABCAAAQhAoHQCiM/SI4R/EIAABCAAAQhAoCECiM+GgslQIAABCEAAAhCAQOkEEJ+lRwj/IAABCEAAAhCAQEMEEJ8NBZOhQAACEIAABCAAgdIJID5LjxD+QQACEIAABCAAgYYIID4bCiZDgQAEIAABCEAAAqUTQHyWHiH8gwAEIAABCEAAAg0RQHw2FEyGAgEIQAACEIAABEongPgsPUL4BwEIQAACEIAABBoigPhsKJgMBQIQgAAEIAABCJROAPFZeoTwDwIQgAAEIAABCDREAPHZUDAZCgQgAAEIQAACECidAOKz9AjhHwQgAAEIQAACEGiIAOKzoWAyFAhAAAIQgAAEIFA6AcRn6RHCPwhAAAIQgAAEINAQAcRnQ8FkKBCAAAQgAAEIQKB0AojP0iOEfxCAAAQgAAEIQKAhAojPhoLJUCAAAQhAAAIQgEDpBBCfpUcI/yAAAQhAAAIQgEBDBBCfDQWToUAAAhCAAAQgAIHSCSA+S48Q/kEAAhCAAAQgAIGGCCA+GwomQ4EABCAAAQhAAAKlE0B8lh4h/IMABCAAAQhAAAINEUB8NhRMhgIBCEAAAhCAAARKJ4D4LD1C+AcBCEAAAhCAAAQaIoD4bCiYDAUCEIAABCAAAQiUTgDxWXqEEvq3efPmhNbqN3XaaacFg9i5c2f9g0o4AsvnjW98Y0LrmBobAdafMOKsP90zgPWn7RUC8dl2fIPRsfiz+HvSncXfQ4u6igDrD+uPypHF5aw/Hlr11UV81hezFXvM4s/i70keFn8PLeoqAqw/rD8qRxCfHkJ110V81h0/l/cs/iz+noRBfHpoUVcRYP1h/VE5gvj0EKq7LuKz7vi5vLeLvxUXLmMNVP74xz8ejOKEE04IruET8tm9e3cDUR9uCHb+bd26dThnBuiZ9SeEzvrTnYSWD+vPAJM2Y5eIz4xwSzPN4s/i78lJFn8PLV0X8Rn+4JE/7vjjt2vWsP7oNaXmGojPmqPn9B3x6ROfu/7w0HyDC776riVJf+yXdyxZPvl322g5O84w9ladxT8tasQn4nNxRrHzyc5n2hWmLv1miaYAACAASURBVGuIz7riFeUt4hPx6UkgxKeHlq6L+ER8Ij71PJnUYP2ZnlWNNRGfNUZthT57xad9r+Odd97Z2bMqX6HbLzSz/qj3Tip/1M7DZOdz4oDdubQ7n5Prd/72P5hvYv2blP/3Jy6cLz///PMDJN7xKB5e+zY+LP6xGRu2Vz+4af0MqHf98dJX891rz9ZX89NrX60/qY8leNdzNZ7U9lh/FPG2yhGfbcWzczTexd+7uPS9+KubgfJHLf6IT35wlHJ5QHzm3flU8z02lmq98dpX6w/ik/XHm1M11Ud81hStSF8RnyFAtfjbM5/L7XROdkTVzqe9eXl3Ju3NlZ3PyAnRc3PEJ+Jzccqp9QfxifjseYnqtTvEZ6+4h+0M8Yn49GQgj909tHRdxCfiE/Gp58mkBuvP9KxqrIn4rDFqK/Q5tfi0O3FvetObAs9OPfXUTk//8i//MiifmZnprP/Zz342KD/99NNXSGKhmdp5WO7X7vbX7EPtfH7iE58Ixm/joXZKFbzSFv8TTzxRuTx1uX2n69QNE1ZU3/Zu7Qyod/1RqFtff1LvfFqe3mNV3voqfqq8tPVH+Uu5jwDi08er6trexV8tNq0v/ojPsh57IT6rXn5WedcfNdrW1x/EZ1nrj8pHyn0EEJ8+XlXX9i7+iE/fez77PvPJzufKpyM7nytnt9KW3vVH9YP4VIS6y9X6HrtTGufd4U+m+MJRLNGy2iM+y4pHVm+8i79anFpf/L0vmUd8Zk3fVex85uWb27p3/VH+tL7+sPPJzqeaAzWXIz5rjp7T99jFX/1a+7zzzuv06IKdfxSUH3300cH1y9cv7DRO/jc3Nxdcf+5znwuu7ZlPJZatc94zn/Zmd+MfPDxvcvJeT3tt+1PlznBGV//2t7/dybO0M1cpxeeWLVui+eU2sHPnzqCL2s+Axq4/lredj2r9Ufx+9md/Nmr98eaDWn8Qn4hPb07VVB/xWVO0In2NXfwRn+FL9hGfkQnpbI743OokVlb12PUH8Zk2nt4/1r31Y70t7Y/f2PHQPiSA+BxRRsQu/ojPbvE5SaWJKLWpNdkhLSXl2PksJRJL+8HOZ3d82PmMy1+vmPTWj/OOM5+x/Epvj/gsPUIJ/UN8hjDVYy975lM9dkd8JkzWJUyx88nO5+K0QHzGzTevmPTWj/MO8RnLr/T2iM/SI5TQP6/4VIuNWvxf+tKXBt6fe+GVwfUx5sznP5p5Ligf+synPXNlx/tzv/Azgb/r1q0NrmdXrw6u7XtMZ817TWdmw/ec2vrea8vv4IGDgT9XXHx9cG3P0Jb22Cul+Ew4raY29elPfSrM/2OPnbrt/69Y+06od/1RcLzrz9lnn91pcuxnPhVvW577c6alrT9ePtTvJoD4HFGGeBd/xOdpQXYgPncPOlsQn3X/AMm7/qhkQ3wqQt3lsd+qR3zG8R97a8TniDLAu/gjPhGfi6fH0O/ZQ3wiPhfnI+Iz7uaF+IzjR+s4AojPOH5VtUZ8huFSZz557F7Wq04Qn4hPxGe6Ww7iMx1LLPkJID79zKptkVt8nn/++QGbn/iJnwiuf/uyzwfXG8yZz5fsf6qTrf22+6WXXtr5WFwFKlZ8/uKbXxt0sf6IdcH1vuf2B9f2TOeGDUeF5fYMqLm2Z0R37gjfm2qqrzrt3W8J7O/fF/pz4ZZrg/LSz3xu375dhXTq8o0bN05dN1VF7/xT/dZ2BjT1+O3Op1p/1JnP17zmNa71573vfa8KUWe5d/2J6myJxurJlm3irR/rL2c+YwmW3R7xWXZ8knrnXfzVYuNd/BGf4Q+KEJ++9EZ8hrwQn+GrzxCfvvmk1nfEp48ntX0EEJ8+XlXXRnyG4fPuPFixzc5nv9MB8Yn4XEzA+8cvO59h/iA++12/6C0kgPgcUUYgPhGfiwnw2L3fye+df8o7dj7Z+VQ50lWO+IyhR9tYAojPWIIVtY+9+Xm/cGTf8/k7n7suoHXUhvDb7q86MvyW+xNPPBHUt992v+SSS4Jy76s/Ync+3/SW1wf9HzoU+n/0MRuC8tnZ2eD6phvCM5unvfuXTf3wMf2zz+4NyjdsCO3bM5/Xf+m2oP7bT3tzcH3BH4RncEs/85nyB0cnnHDC4DM39be7SxejseuPDVjqX7v//M//fNCFWn/sfPEmlHf98dq39b1iU/WX2p7tjzOfKgJ1lyM+646fy/vYxR/xGe60ID5d6RddGfHZjRDxeV4AyP7xqx67Iz59UxTx6eNF7ZAA4nNEGYH4DIPt3XmwOy2Iz34nD+IT8bmYADufvvmXWiymtsfOpy+etddGfNYeQYf/iE/E52ICPHZ3TJ4MVXnsHn7EwYsY8ekjllospraH+PTFs/baiM/aI+jw3ys+1eJiF/8dO3YE3tx///3B9XV/9T+Ca/uez5et3heU2+S0Zz77PnN12M7nL78h8HfOnPk85lh7JjM883mjeU/nu04Pz3zab7nv3ftcyM+8J3TVqvCM6PVfujWob898fuY/XROUj+nM55YtWxwzp86qP3wqfG/uL705PPPb96i864/yz7v+bN26tdPkqaeeWvT6o3jYcrV+x9ZP3R7x6Y1w3fURn3XHz+W9d/FXi5d38Ud8Ij5dCWsqp3zsjviMicTK2nrXH9WLd/1BfIZn1lOLR3W/UPFEfHoJ1V0f8Vl3/Fzeexd/tZh4F3/EJ+LTlbCIzxhcq9j5DJ+8ID4Rn1ETisZJCSA+k+Is2xjiM4xP9A+OeOzea8Kz8+nDjfhEfC7OGPUqOrXZoLIvtj07n4pwW+WIz7bi2TmaocXnV3b/r8C/Y44J3/P5Dw8+HZSXfubzl34lfFfkEUesD/zf91x4hnV2dbjzqT6vOTsT1rffht/x5fA9nvbM57vf+yuhP+bb7lt+/+qgfExnPoeY9p/+1KfC/D/22KRulP5eRO/6Y+GoV72pM+epdz77fs+wSpbU4i+2v1h/Ss9nxYfybgKIzxFliHfxV4uH97E74hPxGTPdUu58xvix0raIz80BOu+v/RGf3Zmn1uuV5u1y7VR/qlz5g/hUhOouR3zWHT+X94jPEFfsY3d2Pl3pF10Z8dmNsPSbtXf9YefT9yqqWLHnnaCqP1Wu+is9n5X/lLPzSQ48T8C7+KvFg51PHrv3ObkQn4jPxQTOP//8AAiP3d8Y8FBnPGPnrro/qHLVP+JTEaq7nJ3PuuPn8t4rPpVx70ue165dG5i84va/CK7//jOPB9fq28pf//rXlYtBuX29TuzO55vfGopP+213e6bVftt95/W3B/7ZM5r2PZ87vvLVoP7pv/a24NrW/9GPngnK165ZE1yf/3tXhfZOPz24Lm3x3759uyveXZU3btyYzNa0hlLPv9Liozh4x6/ES+z6c9ZZZwUuez+v2ff6Y/kqPioese2V/Vh/a8tvL4+x10d8jigDvIu/QhO7+CM+EZ8qxxaXIz5DWrXdnL3rjxJHsesP4rOsnVK7FtSW3561jLqrViE+R5QF3sVfoYld/BGfiE+VY4jP5QnVdnP2rj+Iz+4zn4qPmlux7ZV9dj69hMZVH/E5onh7F3+FBvHJY3eVIynL2flk53Mxgdj1h51Pdj5Trk/Y8hFAfPp4VV07t/i0PwB4+ctf3snrlFNOCcrf8573dNb/0Ic+FJTv3r07uP7kJz/Z2f6OO+7oLD/hhFBM2lfB2JudPfNpv+1+tHmPqT3zeeOOcOfzXae/NfBvdjb8Vrt9r+d7DjvzGb7K6bAzn2vNmc/f/VzQ35je82ljPcTE9r5qqLadTstUrT9qJ069aqnv9ceeIb/99nA+2/HHrj9ePql/cKT6984hZa/2fPfyGFt9xOeIIq4Wfy8Ku7j1vfgjPu0PjhCf0+Yw4nNaUunqqfVHiRHEZ/dOpeIXG8nU9pU9xGdsxMpuj/gsOz5JvVOLv7czxGe4U8rOpzeDfPVTvmoJ8eljn6K2Wn+UGEF8Ij5T5CE2yiCA+CwjDr14oRZ/rxOIT8SnN2di6iM+Px7gszv/MWz7aKvWH8Rn97EfLx8eu/eR1fSxUgKIz5WSq7Cdd/G3Q7SLWeyBf3vm0545nJubC1ywZz5t+7e85S1BffvYxo7Htt+7d29QRZ35POwLR+vDb7s/t8982322+/Oa9oynfW/njPnW+w1fUd92D8+QHti/Pxhfbe/5TCk+7Xm9Eqdza48dveuPEk9jW3+U+Cwxh7t8UuNpLf9ri09ufxGfuQkXZN+7+CM+w1ed2Jsd4rPf5EZ8hj+w65d+fG/e9QfxGa4/SqzFR6hfC2o8iM9+49F3b4jPvokP2J938Ud8Ij4X58DQj3kRn4jPxfnIzuedA95N4rtGfMYzrNkC4rPm6Dl9R3yGwHjsXtfnNRGfiE/E598RUDvDzttD79URn70jL6pDxGdR4cjrjBKfqnf1a9Pzzjuv08QrXvGKoDz1mU/7Hj27U2fFS6z4/IU3/9NgPOvXrQuuZ1eHZzztez7t9eFnPMP3fHrrh61Xrdp/4GDg37bzvxBcj+k9nyrXc5R/+lOfCswec+yxwXXrjxnV+qPEiHoS0/r64+VjecW2V3PCa1/Vb30+KJ6tlyM+W4/wovGpxV+hQHyGj7kQnypj0pan3PlM69l01hCfmwNQ9gd9SowgPuO+SOTlO11W/10tr31VH/HpjUBd9RGfdcUrylvE54mdO6/eX7sjPqPS0d0Y8elGVlQDtf4oMYL4RHwWldA4E0UA8RmFr67GavFXo2Hnk51PlSM5yxGfOenmt63WH8Rn96vevHxsRGPbqwzx2lf12flUxOsuR3zWHT+X92rxV8aU+HzTm94UmDj11FODa++ZT+vPBz/4wU4X1beW7ZlQ75nPL3/5ywrRoOX2vaj2DKlyrvQzn9u3b1dDmLp848aNU9dNVdHOvz179gSmh36bQKpxLmfHu/4ocWJ/cDP0+qM+9xu7/vQtJlPng4qn7Q/xmToCZdlDfJYVj6zeeBd/tdjZb7kPvfgjPsOX8iM+l59OiM+sS82Sxr3rjxIriM+4x/B9Z4CKJ+Kz74gM2x/ic1j+vfbuXfwRn+F7Ptn5HPZVP+x89rpcJO/Mu/4osYL4RHwmT1IM9kYA8dkb6uE78i7+iE/E5+IcGPqxMOJz+DUkxgPv+oP4DNcftR6X/t5PFU92PmNmV31tEZ/1xWzFHnsXf9WRXUw++tGPdjb5+te/HpTbM5c//OEPo9rbxupb794zn2rxt+O3ZygVL1vf9md3Xr31L7nkksCkullx5krNAF/5f/6TPwka/NKb3+wzUHnt2PXHzh+LY2zrj1qPSksXtd4gPkuLWF5/EJ95+RZlPXbxV4vd2BZ/r5j01kd8FjV9op1BfHa/51MBRnx2E1J8FN/c5YjP3ITrso/4rCteUd4iPj/eufOq3vPpFd/sfEala3ONEZ+Iz8VJHfvkRa1HpU0gxGdpERnWH8TnsPx77R3xifhcnHDqZsBj97TTE/GJ+ER8Tj+nWH+mZ1VjTcRnjVFboc+pxad1wy4WK3TzhWb21Umx/alXMXl3Pq0/sWcyvWc4U9dXfIf+wVFsPtF+WAKsP1uCANx+++3Bdez6M2x00/eO+EzPtCSLiM+SopHZFxb/vIs/4jNzAmO+agKsP3nXn6qTYwnnEZ+tRTQcD+Kz7fgGo2Pxz7v4Iz5HNJkYqpsA60/e9ccdkMIbID4LD1Cke4jPSIA1NWfxz7v4Iz5rmg342jcB1p+860/f8czdH+IzN+Fh7SM+h+Xfa+/2Byapz2jawdhfc8YO1n4bObY/a8+eCc3NJ5ZH3+0589k38bb6Y/0J48n648tv1h8fr9JrIz5Lj1BC/1j8Wfxj0onFP4YebVl/WH9iZgHrTwy98toiPsuLSTaPWPxZ/GOSi8U/hh5tWX9Yf2JmAetPDL3y2iI+y4tJNo9Y/Fn8Y5KLxT+GHm1Zf1h/YmYB608MvfLaIj7LiwkeQQACEIAABCAAgWYJID6bDS0DgwAEIAABCEAAAuURQHyWFxM8ggAEIAABCEAAAs0SQHw2G1oGBgEIQAACEIAABMojgPgsLyZ4BAEIQAACEIAABJolgPhsNrQMDAIQgAAEIAABCJRHAPFZXkzwCAIQgAAEIAABCDRLAPHZbGgZGAQgAAEIQAACECiPAOKzvJjgEQQgAAEIQAACEGiWAOKz2dAyMAhAAAIQgAAEIFAeAcRneTHBIwhAAAIQgAAEINAsAcRns6FlYBCAAAQgAAEIQKA8AojP8mKCRxCAAAQgAAEIQKBZAojPZkPLwCAAAQhAAAIQgEB5BBCf5cUEjyAAAQhAAAIQgECzBBCfzYaWgUEAAhCAAAQgAIHyCCA+y4sJHkEAAhCAAAQgAIFmCSA+mw0tA4MABCAAAQhAAALlEUB8lhcTPIIABCAAAQhAAALNEkB8NhtaBgYBCEAAAhCAAATKI4D4LC8meAQBCEAAAhCAAASaJYD4bDa0DAwCEIAABCAAAQiURwDxWV5M8AgCEIAABCAAAQg0SwDx2WxoGRgEIAABCEAAAhAojwDis7yY4BEEIAABCEAAAhBolgDis9nQMjAIQAACEIAABCBQHgHEZ3kxwSMIQAACEIAABCDQLAHEZ7OhZWAQgAAEIAABCECgPAKIz/JigkcQgAAEIAABCECgWQKIz2ZDy8AgAAEIQAACEIBAeQQQn+XFBI8gAAEIQAACEIBAswQQn82GloFBAAIQgAAEIACB8gggPsuLCR5BAAIQgAAEIACBZgkgPpsNLQODAAQgAAEIQAAC5RFAfJYXEzyCAAQgAAEIQAACzRJAfDYbWgYGAQhAAAIQgAAEyiOA+CwvJngEAQhAAAIQgAAEmiWA+Gw2tAwMAhCAAAQgAAEIlEcA8VleTPAIAhCAAAQgAAEINEsA8dlsaBkYBCAAAQhAAAIQKI8A4rO8mOARBCAAAQhAAAIQaJYA4rPZ0DIwCEAAAhCAAAQgUB4BxGd5McEjCEAAAhCAAAQg0CwBxGezoWVgEIAABCAAAQhAoDwCiM/yYoJHEIAABCAAAQhAoFkCiM9mQ8vAIAABCEAAAhCAQHkEEJ/lxQSPIAABCEAAAhCAQLMEEJ/NhpaBQQACEIAABCAAgfIIID7LiwkeQQACEIAABCAAgWYJID6bDS0DgwAEIAABCEAAAuURQHyWFxM8ggAEIAABCEAAAs0SQHw2G1oGBgEIQAACEIAABMojgPgsLyZ4BAEIQAACEIAABJolgPhsNrQMDAIQgAAEIAABCJRHAPFZXkzwCAIQgAAEIAABCDRLAPHZbGgZGAQgAAEIQAACECiPAOKzvJjgEQQgAAEIQAACEGiWAOKz2dAyMAhAAAIQgAAEIFAeAcRneTHBIwhAAAIQgAAEINAsAcRns6FlYBCAAAQgAAEIQKA8AojP8mKCRxCAAAQgAAEIQKBZAojPZkPLwCAAAQhAAAIQgEB5BBCf5cUEjyAAAQhAAAIQgECzBBCfzYaWgUEAAhCAAAQgAIHyCCA+y4sJHkEAAhCAAAQgAIFmCSA+mw0tA4MABCAAAQhAAALlEUB8lhcTPIIABCAAAQhAAALNEkB8NhtaBgYBCEAAAhCAAATKI4D4LC8meAQBCEAAAhCAAASaJYD4bDa0DAwCEIAABCAAAQiURwDxWV5M8AgCEIAABCAAAQg0SwDx2WxoGRgEIAABCEAAAhAojwDis7yY4BEEIAABCEAAAhBolgDis9nQMjAIQAACEIAABCBQHgHEZ3kxwSMIQAACEIAABCDQLAHEZ7OhZWAQgAAEIAABCECgPAKIz/JigkcQgAAEIAABCECgWQKIz2ZDy8AgAAEIQAACEIBAeQQQn+XFBI8gAAEIQAACEIBAswQQn82GloFBAAIQgAAEIACB8gggPsuLCR4NROCkk04aqOcyu33DG94QOLZ169YyHcWrKggwv8IwMb+qSFuczEQA8ZkJLGbrI8DNkZtjfVlbj8fML+ZXPdmKp7kJID5zE8Z+NQS4OXJzrCZZK3SU+cX8qjBtcTkTAcRnJrCYrY8AN0dujvVlbT0eM7+YX/VkK57mJoD4zE0Y+9UQsDfHHTt2BL7Pzc11jmX16tWd9deuXdvZ/tChQ53tZ2ZmOtuvWbOms/2BAwc629vx3X///UH9N77xjdXEEkfLI2Dn1wev+2+Bkwf2PhtcH9z/nBlE9/yzI56ZDefjug3HBlUOWfszs2H5wXC+zB08GJTPrg7n24yZ/+uOOiaoPzMb2j/u/r9gfpWXptV4dOKJp7t83b37y676uSsjPnMTxn41BBCf4c0d8VlN6lbhKOIT8VlFolbiJOKzkkDhJgQUAcQn4lPlCOUrJ4D4RHyuPHtoaQkgPskJCDRCAPGJ+GwklYscBuIT8VlkYlbqFOKz0sDhNgQsAXtzvP7664Mq9sylPeN50JwJs2cobX17BtTWt2dAVcRmzZkya2///v3KRFD+4IMPBtec+XTho7IhYOfXb156Wzi/Zu2Z5vDanrFcf3R4hnPd2nWBvaef+n5wfeC5vaFHZr7OrAnPiB5xxJFB/Wee/mFUTGdWheP56b3fZH5FES27cWpx6LWn6KgzoN7+lD3rD2c+VYQoHw0BxGcYasTnaFK/l4EiPhGfvSRaIZ2kFm9eewqDEove/pQ9xKeKCOWjJYD4RHyONvl7GDjiE/HZQ5oV00Vq8ea1p0AosejtT9lDfKqIUD5aAohPxOdok7+HgSM+EZ89pFkxXaQWb157CoQSi97+lD3Ep4oI5aMloH5wZM9UWlD2TKc6Y2ntqfeE2jOc6r2j6r2h1n97ppXH7qOdClkGbufXv/rCfw36WbPuiOD64IF9wbV9D+gh8x5O6/Sxx4ZnQp/8wQ86x3Xkhg1B+aHZ8D2eq8x7ftdtCN/j+dzTT4X+mzPWq817fl/x2N1Bfc5UZ0m7wYx6xdtgjibqGPGZCCRmxkcA8RnuzCA+xzcHco4Y8Rl+ZALxmTPbhreN+OyOAT84Gj5H8aAQAohPxGchqdikG4hPxGeTib3MoBCfiM8x5TtjjSCA+ER8RqQPTQUBxCfic0yTBPGJ+BxTvjPWCAL25njzzTcH1uy30dW31tWZS9teXXvPfFoUyr6tz+c1I5KJpocRUOLzwN5ngjaHzR9zxtO+N9N2eOyLXhT805NPhmc+bfsjjgzf67n3ufDb8jOHvYc07HF2dSgu7ZlU+57SVz35jcAAZz7bmjS5xaf3jGVp/vDYva18ZzQRBBCfITzEZ0Qy0RTxacQy4nNck6I0sVeaP4jPcc0HRttBAPGJ+GSC5CPAzmf463l2PvPlWgmWSxN7pfmD+CwhS/GhCAKIT8RnEYnYqBOIT8Rno6m95LBKE3ul+YP4HNNsYKydBOzN8ZZbbgnq2zOfCmfst9mtfXWG1Na3ZzzXrAlvfuq9ot/8Jt+eVjGmfHoCdn697/KvBo3nDs11GlNnLm37F704PPO577nwvaFzhw529vfc/gPTD+7HNe18mzXfmp8z35Jn59OFt/rKXvHnPdMZC6hv/xCfsRGjfTMEEJ/hzR/x2UxqFzEQxGcodhGfRaRlb070Le68A+vbP8SnN0LUb5YA4hPx2WxyFzAwxCfis4A0HMyFvsWdd6B9+4f49EaI+s0SQHwiPptN7gIGhvhEfBaQhoO50Le48w60b/8Qn94IUb9ZAvbmeOONNwZjtWcu7Rmvtebbzfbb7ra9/ba7PZOp2qtAqPeQ2v7XrVsXmLz33nuDa95DqIhT3kXALT4PHeoEOrNmdVA+u2Z9cH2Mec/nU99/PLRnvtW+3uT/Mz96Oqhv3ws6t0qcUV0VfrTB1j9+77eYXyOaMkrc9X3Gc2j0iM+hI0D/xRBAfCI+i0nGBh1BfIZiFfHZYJJ3DAnxGcJBfI4r/xltBwHEJ+KTCZKPAOIT8Zkvu8q3jPhEfJafpXg4CAHEJ+JzkMQbSaeIT8TnSFJ9yWEiPhGfY85/xu7Y+dy5c2dQ+6B5T581Zc9Q2m+xq/rr14dn1uwZUfueUfXeUXXm054xtf7dd999wT9x5pPpE0PAis8zPvengblDB8L3cNq+Vq8N58fB/eG314899pigyVNPPWVMhGcw7ecuZ1aHZ0jXrp4N2j+3d29wvfaoo4Pr1WvCb7vbb73v+1Hozyse/5/Mr5iEKrytEpvWfc583nPPC3+ePfHEE4WHF/cgkI6AvTkiPhGf6bILS4hPxOeYZgHiszvanPkc02xgrJ0EEJ8hHnY+mTApCSA+EZ8p86l0W4hPxGfpOYp/hRBAfCI+C0nFJt1AfCI+m0zsZQaF+ER8jinfGWsEAXtz3LFjR2BNneFUXdszoba+PfOp+tu3Lzwjp854KnvWnwceeCD4J858qghT3kXAzq/3X/nH4fwS31q3to89Nvx2+4+eDc+A2vmwbl14JvOZp3/YGbC5A+G33Y848oig/nP79wfXM7PmzKg5E2q/7f6Kx+5mfjU0ZfoWm97++katzrDy2L3viNBfsQQQn2FoEJ/FpmqVjiE+wy8cIT6rTONlnfaKQSXOFB1vf8pe6nI1PsRnauLYq5YA4hPxWW3yVuA44hPxWUGarthFrxhU4kw54u1P2UtdrsaH+ExNHHvVEkB8Ij6rTd4KHEd8Ij4rSNMVu+gVg0qcKUe8/Sl7qcvV+BCfqYljr1oC9uZ4/fXXB2OxZ8i87/W0YNS34m1/9tqe4fTWV/48+OCDQRXOfFab2kU4bufXmVf/eeDXQfueT/Pt9WPMGc9nng3fu3noYHhGc27OfBve2LNnNG1929/e/aH99euPDPzf+6z5FvzqNSF30//LH7mL+VVEZqZxwisGlThTXnn7U/ZSl6vxIT5TE8detQQQn+HNGvFZbSoX6TjiM/zCEeKzyDRdsVNeMajEmXLE25+yl7pcjQ/xmZo49qolgPhEfFabvBU4jvhEfFaQpit20SsGlThTjnj7U/ZSl6vxIT5TE8dei6RUnAAAHrtJREFUtQQQn4jPapO3AscRn4jPCtJ0xS56xaASZ8oRb3/KXupyNT7EZ2ri2KuWgBKfq823n71nMG17+212ewbUglTvCVVnQJX/9r2hPHavNpWLdNzOrw9c/WeBn/Y9mEcfFZ6p/MH3fZ97fvGLXhzY/8GTPwiuZ9eYM5mSWve34Y84akNgYd9z4XtH1x55VFD+sofvDK45Uy0DUHQFrxhU4kwN1tufspe6XI0P8ZmaOPaqJYD4DF9aj/isNpWLdBzxifgsMjETOeUVg0qcKbe8/Sl7qcvV+BCfqYljr1oCiE/EZ7XJW4HjiE/EZwVpumIXvWJQiTPliLc/ZS91uRof4jM1cexVSwDxifisNnkrcBzxifisIE1X7KJXDCpxphzx9qfspS5X40N8piaOvWoJKPFpz1yq936qM5b2jOZ+861o29/ateG3qe0ZUdveltv2NlC2PY/dq03lIh238+t9l3818PPYDUcH108++WRwbb+t/uyzzyYd55FHhmdMrX37XtBZewbcfNv9CGPvmaefCvx99dP3BNec+UwazsGNecWhEmt9Dyi3/4jPviNKf8USQHzuD2KD+Cw2Vat0DPGJ+KwycVfodG7xtkK3pm6W23/E59ShoGLrBBCfiM/Wc3zI8SE+EZ9D5l/ffecWb7nHk9t/xGfuCGK/GgKIT8RnNclaoaOIT8RnhWm7Ypdzi7cVOzZlw9z+Iz6nDATV2idgb4433HBDMGj1Hk57xtOesbRnPK09e23trTHvJbRnNO17Q23E1Lffbf37778/+CfOpLU/B3KO0M6vjRfdFHT34hf/veD6Bz/4fqc7MzOzLnfnVoUveZ9ZFb63c8bMr0MHwj/GZGfm2+1HHhX+wMieIT1+77eYXxJqOxWUmKvtzGesv4jPdnKbkUQSQHyGABGfkQlF84AA4jP8gRTic1wTBPEZxhvxOa78Z7QdBBCfiE8mSD4CiE/EZ77sKt8y4hPxWX6W4uEgBBCfiM9BEm8knSI+EZ8jSfUlh4n4RHyOOf8Zu2Pn86abwjNpBw8enG992mmnBVZ27twZXNvySeGNN94Y1Juc8fzVX/3VJb2y/U8qveMd71iy/nJ+2H+fNLZnQO0Z0299izNpTJh0BNRL5jc8/57PC999QtDp+6/4o/nryZnpL5z1liWdOusLfxH8+74Dh+avrz7zny1Z//1X3L7kv3/+Q0vb3/TFvwrqX/hrPzd//ZuX3LKkHfve0OfMe3x5z2e63KrBkhKfdgyxZyq9TPr2j8fu3ghRv1kC9uaI+ER8NpvsAwwM8Rn+gAnxOUASDthl3+LOO9S+/UN8eiNE/WYJKPH59re/fX7sk53EyQ7nKaecMv/vd9xxR1B+ySWXBKwm5ZMd0He+853z5ZNf1V966aVL1p+I4MmO5+T6oosuWrL+cv599KMfDeqz89lsKhc5MCU+rzrjF+f93nT9nvn/TnZA7fx63+ULO5YPXL9lyfyf7IBe/r5fmC//wFV/Nv/f+677vSXrT3ZAJzuek+v7v7K0/ckO6GTnc+LfcaedE9hn57PINBzMqb7FnXegffuH+PRGiPrNEkB8rg5iy2P3ZlN9kIEhPtn5HCTxCum0b3HnHXbf/iE+vRGifrME7M3xllsWznK99a1vnf/vZMfy4osvnr+e7GTanZnJ9Uc+8pH5evZM53L1P/zhD8/Xf9e73hUwTmX/t37rtzpjZ78lf9999wX1ec9ns6nfy8Ds/Drjc/9lvt+rz/zn8/8947N/Mv/f//ul86aaX5Odxj/86Nummi8vfc/H5+vZM53Lza+Xnf6J+frXfPBfTGX/Ve//VFBvr/j2/Kuf/hvmVy+ZN0wnXjHn9dJ7JrQ0fxCf3ohTv1kCiM/wpd2Iz2ZTfZCBIT5D7IjPQdKwt05LE3ul+YP47C0V6ah0AvbmOPl17a233jrv+tatW+f/O9lBnJzZXG7nZLIzOjnTOdkBVfV37Ngx389kB1TVn9Y+O5+lZ2Db/i03vz5w1Z/OD/y+635//r8ve++/mf/vNf/6zfP/Vfk/+bX5ZAdU1bdnPFX9M6784wV/nt8BXa4+O59t5693dKWJvdL8QXx6M4r6zRJAfLLz2WxyFzAwxGcYBHY+C0jKjC6UJvZK8wfxmTH5MF0XgeVujmoUdidkUt/+in25M6KT+pNfqU9+Ja/qT2t/4t+5554bDGXfvn3Btf32/AMPPBCUc+ZTZQLlXQRSz68PXb2wY3rPtQs7pmq+TH4F/zdf+I9T1f/IdQvv9fzrqxbOcqoz3j/1G78TDP/g/r3h/Dqw8J7gyf9+eu83mV8NT5ncYq80dN4zqIjP0iKIP4MRSH1znFYcTgaM+Bws9HTcA4HU8wvx2UPQ6GLFBBCf3egQnytOLRq2RmC5z2va93VOxq12Qib17K/elzszNqk/eR/ncu8RnbT32mfns7WMrWs8dn795sULb5N4YOfCWWr7v2nn1z/+jX873/SKDyz8al7Nr1e979/N15u8B1TVf/WZ/2G+/qW/vvBFo+Xqs/NZVz7m9hbx2U0Y8Zk7A7FfDQHE51wQKx67V5O6VTiK+OSxexWJmshJxCfiM1EqYaZ1AvbmuNw30Scc7K/d7a/gLa+bb755/p8uvPDC+f+ec87CF1He9rbwPYWTdva9onZH1Npf7j2kKm6T4wH2PZ/3339/0JQzn4ok5V0E7Px63+VfNdVnguvPf+hfzl9Pdhrtr+BtX2de8+fz//St7b87/9+f/PWFHdHJe0Rt/Y9cf9f8P/315Qvv8/yZsxfm5UXveM2Sw/jg9q/N//u913x6/r+TndklKy/6x8n7S229f/LUXwf/xPxSJOsq94pPdWbSa0/RSt2fsmf9YedTRYjy0RBAfIa/dkd8jib1exko4jPEjPjsJe0G68QrFpV489pTA0/dn7KH+FQRoXy0BLzic/Xqhc9Rbtu2bf6/9j2aky8hWaCbNm2a/yf7bfWJHVt/Ytf+Gn25s6iT+uvXr583tWVL+I3q5QJs/Ud8jnYqZBm4V3yuWrVwDGTyjfXJzufEucmXkKyzP7Vx4Vfnc4cOBUWT94ja+q8+6/z5f1q9dmG+TP73vy9amKf2f688498v2J9bsP9/Pr9wrf5n/Ud8KmJ1l3vFohJvXnuKXur+lD3rDzufKkKUj4YA4jP8/CbiczSp38tAEZ8LL8+f/A/x2UvaDdaJVywq8ea1pwaeuj9lD/GpIkL5aAls3rw5GPvk1+ajBWIGzpk0MiGGAPOrmx7zKya7xtfWK0a94jA3UXY+cxPGfjUEuDlyc6wmWSt0lPnF/KowbYt1GfFZbGhwDAI+AtwcuTn6MobaHgLML+aXJ1+o200A8UmGQKARAtwcuTk2kspFDoP5xfwqMjErdQrxWWngcBsCEIAABCAAAQhAoH8CnPnsnzk9QgACEIAABCAAgdESQHyONvQMHAIQgAAEIAABCPRPAPHZP3N6hAAEIAABCEAAAqMlgPgcbegZOAQgAAEIQAACEOifAOKzf+b0CAEIQAACEIAABEZLAPE52tAzcAhAAAIQgAAEINA/AcRn/8zpEQIQgAAEIAABCIyWAOJztKFn4BCAAAQgAAEIQKB/AojP/pnTIwQgAAEIQAACEBgtAcTnaEPPwCEAAQhAAAIQgED/BBCf/TOnRwhAAAIQgAAEIDBaAoeJzyuvvHJuQuMlL3nJaMEwcAhAAAIQgAAEIACB9AS+853vBEZnEJ/pIWMRAhCAAAQgAAEIQGCBAOKTTIAABCAAAQhAAAIQ6I0A4rM31HQEAQhAAAIQgAAEIHCY+Ny1a9cLZz6/8Y1vQAgCEIAABCAAAQhAAALJCBx//PGBrRnEZzK2GIIABCAAAQhAAAIQMAQQn6QEBCAAAQhAAAIQgEBvBBCfvaGmIwhAAAIQgAAEIACBTvEJHghAAAIQgAAEIAABCOQkEJz5zNkRtiEAAQhAAAIQgAAEIID4JAcgAAEIQAACEIAABHojgPjsDTUdQQACEIAABCAAAQggPskBCEAAAhCAAAQgAIHeCCA+e0NNRxCAAAQgAAEIQAACiE9yAAIQgAAEIAABCECgNwKIz95Q0xEEIAABCEAAAhCAAOKTHIAABCAAAQhAAAIQ6I0A4rM31HQEAQhAAAIQgAAEIID4JAcgAAEIQAACEIAABHojgPjsDTUdQQACEIAABCAAAQhkFZ8nnXRSUsK7du1Kas9rzI4Hf7oJeuOfm6fyx9u/smfplGY/Nv+97RWP2PkV2z52PLSHAAQgAIHpCCA+p+M0X6u0m1tp/liUucWZI3RLxk+JIWU/9/hy21fji42nsm/FeGw+x7ZX/lIOAQhAAAJpCCA+HRxLu7mV5k+sWPHuDDpCh/j0wlqivlcMqy4Rn4oQ5RCAAATaJID4dMS1NLFXmj+Iz+5k8oprr9jz2nek/lTi3WsP8eklRn0IQAACbRDIKj4VotLFkxJTuW/2qfnl5h1rP7Z97njF+qfaq/LU+aDs5eaZ2n4sPy8P6kMAAhCAwMoIID4d3Eq7uXn98dZ3oFlyZ8wrzlP7V5o95Y8qV/GIbV+7/dzjV3wohwAEIACB6QggPqfjlERcObqaqqr3ZuutP5UTiyrF2o9tn3onLbU9NT5VruIR2752+7nHr/hQDgEIQAAC0xFAfE7HCfE5BafYm39s+9RiMbU9NT5VrkIQ2752+7nHr/hQDgEIQAAC0xFoSnym/oFGbfbUY+7cN+dY+0O3V1PG65/Kn9gf3Hjtq/GpctWfba/ysW9xr8ZHOQQgAAEI9EMA8dnBOfXNNrc9dbP3iidvCsbaH7q9Gq/XPxVvxGdI3Ms3tXhV8accAhCAAATSEEB8Ij7TZNKPrQwtHmL7VyC89hGfvi+SefkiPlXGUg4BCECgTAKIT8RnsswcWjzE9q9AeO0jPhGfKqcohwAEIDBGAlWLT68YiN0pie3Pm2CqP1Xu7S91fSW+VH/qGIGKp7Jvy1V/infp5V4eiq/i5e1P8VP2Ytsr+5RDAAIQgEAaAojPRRzVzbTvm5vqT5WnSZGVW0F8hjt/Kl65y1ceyYWWyr+h7ef2L3Z8tIcABCAAgQUCiE/EZ7a5gPhEfHqSK1Y8xrb3+EpdCEAAAhBYOQHEJ+Jz5dkjWiI+EZ+e5IoVj7HtPb5SFwIQgAAEVk4A8dmj+Ewtxlq72caOJ3d7Fb/YYxu57a98mVhoGctX9R9rP7a98o9yCEAAAhBIQwDxifhMk0kJrMSKh9ztc4vD3PZjQxTLV/Ufaz+2vfKPcghAAAIQSEMA8Yn4TJNJCazEiofc7XOLw9z2Y0MUy1f1H2s/tr3yj3IIQAACEEhDAPGJ+EyTSQmsxIqH3O1zi8Pc9mNDFMtX9R9rP7a98o9yCEAAAhBIQwDxmVF8xt4MVXtVblPEWz9Nii1vxeuPqq/K1XhUe1Veun3lnyqPHX9u+7n9U/5TDgEIQAAC0xFAfCI+p8uUDLW8YkHVV+VqCKq9Ki/dvvJPlceOP7f93P4p/ymHAAQgAIHpCCA+EZ/TZUqGWl6xoOqrcjUE1V6Vl25f+afKY8ef235u/5T/lEMAAhCAwHQEEJ+Iz+kyJUMtr1hQ9VW5GoJqr8pLt6/8U+Wx489tP7d/yn/KIQABCEBgOgJVi087RHvzUQjUexlVe+/Nzuuf7V/5q/xR5Wq83nI1XjUeFV/VXvXv5av8UXyUv33bV/7G+qPsKx6546f8oxwCEIAABPIQQHxGcPWKOe/N1CuOlD+qPALFkk3VeJX4UOJHtVf9e/kqfxQ/5W/f9pW/sf4o+4pH7vgp/yiHAAQgAIE8BBCfEVy9Ys57M/WKI+WPKo9AgficAp4SW7Fiz2t/CpeDKrH5G5vPyt/c41f9Uw4BCEAAAtMRQHxOx2kqcaVufrE3b699Wx/x2R1sxbdvcejNF6//3tT3+qPsK3+9/Sl7yh/KIQABCECgHwKDis9+hkgvrRDoWzy3wo1xQAACEIAABEoigPgsKRr40kkA8UmCQAACEIAABOongPisP4ajGQHiczShZqAQgAAEINAwAcRnw8FtbWiIz9YiynggAAEIQGCMBBCfY4w6Y4YABCAAAQhAAAIDEUB8DgSebiEAAQhAAAIQgMAYCSA+xxh1xgwBCEAAAhCAAAQGIoD4HAg83UIAAhCAAAQgAIExEkB8jjHqjBkCEIAABCAAAQgMRADxORB4uoUABCAAAQhAAAJjJID4HGPUGTMEIAABCEAAAhAYiADicyDwdAsBCEAAAhCAAATGSCCr+Ix9KXhs+zEGtOUx23xQY921a5eqEpTntu9y5seVvf4o+5ZH7PyKba/89dr31lf9x5ar+KWOh/I3lo9q7x2v8pdyCECgXQKIz3Zj29zI1M3NDhjxGRJJLXaUGIlNQK99b/1Y/1R7la+p4+H1J3Z+KP9j56MaD+UQgEC9BBCf9cZudJ6rm3nszS63fW/AvP4o+0ospBYjyh9V7hWT3vqq/9hyFb/U8VD+xvJR7b3jVf5SDgEItEsA8dlubJsbmbq5IT67Q55a7CgxEpuAXvve+rH+qfYqX1PHw+tP6j82vONV/lIOAQi0SwDx2W5ss48s980+1r5qr8oVwNj2tdtPPf5Ye7HtVTxUeWz/se1L9y/3+NT4KYcABMohgPgsJxbVeZL7ZhJrX7VX5Sogse1rt596/LH2YtureKjy2P5j25fuX+7xqfFTDgEIlEMA8VlOLKrzJPfNJNa+aq/KVUBi29duP/X4Y+3FtlfxUOWx/ce2L92/3ONT46ccAhAohwDis5xYVOdJ7ptJrH3VXpWrgMS2r91+6vHH2ottr+KhymP7j21fun+5x6fGTzkEIFAOgabEp13cvJjVAXyvfWXP+ue1b9ur/rz2vfZUfW88Yuurm50q98Yn9fhTx0uNx+u/l5+Kp9debj6p/e3bXmvxVvwohwAE6iGA+FwUK3XzzX2z89pHfHZPNCVmVLm6eXv5e5cFbz6o/FXj6bt9rD+5+ah4efOnb3uxfFO3z21P8aUcAhAohwDiE/G5bDYqMZL65pt6Wij/VLm6WSI+TwoQqHxR8U0dj77j0/f4FU+Vv15/vfFR/qW2p/qjHAIQKIcA4hPxifh8noC6GaudNtXeO+1Vf7HiKvbmH9s+Vhzl5qPiNfT4lX+xfFO3z23Py4P6EIDAcASqFp+pF//UYVD+qXLlj2qvymPtq/a5y5X4UGJQ8Yktjx2/6n9o+7H+xbYfWszU5n+sv7Hth45X7HyhPQQgkI4A4jMdy8MsqcValSvXVHtVHmtftc9djviMIzx0fsT2P7SYqc3/WH9j2w8dr7jZQmsIQCAlAcRnSprGllqsVblyTbVX5bH2Vfvc5YjPOMJD50ds/0OLmdr8j/U3tv3Q8YqbLbSGAARSEkB8pqSJ+MxI83DTiM843LFiYuj2Q4uZ2PH37X+sv7Ht+x5v3OygNQQgkJNA1eJTLWYKnDoTGGvftrf9xS7mqr0SZ4qP8t/bvu/6sXxUfij7seMt3b7XP299L7/c9tV6oPJFjac0/3P7k9u+4k05BCAwHAHEp4N9rJhDfDpgJ6iqbm4qnkpMKPuxQyjdvtc/b30vv9z2EZ+7vCHprN93vJI6jzEIQCCKAOLTgU+JFWUK8akIpS1XNzcVT8RndzwU39xirW/7ufvz8oydLao/VZ67/1j7tIcABMolgPh0xEaJFWUK8akIpS1XN08VT8Qn4rOLgMovbzantqf6V/2pcmVflee2r/qnHAIQGI5AU+LTi1Etfqpc9edtr8SQ6i+1uFX9ecen7KXeWVL+qXLlb2z72u17x++tr/ikzhdvf6n7z83H629qf1Lbi40X7SEAgeEIID4XsU8t3ryLLeIznAhefn3fXGP9U9O+dPte/7z1FR9vvL32vPVjxxfbPrW/qf1Jbc87XupDAALlEEB8Ij5XnI25byax9lV7Va7AxLav3b53/N76ig/i00vI98dd6nilthc3elpDAAJDEkB8Ij5XnH+5byax9lV7Va7AxLav3b53/N76ig/i00sI8RlHjNYQgEAqAlnFp7o5qEF4f/Ch7NlyZT/W/9j+1Hi8N/PaHuvH8s8dX699Fc/Y8Sr7yl9vfnjtqfrKf2+5d3547av6iqc65qPsq3Iv71he3vEq/ymHAATaJYD4dMRWLa7KlPdmoOx5bxap/ff2r8ajyr3+e3nntq/Gh/j0Euqu33d+euOH+Ewbb6xBAAL1EEB8OmLlFSfWtFcMKde8N9fU/nv7V+NR5V7/vbxz21fj84oXrz3FI/X4+84PxU+N38tT1Vc8EZ+KIOUQgECrBBCfjsiqm4kylfrm5725p/bf27/io8q9/nt557avxqfEk7e994+f1OPvOz8UP28+xPJWPBGfsYRpDwEI1EqgV/FZK6Rcfqubk+q375up8odyCEAAAhCAAAQgoAggPhWhjOWIz4xwMQ0BCEAAAhCAQJEEEJ8DhgXxOSB8uoYABCAAAQhAYBACiM9BsC90ivgcED5dQwACEIAABCAwCAHE5yDY6RQCEIAABCAAAQiMkwDic5xxZ9QQgAAEIAABCEBgEAKIz0Gw0ykEIAABCEAAAhAYJwHE5zjjzqghAAEIQAACEIDAIAQQn4Ngp1MIQAACEIAABCAwTgKIz3HGnVFDAAIQgAAEIACBQQggPgfBTqcQgAAEIAABCEBgnAQQn+OMO6OGAAQgAAEIQAACgxDIKj5jX6JuidhvmVv7fOs8bQ7l5qvyg3imjSfWIAABCEAAAiUQQHyWEIVCfUB8FhoY3IIABCAAAQhUTADxWXHwcruO+MxNGPsQgAAEIACB8RFAfI4v5lOPGPE5NSoqQgACEIAABCAwJYGs4lP5kFvcqP5LL++bT+4zmH2Pp/T44h8EIAABCEBgjAQQnwVHvW+xhvgsOBlwDQIQgAAEINAIAcRnwYFEfBYcHFyDAAQgAAEIQGBFBBCfK8LWTyPEZz+c6QUCEIAABCAAgf4IVC0+lTjzPkZW9lRYVH+2vXqPZaw/yl9VHtt/bHvlX+pyb/xi46n8V/lh23v9z23fy0fxoBwCEIAABNoggPhcFMdYsZT65h/rT2yKxvYf2z7Wf297b/y84sprP7c4zG3fy8cbL+pDAAIQgECdBBCfiM9lMzdWPMa273tKecWhV1x57ecWh7nte/n0HW/6gwAEIACBYQggPhGfiM/nCXjFoVdcee3nFoe57Xv5DLME0isEIAABCPRNYFTi0/tteLVzp8pVMGPbK/ux5bH+ecVW32IldnyKb6x91V6Vx/oXa1/1TzkEIAABCIyTAOJzUdxTi1OVUqXf3GP9Q3yeFKRA7E6jNz9j8y82/qp/yiEAAQhAYJwEEJ+Iz2UzP1Z8ID4Rn+NcVhk1BCAAAQh0EUB8Ij4Rn88T8O5MqqUltXhn51MRpxwCEIAABGoggPhMKD5jA55a/MT6k1s8Kf9i+1f2bbl3p1bFy2tP+ZtafKr+cvPx9k99CEAAAhBogwDiE/HZ286nEmtK7Hjbe6eoVywqf7z2lL+IT0WIcghAAAIQqIEA4hPxifh8noBXLCI+u5c4xaeGBRIfIQABCEAgPQHEJ+IT8Yn4nGplSS3Op+qUShCAAAQg0ByBUYtPFU115lCVK/uqPLf93P3H+h/bXo0vtlz5p8pz96/sl+6f8p9yCEAAAhCokwDisyNu6uasymNTIrd95V9s/0O3V+OLLVfjU+W5+1f2S/dP+U85BCAAAQjUSQDxifhclkCsOBm6fe4pqcanymP9i7Uf2175n9u+6p9yCEAAAhAokwDiE/GJ+Fzh3FTiSpWvsNsXmsXaj22v/M9tX/VPOQQgAAEIlEkA8RkhPm1T7w8ybPu+X6UT66/yP5ZP7l9Lx47f61/u/rz2lf9ee958KHNJxCsIQAACEMhNAPGJ+EyWY6nFjLIX63jf4ip3f177iq/XHuIzNiNpDwEIQGAcBBCfiM9kmZ5azCh7sY73La5y9+e1r/h67SE+YzOS9hCAAATGQQDxifhMlumpxYyyF+t43+Iqd39e+4qv1x7iMzYjaQ8BCEBgHAQGFZ/jQMwoIQABCEAAAhCAAAQmBBCf5AIEIAABCEAAAhCAQG8EEJ+9oaYjCEAAAhCAAAQgAAHEJzkAAQhAAAIQgAAEINAbAcRnb6jpCAIQgAAEIAABCEAA8UkOQAACEIAABCAAAQj0RgDx2RtqOoIABCAAAQhAAAIQQHySAxCAAAQgAAEIQAACvRFAfPaGmo4gAAEIQAACEIAABBCf5AAEIAABCEAAAhCAQG8EEJ+9oaYjCEAAAhCAAAQgAAHEJzkAAQhAAAIQgAAEINAbAcRnb6jpCAIQgAAEIAABCEAA8UkOQAACEIAABCAAAQj0RgDx2RtqOoIABCAAAQhAAAIQQHySAxCAAAQgAAEIQAACvRFAfPaGmo4gAAEIQAACEIAABBCf5AAEIAABCEAAAhCAQG8EEJ+9oaYjCEAAAhCAAAQgAAHEJzkAAQhAAAIQgAAEINAbgf8H46+L9olBmUUAAAAASUVORK5CYII=;" vertex="1" parent="1">
          <mxGeometry x="-1704.9957142857143" y="303.5" width="671" height="582" as="geometry" />
        </mxCell>
        <mxCell id="TFOJBvLKXQj2atVjrU41-18" style="edgeStyle=none;curved=1;rounded=0;orthogonalLoop=1;jettySize=auto;html=1;fontSize=12;startSize=8;endSize=8;strokeWidth=10;" edge="1" parent="1" source="TFOJBvLKXQj2atVjrU41-17" target="TFOJBvLKXQj2atVjrU41-15">
          <mxGeometry relative="1" as="geometry" />
        </mxCell>
        <mxCell id="TFOJBvLKXQj2atVjrU41-17" value="" style="shape=image;verticalLabelPosition=bottom;labelBackgroundColor=default;verticalAlign=top;aspect=fixed;imageAspect=0;image=data:image/png,iVBORw0KGgoAAAANSUhEUgAAAqIAAAJECAYAAADNHEZsAAAgAElEQVR4Xu2dbdCmRXXn55lXFUg+5WVNbWEqH3yJCNmAyhAzI9kq1l3U7IpGTC1VolXrGMM4YqWW7/sSXWB4H0RlN4MozAwQJmxtbdWuzqDMsBZ+SKEWJCACwjKgVCX7gXFeFx/n1uecmef+3+fu7uvqvq6fX/Ce7j59+ndOd/+fvvu+roVVq1YdX/Hq/44ePfqz//C/nggcP74YhmX/t3///p48a6PbrVu3TnV0586dbQwELyEAAQhAAAIDIvCqzpw6moVXBdB0BTQgGC0PBSE6PXpeiG7ZssU0OP/881sOP75DAAIQgAAEBkkAIdpIWBGiCNFGUhU3IQABCEAAAjMTQIjOjKrfighRhGi/GUjvEIAABCAAgfwEEKL5mRaxiBBFiBZJLIxCAAIQgAAEeiSAEO0R/rSuEZ5pgeFOaBo/WkMAAhCAAAS6IIAQ7YLyHH0gROeAtqQJQjSNH60hAAEIQAACXRBAiHZBeY4+EKJzQEOIpkGjNQQgAAEIQKBjAgjRjoHP2h1CdFZSp67HiWgaP1pDAAIQgAAEuiCwsG/fvlM+R3TDhg1d9F+sjy996UvFbGMYAhCAAAQgAAEI5CDw8Y9/PIeZ3mzs3bs3qW+EaBI+GkMAAhCAAAQgAIH5CSBEORGdP3toCQEIQAACEIAABBIIIEQRognpQ1MIQAACEIAABCAwPwGE6IxC9M4775yfcoGWr95tNVZvvvlm85k7ogWgYxICEIAABCAAgawEvBBtTW91dke0NTAI0azzBGMQgAAEIAABCBQggBDlRLRAWmESAhCAAAQgAAEIaAIIUYSozhJqQAACEIAABCAAgQIEEKJzClF/RzMam4WFBdNk8+bN5vM111xjPh85csR8fvHFF83n3bt3m898NR+NSF31L7vsspBD27dvn1rf21P1Q50PoPLQ+XQ9vmj++hQiP/NOqq7jn9d7rA2dgBKiSm99+tOfNoiuu+4689nrrTVr1pjyV155JUlv9XZHVIFRiYMQVYTGXR7dyNXGzUY0PZ+Gzqfr8UXzFyFadr3rOv5lR4P1oRFAiHIiOrScHsR4ohs5QjQt7EPfqLseXzR/EaJp+atadx1/5Q/lEFhKACGKEGVGVEggupEjRNOCOPSNuuvxRfMXIZqWv6p11/FX/lAOAYToLwnM/IpP//imhx56yGTS0aNHzefVq1dPzTR1p+Hhhx827c877zzz+cCBA+bzfffdZz5zR7Stia42ittvv33qgPbs2WPKvTD19jdu3GjqX3755W0BK+yt5906n67jr/pT4VP5rNpTbgmoeLSe38S7bQLqRDSqt5S+UrS8nlN6q7c7olEwfuAKFEJUpcqwyhGidcUTIZoWDyV8lHWEqCIUK1fxQIjGeFI7LwGE6JxfzSNE8ybi2K0hROvKAIRoWjyU8FHWEaKKUKxcxQMhGuNJ7bwEEKII0bwZhbW5CCBE58JWrBFCNA2tEj7KOkJUEYqVq3ggRGM8qZ2XAEJ0RiF6xx13GPL+q3P/OCb/3M8rr7zStL/hhhvMZ/84qLe//e2m3Nv78Us/NuX3/TV3RPNOjW6t5d4ovJDyG7u/I+rL/ejVj6F8/eiPVZR9ZU/diY3aj9ZX2aLsdc2v9B1hFa8oL/WHQbS/vuPRdbyjvLv2T83f1PVIjZ/yfgl4IZqqt1auXGkGtGXLFvP5lltuMZ8PHjyYpLc6uyOaCgYh2m+i1947QjT2QH61MakTZrXRKqHSmvDJnV9qPkX5qHgiRC2hrvMzGs+ofwhRNaOGXY4Q5UR02BneyOhyCwVORO2bqVI3RiVcVZqp/kvbz51farxR4YIQLfsmNRUvlZ/ReEbtIURVhIZdjhBFiA47wxsZXW6hgBBFiC5N/dz5paZVVLggRBGi0/JV5YfKR8rrJoAQnVGI+ueI+jud6pWdV199tcmERx55xHw+99xzzWd/x8Hbf+mll0z9nTt3ms88R7TuiadOwHLf4VPCwJ9IKCGrTjCUPT9+9eMUJaSi7ZX/6g5t7vGpbG3tObIqXmq8qfFM5aX8S7Wvro6k2o+uL9H5mOpf6fVIxY/yugioHyspveX10aFDh8wAV61aZT77O6PXXnutKY/qrc7uiCJE60rcoXmjNu7UX7WWXvhLb6yKT6pwSbWfujGrfE61r8aXml+pwicqhErnW9fxKP2HjYp/lH/ufFQnntE/jFX8KK+LAEKUE9G6MnKk3qiNIlUoIESnf1Wv+Cuhm7oxq7RPta/Gl5pfCFFLQOVL10JaxR8hqmYg5SUJIEQRoiXzC9szElAbRapQQIgiRJemYu6rHwhRhOhSAlEhzonojBvFQKshROcUot/+9rdNSvg7nYcPHzblmzdvNp+vv/5683ndunXms7/j4PPvueeeM/907733ms/cEW1rxnYtRL0Q8bS88FX+qeeQRqOh7mjWVh79QyH344g83yifqP8qnipfVH+qfel8U/mvxt91PKL5pP4QUfxzxy+6Hnm+avzReFG/WwJKiEb11vHjx80A/CvVb731VlPu15P169ebcqW3ersjGgWDEO02sVvrLXXhV+NV9hGiewyC0kJObZzqBFvFu7T/qn+Vb7mFjPJHlUeFmbKHELXfQETzUa1HCNFoBtZdHyHKiWjdGToS71I3boVJ2VcLv2pf+oQq+mao6MaXal8Jq+jGiRCNCRmV/6ocIXq5QaTmu8p31V7NN7UeReeTij/l/RJAiCJE+81Ael8koBZutfArjMq+WvhVe4So3chVPDgRnc6r73zjq/npfwio9SgaP76aVyvGsMsRonMKUf9cK5Um/g7pFVdcYZpcd9115rN/jtXq1atN+bPPPms+33PPPeYzd0RVROoqVwt3dOGPPiczaj964phKW52geP/V416i/kf79+NVv5JW5dFfzUfHp+IfjV/ufI6OJ+qvr69+bNN3PFS+qPyLngCr+tH+UudTanxpXxcBJUSjesvfCfX66uGHHzYAzj//fPM5qrd6uyMaBYMQrSvxa/Mm98aNEL3dhFhtfKnlSsgp4aDK+xY+0fmSO58RojYCKl+iwlCdACNEozOA+hECCFFORCP5Qt1CBHJv3AhRhOjSVFVCWwnpaNrnzmeEKEI0moPUb4cAQhQh2k62DtjT3Bs3QhQhihCdf8Hgq/l+74jm/sNo/kygZRcEEKIzCtE77rjDxMPfMTh27NjUePmv5n1lf6fhlltuMVWOHDliPr/wwgvmM++a72K6dNdH9FfT6hWBqSdiUaEc9d+TrU1Iq68uVWao+KTa9/2rr1KjX+2q8aV+FZzaPne+KX+iPKLxUPaj+aTG4+2p+qn+pa5Hqn/K2yLghWhUb33mM58xA47eCV2zZk2S3ursjmgUjE8DhGhbE6Nvb6Mbq9qYUhd+hOj0x9uofFHxQYhagn3nW6oQS/3DIHc+qfEgRBVxyksSQIhyIloyv7A9JwGE6HZDLipM1MYbvXOYKhQRohtNSNRXr9F4R+eLz4/cQgwhaudv9CkWKj/mXFZpVikBhChCtNLUHLdb0Y1VCR1ORGMPSO/7q9Ro/FOFjxJi0dkYFZLRPxxS/zBAiNr5oOIfzcfS61E0H6lfNwGE6IxC1L+i0z/H04f5+DH7rtPDR+y759euXTs1M55++mlTfuaZZ06tz7vm655oqd6px/d4++pEQT1QXfkbbR/1X40n2r+3p9qrcmVP8VPxSbWv+Cn7Uf/UeKM8U/3LnW/KHzX+1Hgo+6nxisYnylf5F+1f8aC8LQJeiKbqrWeefSakn6K0vN7q7I5oKhiEaDTU1F9KoLaFP7pxRP1XG3e0fyUk1APxoxupyl5lT/mr7Ct+yn7UP+VP6Xip8Sj/Unn1bT81XtH4ROez8i/af5Q39esmgBDlRLTuDMW7RQK1LfzRjSPqvxIG0f6VUEGI2sddKeEQnZal46XiG/VXjT93Pqf6r/xV44/GJzp+5V+0fzUeytsigBBFiLaVsSP1traFP7pxRP1HiFoCufkp4aOEQ3QaRvMl1b+ueUV5KL5R/5U95V80Prn9i/avxkN5WwQQojMK0U2bNpnIHjhwYGqk/btK/eeDBw9Obe8f9+SfU+qfK7p7925jj3fNtzUR8RYCEIAABCAwRgJeiLamtzq7I9oaGIToGKczY4YABCAAAQi0RQAhyoloWxmLtxCAAAQgAAEIDIYAQhQhOphkZiAQgAAEIAABCLRFACE6oxBtK6wrVvDVfGsRw18IQAACEIDA+Ah4Idoagc7uiLYGBiHaWsTwFwIQgAAEIDA+AghRTkTHl/WMGAIQgAAEIACBKgggRBGiVSQiTkAAAhCAAAQgMD4CCNFlhOj4UoERQwACEIAABCAAAQh0SWBhH0K0S970BQEIQAACEIAABCBwggBClFSAAAQgAAEIQAACEOiFAEK0F+x0CgEIQAACEIAABCCAECUHIAABCEAAAhCAAAR6IYAQ7QU7nUIAAhCAAAQgAAEIIETJAQhAAAIQgAAEIACBXgggRHvBTqcQgAAEIAABCEAAAssK0Q0bNjRNx7/i82Mf+1jT4/nyl7/ctP84DwEIQAACEIDAyQR4oP1I3qyEEGX6QwACEIAABCBQGwGEKEK0tpw8pT+ciDYRJpyEAAQgAAEIhAggRBGioYTpqzJCtC/y9AsBCEAAAhAoRwAhOqMQvfPOO8tFYQ7Lr76a1LS6+eabzWd1R/SrX/3qTL2ee+65M9WbVHrkkUdC9SeVH3rooanjQYjOhZVGEIAABCAAgaoJeCHamt7au3dvEt+Zf6zUGhiEaFJe0BgCEIAABCAAgQ4IIEQ5EZ2aZpyIdjAL6QICEIAABCAwUgIIUYQoQnSkk59hQwACEIAABPomgBCdU4j6O5rRQC4sLJgmmzdvNp+vueYa8/nIkSPm84svvmg+796923yOfjU/uaPp/fjkJz8ZGtott9xi6m/btm3x8yuvvDJ1PC+99JIpv//++81n7oiGwjC6ypdddlnSmLdv357UnsZpBFLj53vPHU/vn7IfHY+yl0aX1hCom4ASokpvffrTnzYDvO6668xnr7fWrFljypU+UXqrtzuiCowKO0LUCmuEqMoYyqcRiG78pYUL0YoRSI1f6XgiRGPxpDYEIgQQopyILuYLJ6KRaUPd2gikChlOpPqNaGr8EKL9xo/eIZBCACGKEEWIpswg2lZBIFXIIET7DWNq/BCi/caP3iGQQgAhOqcQ9c+9PHr0qInD6tWrp8ZF3Wl4+OGHTfvzzjvPfD5w4ID5fN9995nPs94R9b+K93dCf+d3fmfRrhrPpPPHH3/c+OHvjF5//fWL5Z6Xv4Nx7733GjvcEU2Z5sNv64XMxo0bQ4Pes2ePqY8wDeFLrpwaP+XA5ZdfrqqYcvVV/O23327qq/zx9b0zqn3IeSpDoDECSohG9ZbSVwqP1ydKb/V2RzQKxg9cgUKIIkTVZKH8lwRShQxCoN9sSo2f8h4hqghRDoH+CCBEORE12ceJaH+TkZ7nJ5AqZBCi87PP0TI1fsoHhKgiRDkE+iOAEEWIIkT7m3/0nIlAqpBBiGYKxJxmUuOnukWIKkKUQ6A/AgjRGYXoHXfcYaLkvzr3j2Pyz/288sorTfsbbrjBfPaPg3r7299uyr29H7/0Y1N+31/H7oh+5StfWWzv+5nc4VTjWblypel/1apV5vPkTummTZvMv2/dunXxsx/PT378E1Pv3vv4ar6/ZaG9nlN/7OLvhPo7fV7IRPuL3jmN2vcRU/1F7St7qRkT9Sc63qh/ShirfPB3lJUQjvYXHQ/1IVAzAS9EU/WW1ydbtmwxw/e/XTl48GCS3ursjmgqGIToz+OMEK15OWjXt9xCBiFqcwEhutEAQYi2u1bgeX0EEKKciJqs5ES0vkmKR5oAQjQmHKO8EKIIUT0LqQGB+QggRBGiCNH55g6tKiIQFVbedb6anx5MhChCtKLpjisDI4AQnVGI3nnnnSb0/k6nemXn1Vdfbdo/8sgj5rN/nqe/4+Dt+1di7ty509ib9zmiy52I+v4PHTpk+vN3RCfP4fJXEiZfzXt7P/6xvfO6Y8cOY5/niA5s5ck8HHXHLtqdutPn7aU+JzL63Erfv/+xlb+jqH6Mlep/lK+qr/xR448K5yh/lR+pfxhF75gqnpRDoGYC6sdKSm9F9Ym/M3rttdcaPFG91dkdUYToggkUQrTmaT0+3xCie0zQEaLbQ5MAIRrCRWUIZCWAEOVE1CQUJ6JZ5xfGOiKAEEWILk01TkQ7mnh0A4EMBBCiCFGEaIaJhIl+CSBEEaII0X7nIL1DYF4CCNE5hei3v/1tw9zf6Tx8+LAp37x58ykF3+Qf161bZ8r9V98+wM8995z5J/9u9lnviPq7WP75Wtu2bVvsx4/n+PHjpv/JnYorrrjC/Lt/U9Ob3/zmU+bq888/b/79nnvuMZ+5IzrvFB9HOyVE1Z2+KKXcdwDVHU/lvxq/tx8dr69f2x1GNX71uKXoj9Wi/NSd19T4R/2hPgRqIqCEaFRveX3iX6l+6623muH7+bd+/XpTrvRWb3dEo2AQoj+PK0K0puk/HF+iQiR15AjRjQahEsqpvFX7aPxz3wlV/iFEFSHKx0wAIcqJqMl/TkTHvBy0O/aoEEkdKUIUIRrJIYRohBZ1x0YAIYoQRYiObdYPcLwI0ctMVNWv5lNTgK/mYwQRojFe1B4XAYTonELUP9dKpY2/Q+rvUl533XXGhH+O1eTd7ZNKzz77rKnv71TOekd0YuShhx5a/L+PP/74VGGqxunvhPoT1htuuGHRhB/Pj370I2N6165d5jN3RBX5cZeXFqLRr3J9NKJ3ALs+cU3NntSv5hVf5V80/tH6qv9ouRqvesVstD/qQ6BmAkqIRvWWvxPq9dXDDz9scJx//vnmc1Rv9XZHNAoGIfrzOCNEa14O2vWttLCICgeEaCyXFF9lLRr/aH3Vf7RcjRchGiVK/ZYJIEQ5EV3MX05EW57G+F5aWESFA0I0lpOKr7IWjX+0vuo/Wq7GixCNEqV+ywQQoghRhGjLMxjfFwmUFhZR4YAQjSWm4qusReMfra/6j5ar8SJEo0Sp3zIBhOiMQvSOO+4wcfZ3DI4dOzY1D/xX876yv9Pg71YeOXLENHnhhRfM5+i75r/yla+Y9vv37zefJ+P5+7//+1B+v/GNb1ysP7nj+thjj5n2flw33njjYvmBAwdMPd41H8I++spdC4vcdzjVHcvcP3ZJ9T/65qJogkb9U88B9Xd0VX0VDzUe5X/p/pV/lEOgJgJeiEb11mc+8xkznOid0DVr1pj2Ub3V2R3RKBgfZIToz4kgRGua/sPxBSG6xwRT/apdCSWVGQjR6YQUX4SoyjDKx0QAIcqJ6GK+cyI6pmk/vLEiRBGiS7PanyBzIjq8Oc+IhkMAIYoQRYgOZz6PdiQIUYQoQnS005+BN04AITqjEPWv6PTP8fR5cPyYfRf74SP23fNr166dmjpPP/20KT/zzDOn1o++a96Pxz/HM/d4Jvb+4R/+wZj2X9VfddVVi+W8a77xlaVn97v+sYe6w6lwpL4LPvWr3lT/U+9UKj5R/5Q/teWH8lfxoRwCLRPwQjRVbz3z7DMh/RRl5/VWZ3dEU8EgRH8eaoRoNOWpPw+B2oSGGgNCdDohhKjKIMoh0C4BhCgnoovZy4lou5MYz08mgBC93UBRJ25RoeeJK/upORr1T/lTW34of1P50R4CNRNAiCJEEaI1z1B8m4tAbUJDDYITUU5EVY5QDoGhEkCIzihEN23aZHLAP/fSJ4h/V6n/fPDgwak55R/35J9T6p9ztXv3bmNPvWvej+fFF1+c6k+p8fiv6k877bRFP+6//37jD++aH+oSxLhORSB6Atj1CSVRgwAEIJCLgBeiremtzu6ItgYGIZprimAHAt0TQIh2z5weIQCBfgggRDkRXcw8TkT7mYD0CgFORMkBCEBgzAQQoghRhOiYVwDGXiUBTkSrDAtOQQACBQggRGcUogXYFzWpvpov2nkB49wRLQAVkxCAAAQgAIGeCXgh2rM74e47uyMa9qznBgjRngNA9xCAAAQgAAEISAIIUU5EZZLUUIET0RqigA8QgAAEIACBvAQQogjRvBlVyBpCtBBYzEIAAhCAAAR6JIAQXUaI9hgTuoYABCAAAQhAAAIQGAGBhX0I0RGEmSFCAAIQgAAEIACB+gggROuLCR5BAAIQgAAEIACBURBAiI4izAwSAhCAAAQgAAEI1EfgF0L00Ucfrc87PIIABCAAAQhAAAIQaJbAWWedNdV3hGizocVxCEAAAhCAAAQgUDcBhGjd8cE7CEAAAhCAAAQgMFgCCNHBhpaBQQACEIAABCAAgboJSCH6hS984fjPhrBhw4a6R4J3EIAABCAAAQhAAAJNEfDvovfCdAEh2lQ8cRYCEIAABCAAAQg0QwAh2kyocBQCEIAABCAAAQgMiwBCdFjxZDQQgAAEIAABCECgGQJSiD722GOLd0RffvnlZgaFoxCAAAQgAAEIQAAC9RP4yU9+Ypx8/vnnzecFhGj9QcRDCEAAAhCAAAQg0CIBhGiLUcNnCEAAAhCAAAQgMAACCNEBBJEhQAACEIAABCAAgRYJIERbjBo+QwACEIAABCAAgQEQQIgOIIgMAQIQgAAEIAABCLRIACHaYtTwGQIQgAAEIAABCAyAAEJ0AEFkCBCAAAQgAAEIQKBFAgjRFqOGzxCAAAQgAAEIQGAABBCiAwgiQ4AABCAAAQhAAAItEkCIthg1fIYABCAAAQhAAAIDIIAQHUAQGQIEIAABCEAAAhBokQBCtMWo4TMEIAABCEAAAhAYAAGE6ACCyBAgAAEIQAACEIBAiwQQoi1GDZ8hAAEIQAACEIDAAAggRAcQRIYAAQhAAAIQgAAEWiSAEG0xavgMAQhAAAIQgAAEBkAAITqAIDIECEAAAhCAAAQg0CIBhGiLUcNnCEAAAhCAAAQgMAACCNEBBJEhQAACEIAABCAAgRYJIERbjBo+QwACEIAABCAAgQEQQIgOIIgMAQIQgAAEIAABCLRIACHaYtTwGQIQgAAEIAABCAyAAEJ0AEFkCBCAAAQgAAEIQKBFAgjRFqOGzxCAAAQgAAEIQGAABBCiAwgiQ4AABCAAAQhAAAItEkCIthg1fIYABCAAAQhAAAIDIIAQHUAQGQIEIAABCEAAAhBokQBCtMWo4TMEIAABCEAAAhAYAAGE6ACCyBAgAAEIQAACEIBAiwQQoi1GDZ8hAAEIQAACEIDAAAggRAcQRIYAAQhAAAIQgAAEWiSAEG0xavgMAQhAAAIQgAAEBkAAITqAIDIECEAAAhCAAAQg0CIBhGiLUcNnCEAAAhCAAAQgMAACCNEBBJEhQAACEIAABCAAgRYJIERbjBo+QwACEIAABCAAgQEQQIgOIIgMAQIQgAAEIAABCLRIACHaYtTwGQIQgAAEIAABCAyAAEJ0AEFkCBCAAAQgAAEIQKBFAgjRFqOGzxCAAAQgAAEIQGAABBCiAwgiQ4AABCAAAQhAAAItEkCIthg1fIYABCAAAQhAAAIDIIAQHUAQGQIEIAABCEAAAhBokQBCtMWo4TMEIAABCEAAAhAYAAGE6ACCyBAgAAEIQAACEIBAiwQQoi1GDZ8hAAEIQAACEIDAAAggRAcQRIYAAQhAAAIQgAAEWiSAEG0xavgMAQhAAAIQgAAEBkAAITqAIDIECEAAAhCAAAQg0CIBhGiLUcNnCEAAAhCAAAQgMAACCNEBBJEhQAACEIAABCAAgRYJIERbjBo+QwACEIAABCAAgQEQQIgOIIgMAQIQgAAEIAABCLRIACHaYtTwGQIQgAAEIAABCAyAAEJ0AEFkCBCAAAQgAAEIQKBFAgjRFqOGzxCAAAQgAAEIQGAABBCiAwgiQ4AABCAAAQhAAAItEkCIthg1fIYABCAAAQhAAAIDIIAQHUAQGQIEIAABCEAAAhBokQBCtMWo4TMEIAABCEAAAhAYAAGE6ACCyBAgAAEIQAACEIBAiwQQoi1GDZ8hAAEIQAACEIDAAAggRAcQRIYAAQhAAAIQgAAEWiSAEG0xavgMAQhAAAIQgAAEBkAAITqAIDIECEAAAhCAAAQg0CIBhGiLUcNnCEAAAhCAAAQgMAACCNEBBJEhQAACEIAABCAAgRYJIERbjBo+QwACEIAABCAAgQEQQIgOIIgMAQIQgAAEIAABCLRIACHaYtTwGQIQgAAEIAABCAyAAEJ0AEFkCBCAAAQgAAEIQKBFAgjRFqOGzxCAAAQgAAEIQGAABBCiAwgiQ4AABCAAAQhAAAItEkCIthg1fIYABCAAAQhAAAIDIIAQHUAQGQIEIAABCEAAAhBokQBCtMWoZfB5y5YtGawMx8Qll1xiBrNr167hDC7DSDyfCy64IINVTIyVAOuPjTzrz/SZwPoz7JUCITrs+C47OjYCNoJI6rMRRGhRVxFg/WH9UTmytJz1J0KrvboI0fZilsVjNgI2gkgisRFEaFFXEWD9Yf1ROYIQjRBquy5CtO34ze09GwEbQSR5EKIRWtRVBFh/WH9UjiBEI4TarosQbTt+c3vvNwIvNOY23GjDz372s8bzd77zneYzfCyf/fv3NxrpOtw+//zzjSNj48n6Y/OQ9Wf6vPR8xjZf6li1ynmBEC3HtmrLbARsBJEEZSOI0NJ1EaL2x5L8occfwtNmDeuPXlNaroEQbTl6Cb4jRGNCdN9fHVtscO3ffOiU1D/z3h2nLJ/8u2+0nJ2EkBZtykaQFy9CFCG6NKM4EeVENO8K05Y1hGhb8crmLUIUIRpJJoRohJauixBFiCJE9TyZ1GD9mZ1VizURoi1GLYPPUSHqnxv50EMPTfVClacOwfujnmup/FEnEpMT0Ynf/kTTn4hOPn/g3//WYhPv36T8/7x8/WL55z//eYMkOh7FI2rfx4eNIDVjbXsvRL31od+Bi64/USj12/MAACAASURBVPpqvkft+fpqfkbtq/Un99WF6HquxpPbHuuPIj6scoTosOI582iiG0F0oel6I1Abg/JHbQQIUX6sNPPkmqEiQrTsiaia7zOEaGoVtd5E7av1ByHK+hPNqZbqI0RbilZGXxGiFqbaCPwd0eVOQCcnpepE1G9k0RNLv9FyIppxcnRgCiGKEF2aZmr9QYgiRDtYlnrrAiHaG/p+O0aIIkQjGchX8xFaui5CFCGKENXzZFKD9Wd2Vi3WRIi2GLUMPucWov6E7qKLLjJeXnjhhVO9/vrXv27KFxYWpta/7bbbTPmll16aREWdSCz3q3n/q/i+TkT/4i/+wozfx0OdoCp4tW0ESsip8dRe7p9ju3Xr1tpdDvkXXX+U8aGvP7lPRD3P6NWraH0VP1Ve2/qj/KU8RgAhGuM1mNrRjUAtPEPfCBCidX01hhBteymKrj9qtENffxCida0/Kh8pjxFAiMZ4DaZ2dCNAiMaeI9r1HVFORAczNRcHwoloLJ4I0RgvTkTTeNE6LwGEaF6ezVhDiNpQzfvV/MRK9PFNuX+shBBtZurN5ChCdCZMv6iEEI3xQoim8aJ1XgII0bw8m7EWFaJq4fK/+v7c5z43lcUjd91lys847TTz+fnTTzefjx8/bj5/8YtfNJ/9HVF1guudiwpRv/Hd85fPLZqcPDfUf/b9qfKuE+mZZ56ZyrO2O1pD/2r+6quvNvHYtWuX+dz6ndHU9cfPDz8f1fqj+J1zzjlJ6090/qr1h6/m+Wo+mlMt1UeIthStjL6mbgTqRE9tBAhRK1wzhnYuUwjRubAVa4QQjaFFiMZ4qYMF9RzW6B/6ad6tWFHbH8Kp46G9JYAQHWlGIERt4NWJhP+xkjoRnVifnHz6NJucnNaSfgjRWiLxcz8QorF4IERjvBCiabxonZcAQjQvz2asIUQRoksJIETrmroI0Vg8EKIxXgjRNF60zksAIZqXZzPWokJUfRWjNoLf/u3fNmzuv/q/mM9nuDuhP1y7zpT3fUfU39Hy4/3DP3qb8Xft2jXm88pVq8xn/5zUle65qQsr7XNUff3oZ8/v6JGjxp9bb7zbfPZ3bmv7amxsd0T9wtL6ndHo+qMW1uj6c8UVV0w1OfY7ooq3L1df5Uft+fq1rT+p46G9JYAQHWlGRDcChOglJlMQovt7nTkI0bZ/vBRdf1SyIUQVoenlfn2PWkOIRolRfykBhOhI8yG6ESBEEaJLp8r+/QjRkkuH/2qeE9HptBGiadmIEE3jR+s0AgjRNH7NtkaI2tCpHyvx1Xxdj0/hRJQT0aUzGCGathUhRNP40TqNAEI0jV+zrUsLUf9c0Te84Q2G1f+4/nrz2T9H9PHgu+ZvvvnmqV+dq0ClCtF//p5zTRfrXrPWfD7008Pms78Detppr7Pl/s6o++zvlL7yysGp7V/7uteY8sOHrD/XX32HKa/9juj27dtVSKsu37Zt21T/1Ilo6yek0fVHBdMLUbX+qDuiZ5999tQub7vtNlP+kY98RLk4tTy6/iR1dorG6hsv3yRaP9Vf7oimEqy7PUK07vgU8y66EaiFJ7oRIETtj5EQorFUR4haXq39eCm6/qjsiK4/CFFLVK3vCFGVgZSnEECIptBruG10I1ALVXQjQIgiRFOmD0IUIbqUQHT9QYgiRFPWH9rmJYAQzcuzGWsIURuq6FdjfuPjq/luUx8hihBFiOabc+qggRPRfKyxdDIBhOhIsyIqRNVCpN41758j+o1bbjEmT3+dvSP5o1/9VVP+8ssvm8/+XfM33XSTKY8+TiRViF508dtN/8eOHbfjO+M083nlypXms7/j6b+qX+meK3pyfWvfX7G9+6u7TX//+pL3mM/X/uV/NZ9rvyM69h8rqWWr9q/qU9cfP/7cP1Z697vfHVp//HxR8fHl0fUnal+t39H1srQ9xafvp3ak8qe9JYAQHWlGpG4E0XfNI0QRojmnGkJ0Ok2E6OcMIL/+qK/mEaKx2Ro9UY1Z513zUV6t1UeIthaxTP4iRC3I6ImEP0HgRDRTYs5oBiGKEF1KgBPRGSfOiWq5hWNue5yIxuLZem2EaOsRnNN/hChCdCkBvpqfcyIVahZ9fJN3gxNRTkSnpWZu4ZjbHkK00MJSqVmEaKWBKe1WVIiqhcafSOzYscMM4amnnjKff/S//5f5fPoZZ5jPT6+zz730ierviHZ9R+ukE9H3vsP4f9zdET3jV/wdTntH9OBB+xxQ9Tingwd/avrz9VessL/Kv/ur95v6/o7oNf/5dlPOHdHSM3C6/VQh6q3/v3/8R/NP/+I99o5w16ONrj/Kv+j6s3Xr1qkmL7zwQlNe2/qjePhytX6n1s/dHiEajXDb9RGibcdvbu+jG4FayKIbAUIUITp38r7akK/mY/QQovYPYYToQ1MTSK33KvtS2yNEFeFhlSNEhxXPmUeDELWoku+IciI6c+7lqIgQjVFEiCJEl2aM+pV8qpBMbY8Qjc3v1msjRFuP4Jz+I0QRoksJ8NX8nBOpUDO+mo+BjX4jw4koJ6KxDKN2SQII0ZJ0K7bdtxA98OCDho6/I/qEe85mbXe0/Mb3L973TjOe17xmnfl86KeHzOeVq+xX8+pO6MoFW9+/q/6kd827O6L+XfOH3Lvmr/5PXzb+cUe038mbKkRrfzd3dP3x0VCPj1N31HML0a6fY6yyM/eJZGp/qf7Uns+KD+XTCSBER5oh0Y1ALSTREwmEKEI0Zerx1fx0erVv3NH1ByF6SWi6qPU6ZGyGyqo/Va66qD2flf+UI0TJgVMQiG4EaiFBiHIi2uVEQ4giRJcS8G9240T0ApMg6k5o6txV+4MqV/0jRBWhtss5EW07fnN7jxC16FJ/rMRX83On4lwNEaIIUYTo8jmQKvyik1L1p8pVfwhRRajtcoRo2/Gb2/uoEFUdRd9s8p277jImz3DPEf3eIXunUr1r/jvf+Y5y0ZT7O3ipQvQ977cnov5d82eccbrp379r/uAr7jmip7/O1F9wL49/5RX7HNHTRf2v3fnXxt4HLvmX5vPn/+OXzOfa74hu3749FO/aKm/btm2qS9E7oq1t1NH1RwmZ6PqT+xWfXa8/PnkUH5X/qe2V/VR/W8vvKI+x10eIjjQDohuBwhTdCBCi7jmiCFGVYqYcIWpxtbZRR9cfJZSi6w9C1OaP4huanDNUjvbXWn7PgIAqSwggREeaDtGNQGGKbgQIUYSoyqlp5QhRhOhSAtH1ByGKEE1Zf2iblwBCNC/PZqwhRK82seKreb6a73Ly8tX8FoP7kkum/ypcnaAhRNN+nKT45p4b0f44Ec0dgbrsIUTrikdn3pQWov5XrG94wxvM2B69917z2T9H9OvPPDOVxSc+8QlTvn//fvP5qquumtp+z549U8vf+U5759NvlH7j83dE/bvmT1d3RE9617x9N/3Klfbd8f65oSc/h9SeuN51531mvP/mg//KfP78f/ii+Vz7HdGx/1ip9Y1ZrT9KqKjniKr1R52Inn322aH1x9/pfeCBB4quP1E+uX81r/qPbmTKXuv5HuUxtvoI0bFF/MR41UYQxeIXOrURIETVu+YRotNyECH62al/iEXnb9f11fqjhAlCdPoJqOKXGu/c9pU9hGhqxOpujxCtOz7FvFMbQbRjhKg9QeVENJpBsfoIUYTo0ozxf/iqP4Q5EY3NN19bCceodWUPIRol2lZ9hGhb8crmLUJ0z1SWfDV/qeFT20aAEEWIIkR/ScAfBChhl7qR5Lav7NW2/qTyo70lgBAdaUYoIeoXBo/JL3zRHws8/sB/NyZPP81+Ff0/n/qBKT9+/Lj5/MUv2juN/jmkF1988dTI+oVt48aNpv5Bd2dT3RE96YH26+y75n/qnovqnyPq73j6O6H+OaIL7t3z3l9f/7Wvfa0Z35HDh83n1p4jOjYhOrSNOLr+qDuO0fVHnYiec845Wdcfv576/I2uP0q4tbatqfEMLf9bi09pfxGipQlXaj+6ESBE7a96/caHEO020RGi9sd53dJP7y26/iBE7fqjhFt6hLq1oMaDEO02Hl33hhDtmngl/UU3AoQoQnRpDvinFHSd1ghRhOjSnONE9KGup2DW/hCiWXE2Zwwh2lzI8jiMELV37KJfjXEi2q8QQoj2yz91FYquP5yIciJa0x/CqflPe0sAITrSjFAbgcKiHp/yuc99bqqJhe99z5Sf9iu/Yj7/zRNPmM/qjqh67qV3Rj33L3pH9I/e8/umi3Vr15rPK1fZxzX5O6L+88l3Qu1zRKP1besVKw4fOWr8u+7z/818Vjw5EVUzJG9537zzjmbFCrX+qBMy9Q2NWn+2bt06dUjRO6JqvuRef6J8fP+p7VU+RO2r+nw1r4i3XY4QbTt+c3uvNgJlGCFqvwpDiKqMyVs+9BNRTwshOv2rZ/XVvOeJEE17E5OazUpYRoUxQlQRb7scIdp2/Ob2HiFqX/Hp34TCiSiPb5p7chVoiBBFiC5Nq6jQiwq/1BSO+qfqI0RTI1J3e4Ro3fEp5h1CFCG6NLn4ar7YVMtiGCGKEEWI/pLA0OZDlkWiYSMI0YaDl+J6aSF60UUXGfcuvPDCqe5+/etfN+X+jqRvfNttt5l/8ne0fH1/4pn6rvmvfe1rKfiLt/V3ahVP75C689b3RrB9+/biDEt2sG3btqnm++Zbcuw/sx1df9SJmf9qvu/1x/t71VVXGaSp60/XJ5y580HF0/fHiWjuCNRlDyFaVzw68ya6EaiFz79Sr++NACFqXwCAEO1sas3UEUJ0i+HkXxih1hv1Qo2+1x+E6PRpgBCdaZkYTSWE6GhCbQeKEN0zNfLqFZ+ciPb7+CBORNteuKLrjxIunIiW/fFR7mxT8eRENDfxuu0hROuOTzHvohuBOqHgRLRYqOYyzFfzc2HrrBEnopyITks29YewWo/Vc1c7S/RlOkKI9h2BuvpHiNYVj868SRWiaiH81Kc+VXQs3/nOd4x9/1xQ1Xnqu+aj4/d3Lv1C7HmpO6/+RDZa/6abbjJDUBsXd7RURsXK/eOnNm3aZAxcdtllMYON1U5df/z88cPvev3xd3qj8yn6Qg0VbsVHtS9drvj4/ll/SkekX/sI0X7599Z76kYQFWK5B4oQtT+WQojmzrCy9hCisRNRtd4gRC0BhGjZ+Yv1vAQQonl5NmMNIZr2ik+1MaoTTk5Em5kqRRxFiCJElyYWJ6LTpxknokWWoWqMIkSrCUW3jiBEEaJLM059VcZGkHd+IkQRogjR2ecU68/srFqsiRBtMWoZfM4tRDO4lGTCL1TKWOq75pX91Duc0a/ac9f342MjUBGPlftf/Q/9Tqinw/qT9kKNWLa1X5v1p/0YThsBQnTY8V12dGwEZTcChOhIJ9aMw0aIpp2Izoi5s2q1/SHc2cA76ggh2hHonrpBiPYEvu9uEaII0UgOshFEaOm6CFGE6NIs8W9+O3jwoEki9cB/nXFt12D9aTt+ynuEqCI00HKEKEI0ktpsBBFaui5CFCGKENXzZFKD9Wd2Vi3WRIi2GLUMPvsfp0S/WsrgQlET/leoqjP/7md/h3RofBQPVT70d6Gr8VOeRoD1x/Jj/YnlE+tPjFfttRGitUeokH9sBGwEKanFRpBCj7asP6w/KbOA9SeFXn1tEaL1xaQTj9gI2AhSEo2NIIUebVl/WH9SZgHrTwq9+toiROuLSScesRGwEaQkGhtBCj3asv6w/qTMAtafFHr1tUWI1hcTPIIABCAAAQhAAAKjIIAQHUWYGSQEIAABCEAAAhCojwBCtL6Y4BEEIAABCEAAAhAYBQGE6CjCzCAhAAEIQAACEIBAfQQQovXFBI8gAAEIQAACEIDAKAggREcRZgYJAQhAAAIQgAAE6iOAEK0vJngEAQhAAAIQgAAERkEAITqKMDNICEAAAhCAAAQgUB8BhGh9McEjCEAAAhCAAAQgMAoCCNFRhJlBQgACEIAABCAAgfoIIETriwkeQQACEIAABCAAgVEQQIiOIswMEgIQgAAEIAABCNRHACFaX0zwCAIQgAAEIAABCIyCAEJ0FGFmkBCAAAQgAAEIQKA+AgjR+mKCRxCAAAQgAAEIQGAUBBCiowgzg4QABCAAAQhAAAL1EUCI1hcTPIIABCAAAQhAAAKjIIAQHUWYGSQEIAABCEAAAhCojwBCtL6Y4BEEIAABCEAAAhAYBQGE6CjCzCAhAAEIQAACEIBAfQQQovXFBI8gAAEIQAACEIDAKAggREcRZgYJAQhAAAIQgAAE6iOAEK0vJngEAQhAAAIQgAAERkEAITqKMDNICEAAAhCAAAQgUB8BhGh9McEjCEAAAhCAAAQgMAoCCNFRhJlBQgACEIAABCAAgfoIIETriwkeQQACEIAABCAAgVEQQIiOIswMEgIQgAAEIAABCNRHACFaX0zwCAIQgAAEIAABCIyCAEJ0FGFmkBCAAAQgAAEIQKA+AgjR+mKCRxCAAAQgAAEIQGAUBBCiowgzg4QABCAAAQhAAAL1EUCI1hcTPIIABCAAAQhAAAKjIIAQHUWYGSQEIAABCEAAAhCojwBCtL6Y4BEEIAABCEAAAhAYBQGE6CjCzCAhAAEIQAACEIBAfQQQovXFBI8gAAEIQAACEIDAKAggREcRZgYJAQhAAAIQgAAE6iOAEK0vJngEAQhAAAIQgAAERkEAITqKMDNICEAAAhCAAAQgUB8BhGh9McEjCEAAAhCAAAQgMAoCCNFRhJlBQgACEIAABCAAgfoIIETriwkeQQACEIAABCAAgVEQQIiOIswMEgIQgAAEIAABCNRHACFaX0zwCAIQgAAEIAABCIyCAEJ0FGFmkBCAAAQgAAEIQKA+AgjR+mKCRxCAAAQgAAEIQGAUBBCiowgzg4QABCAAAQhAAAL1EUCI1hcTPIIABCAAAQhAAAKjIIAQHUWYGSQEIAABCEAAAhCojwBCtL6Y4BEEIAABCEAAAhAYBQGE6CjCzCAhAAEIQAACEIBAfQQQovXFBI8gAAEIQAACEIDAKAggREcRZgYJAQhAAAIQgAAE6iOAEK0vJngEAQhAAAIQgAAERkEAITqKMDNICEAAAhCAAAQgUB8BhGh9McEjCEAAAhCAAAQgMAoCCNFRhJlBQgACEIAABCAAgfoIIETriwkeQQACEIAABCAAgVEQQIiOIswMEgIQgAAEIAABCNRHACFaX0zwCAIQgAAEIAABCIyCAEJ0FGFmkBCAAAQgAAEIQKA+AgjR+mKCRxCAAAQgAAEIQGAUBBCiowgzg4QABCAAAQhAAAL1EUCI1hcTPIIABCAAAQhAAAKjIIAQHUWYGSQEIAABCEAAAhCojwBCtL6Y4BEEIAABCEAAAhAYBQGE6CjCzCAhAAEIQAACEIBAfQQQovXFBI8gAAEIQAACEIDAKAggREcRZgYJAQhAAAIQgAAE6iOAEK0vJngEAQhAAAIQgAAERkEAITqKMDNICEAAAhCAAAQgUB8BhGh9McEjCEAAAhCAAAQgMAoCCNFRhJlBQgACEIAABCAAgfoIIETriwkeQQACEIAABCAAgVEQQIiOIswMEgIQgAAEIAABCNRHACFaX0zwCAIQgAAEIAABCIyCAEJ0FGFmkBCAAAQgAAEIQKA+AgjR+mKCRxCAAAQgAAEIQGAUBBCiowgzg4QABCAAAQhAAAL1EUCI1hcTPKqAwPr16yvwoh4X3vGOdxhntm7dWo9zeNIcAeaXDRnzq7kUxuGMBBCiGWFiajgE2CjZKIeTzfWNhPnF/KovK/GoLwII0b7I02/VBNgo2SirTtDGnWN+Mb8aT2Hcz0gAIZoRJqaGQ4CNko1yONlc30iYX8yv+rISj/oigBDtizz9Vk3Ab5R/+qY3GX+PLSyYz8fdaI678oXjvoZtYK2tWLHS1fetfX3vj4Lr/Vnt+vP23/rxjxuTF1xwgeqCcggsS8DPrx07dtj5JObLypUrp9b35ar+gpuvvv6xY8dMf6n2jhw5Yuw9+eSTzC/my9wEzj//0lDb/fu/FqpfujJCtDRh7DdJACFqw4YQbTKNq3UaIYoQrTY5G3QMIdpg0HAZAooAQhQhqnKE8vkJIEQRovNnDy09AYQoOQGBARJAiCJEB5jW1QwJIYoQrSYZB+AIQnQAQWQIEPAE/Eb5J295i6mi7nx6e6vcnbd3vetdpsreb33LfFZ3TlXENm7YYKp8Y+9e1WRq+Xkf/agp545oEs7RN/bz6+6777bzy93ZXL16tSn3dzbVHU5/p1PZ8wHy9v2d0qNHj071z9c/7taDp59+mvk14FmRWyhG7Sm06s5otD9lz/vDHVEVIcpHSQAhasOOEB3lNCg2aISo/VMTIVos1aownFvIRe0pCEo4RvtT9hCiKiKUQ+BVAghRhCgToRwBhChCtFx21Wc5t5CL2lNElHCM9qfsIURVRCiHAEL0pBzgRJRpkZMAQhQhmjOfareVW8hF7Sk+SjhG+1P2EKIqIpRD4BRC9CPuOaL+OZvqTqcv3+DucO558MGp3NWd1I1/8Aem/e++9a3m8/f/9m/N5z3794f6+72PfczU544o0ySFgPqx0qpVq4x5f6fT37k8dOiQqa/ujHr73p5v7++A+juenoUq9/WfeeYZ5ldKQlXeNirkKh+OdA8hKhFRAQKagN8oEaIIUZ011JiVAELUkkKIzpo5bdZDiE6PGz9WajOv8bowAYSoPcPlRLRwwo3MPEIUITqmlEeIIkTHlO+MNRMBhChCNFMqYeYUBBCiCNExTQyEKEJ0TPnOWDMRUEL0Xe9+99Se9rjndm7YuNHU37Nnj/ns75xGh+GfG3qWuyP66He/a0w+6PpX77L/Z5dfbtpzRzQaIeovJeDn165du6YC8nc6fWV/h9N/9ndA/Wdvz9/xVHc+1bvqVfsf/vCHzK8BT5HSQjR6J7M2f/hqfsDJz9DmJ4AQtewQovPnEi1PJoAQtUwQosOeJbUJv9r8QYgOO/8Z3ZwEEKII0TlTh2YzEECIIkRnSJPBVKlN+NXmD0J0MKnOQHISQIgiRHPmE7YsAYQoQnRMc6I24VebPwjRMc0GxjozAb9RfvjNbzZtj7t3YXvD0Tub/k7pzI6eqOifM+qfU7rX31l1zzFdceyY6fLBb37TfOar+WhEqD+NgJ9f9957r6mu3u3u71z6+r7v6B1Rb0/d8fTvsl+7du3U8Xj/nnjiCfNP3MEe9vyJCsHoHdBUel37hxBNjRjtB0kAIYoQHWRiVzIohKgNBEK0ksTsyI2uhV50WF37hxCNRoj6oyCAEEWIjiLRexokQhQh2lPqVdFt10IvOuiu/UOIRiNE/VEQQIgiREeR6D0NEiGKEO0p9arotmuhFx101/4hRKMRov4oCOQWom896yzD7Xvu3e/fdHc4j7k7qH/o73S68m+49u/277J35T6I/jmivvy8j37U/BN32EYxDYoNMvpjJX9H09/JVHc6fX3/XNLDhw+bsao7oR6Mt6+eU+rrP/nkk8yvYtlWn2El9Lq+E9o3IYRo3xGg/yoJIERtWBCiVaZps04hRFea2CFEm03luRxHiFpsCNG50ohGQyeAEEWIDj3H+xwfQhQh2mf+9d03QhQh2ncO0n8DBBCiCNEG0rRZFxGiCNFmkzeD4whRhGiGNMLE0An4jfJS/xxRAcC/O/4P/bvm3Z3Nk54D6uq/9S1vsT0et7c6v/v975ty/9zQVa6+789uiytWHF5p/4XniA4947sdn59fO3fuNA5EnwvqvVfPDV23bp1pcujQIfPZ3xFNfXe9ujP61FNPmf65g91tPpbuTQlP3z93RJ83SBYee+yxxR3v5ZdfLh0r7EOgGgIIUYRoNck4QEcQojaoCNEBJvmSISFEp8eXO6LDzn9GNycBhChCdM7UodkMBBCiCNEZ0mQwVRCiCNHBJDMD6Y4AQhQh2l22ja8nhChCdExZjxBFiI4p3xlrJgKpQlS5seFd7zJV/J3Sve5d76nPEd27Z4/pz7+L/luu3D9X9Pc+9jHTnjtsKsKUTyPg59eOHTtM9ehzPP0dTP+cTu+Lf46ob+/vhPrPq1evtvPXPdfX1/f9+zuwTz/9NPNrQFOma+EZ7a9r1OrOK1/Ndx0R+muCAELUhgkh2kTaNuMkQvSYiRVCtJnUncnRqDBUQk11Gu1P2ctdrsaHEM1NHHuDIIAQRYgOIpErHQRCFCFaaWpmcSsqDJVQU05F+1P2cper8SFEcxPH3iAIIEQRooNI5EoHgRBFiFaamlncigpDJdSUU9H+lL3c5Wp8CNHcxLE3CAJKiEYH6e+E+jugUXuq/oYLLjBVvuXunF7g3kX/zQcfNPX9ndVzuCOqkFMeIODn1913323zz9259Hc41bvnvSv+TmbUnm/v76CuWbPGdKmeQ+rt/fCHPzTtuYMdSKYKq0aFoRJqaojR/pS93OVqfAjR3MSxNwgCCFEbRoToINK6mkEgRO2JKEK0mtTM4khUGCqhppyK9qfs5S5X40OI5iaOvUEQQIgiRAeRyJUOAiGKEK00NbO4FRWGSqgpp6L9KXu5y9X4EKK5iWNvEAQQogjRQSRypYNAiCJEK03NLG5FhaESasqpaH/KXu5yNT6EaG7i2BsEgagQ9c/d3ODfFX/WWYbLo9/9rvm8xz3H00P0dzb9u+JVff8c0m/654a6O3mrjtmN8uyPf9x0wR22QaR5b4NQQtQ/p9PfyVTP6fTPCfX1/R1Nf6fTt/fl/o6pr3/SfHTzy7/bnsc39ZaKRTqOCkMl1JST0f6UvdzlanwI0dzEsTcIAghRhOggErnSQSBED5nIIEQrTdQ53YoKQyXUlBvR/pS93OVqfAjR3MSxNwgCCFGE6CASudJBIEQRopWmZha3osJQCTXlVLQ/ZS93uRofQjQ3cewNggBCFCE6iESudBAIUYRopamZxa2oMFRCTTkV7U/Zy12uxocQzU0ce4MgXNN6LAAAHOdJREFU4DfKP3nLW0Lj2uie0/nWt73NtH/00UfNZ3VHVHXu75Ce1P/v/q4x8V13R/XBvXtNub/z+vuXX27KuSOqIkL5NAJKiPo7l+rOp3qup7oj6u+M+juq0eeCqnfd8675cc2PqFBUwq1reqX9R4h2HVH6a4IAQtSGCSHaRNo24yRClDcrNZOsGRwtLeQyuDjVRGn/EaKlI4j9JgkgRBGiTSZuI04jRBGijaRqFjdLC7ksTk4xUtp/hGjpCGK/SQIIUYRok4nbiNMIUYRoI6maxc3SQi6LkwjR0hixD4EYAb9RfkjcEd3onhvq73z68r3+OZ7CPfUc0ePuOYX+OaZv888xdXdUv+H88f2d+9GPGg+5IxrLJ2pbAn5+7dq1y1SIPufT3yFV75L35T4+/o6nf+6n90/F19vz/j7xxBPMLwVxQOVKmLZ2RzTVX05EB5TcDCUfAYSoZYkQzZdbWFqxAiG6yqQBQnRcswIhauONEB1X/jPaGQkgRBGiM6YK1eYggBBFiM6RNoNpghBFiA4mmRlIOQIIUYRouezCMkIUITrmWYAQRYiOOf8Z+4wE1APtv/r97y9a+siJu6P+Xe57TzyX82sn6vlub920yfzT5N3x/+7WW0/p4aXujurkDugnbrnllPX/xD039O7vfW+x3rY/+7PF//o7rOoOKo9vmjFxqDYTAT+/7r//ftPufe973+Lne+6555T2Js/1vOSSS05Zvtyd0w996EOnrP/AAw+Yf5/cAZ344Rvt3LnT/NMHP/jBxc/+3yeV1HNO/+7v/s7Y4w72TGnUbCUlRP3AUu9gRkF17R9fzUcjRP1REECI2kfaI0RHkfadDRIhusawRoh2lnpVdNS10IsOumv/EKLRCFF/FASWE6KTk9AJhMmv4T/85jcbLp/Ytm3x8+Qk8//++q+b8smJ5ORkdFL/C5/4xGK9rz322CnrT+xNTlpv/eQnF+vd5U5eJ/YnJ6OTE9GJv7/x0kvGPieio0jraga5nBD1J5CTfP3zP/9z4/sHPvCBxc+Tk8+bbrrplPNlUj45Od2xY8divVvcNwmT+TI5Gb344osX6+3evXvxv9dee+0p7U9OQCcnohN//+zENw+TRpyIVpN6VTjStdCLDrpr/xCi0QhRfxQEEKKciI4i0XsaJEKUE9GeUq+KbrsWetFBd+0fQjQaIeqPgsCsX81PTkD+yYsvGi6TE8tJ+eRkctPNN5t6k/LJicwvTlhP3An1d0CXq//6E/0vd2Lr7V/6pjfZE54HH5waV76aH0XadzZIP7/uu+8+0/cf//EfL36e5PuWLVtM+fvf/35TPjmBnJxMTiovN18+eeKbBH9ndLn6n/rUpxZN+jupy9X3J7j+XfX+OaJPPvmkGR93RDtLxU46igq7qFPRO6S1+YMQjUac+qMggBC1YUaIjiLtOxskQtT+ah4h2lnq9dJRbcKvNn8Qor2kJZ3WTiC3EJ2cSE5+tT45GV3uROUXd0hPnNxMTkZV/cmv+Ccno8vV50S09gwctn+5hehkvix3Z9N/IzD5PLkzOjkZVfPL3znlRHTYeZprdLUJv9r8QYjmyjTsDIoAQpQT0UEldGWDQYhyIlpZShZ1pzbhV5s/CNGi6YfxVgmoB9r7X6F/2D3n09/t/PCJ53q+8Gu/tohkuROaCS//a3tVf3IS+vyJX+cvV/8Xd1Df+EYTmr3f/Kb57N9dzys+W83kOv3282tyMjnx1v8K/corrzQDee9732s+T05Cbz5xB1vNF/9re1V/8jzTG2+8cer8ncyvzZs3G//Uu+mfeuopU587onXm7bxelRZ+8/pVql30zipCtFQksNs0AYSofaATQrTpdK7OeYSoDQlCtLoUzeoQQnQ6ToRo1nTD2FAI5BKikxOSCZffPPH8zrtOvOlouTtmk/qTX+P7X+H7E5xJff/r+WV/lc+J6FBStclx5BKifn75X8+r+eV/Da/qT34NP3mO6XL1ORFtMi2LOY0QRYgWSy4MD5cAQpQT0eFmd/8jQ4hyItp/FnbnAUIUIdpdttHTYAj4jdI/B3C5gfp3wi/3rnl/p3O554BO+vm3J577+exv/ubiP535wguL//0r9wamSf0/PfGmp+d+4zcW/8m/W345/yd+2cfZr1jB45sGk9pVDGTe+TV5J/2RI0cWxzE5mfSD8nc6/Ulm7vqzzq/J3VT/pqUf/OAHxiXuiFaRptmciApRdccyak8NJHd/yp73h6/mVYQoHyWBeTdKhOgo04VBBwnMO78QokHQVK+CQFQ4KiEXtacg5O5P2UOIqohQDoFXCfiNcvIuef/O+OVg+TctLdduchLq7Ux+/e7//Z+eOAld6QqePnFS6uv/1oEDi/80+RX8cnZ9O+8/J6JMi5wElvtqfvKrd9WXf3PR5Nfsvp2vNynPXX/16tWLprdu3apcXyy/4oorTD1ORGfC1mylqHBUQi5qT4HL3Z+yhxBVEaEcAgjRFQhRpkFJAghRhGjJ/KrNdlQ4KiEXtad45O5P2UOIqohQDoFXCfh3W/t3TI8dEnfYxp4BaeNnfk3nx/xKy6+xtY4K06hQLM2TO6KlCWO/SQJslGyUTSZuI04zv5hfjaRqE24iRJsIE05CIEaAjZKNMpYx1I4QYH4xvyL5Qt3pBBCiZAgEBkiAjZKNcoBpXc2QmF/Mr2qScQCOIEQHEESGAAEIQAACEIAABCDQPQHuiHbPnB4hAAEIQAACEIAABF4lgBAlDSAAAQhAAAIQgAAEeiGAEO0FO51CAAIQgAAEIAABCCBEyQEIQAACEIAABCAAgV4IIER7wU6nEIAABCAAAQhAAAIIUXIAAhCAAAQgAAEIQKAXAgjRXrDTKQQgAAEIQAACEIAAQpQcgAAEIAABCEAAAhDohQBCtBfsdAoBCEAAAhCAAAQggBAlByAAAQhAAAIQgAAEeiGAEO0FO51CAAIQgAAEIAABCEgh+oUvfOH4zzC9/vWvhxYEIAABCEAAAhCAAASyEXj++eeNrbPOOst8XkCIZmONIQhAAAIQgAAEIACBJQQQoqQDBCAAAQhAAAIQgEAvBBCivWCnUwhAAAIQgAAEIAABKUT37du3eEf00UcfhRYEIAABCEAAAhCAAASyEfB3Qr3hBYRoNtYYggAEIAABCEAAAhBYQgAhSjpAAAIQgAAEIAABCPRCACHaC3Y6hQAEIAABCEAAAhCYWYiCCgIQgAAEIAABCEAAAl0S+MUd0S47pS8IQAACEIAABCAAAQggRMkBCEAAAhCAAAQgAIFeCCBEe8FOpxCAAAQgAAEIQAACCFFyAAIQgAAEIAABCECgFwII0V6w0ykEIAABCEAAAhCAAEKUHIAABCAAAQhAAAIQ6IUAQrQX7HQKAQhAAAIQgAAEIIAQJQcgAAEIQAACEIAABHohgBDtBTudQgACEIAABCAAAQggRMkBCEAAAhCAAAQgAIFeCCBEe8FOpxCAAAQgAAEIQAACxYTo+vXrs9Ldt29fVntRY348+BMjmJtfNL+i8SptX9Er3X/r9hU/Xx4dr7Lv8yk1v1PbK38phwAEIFArAYTojJGpbaOozR+FMbe/UWGBELURGjo/hKiakZRDAAIQqIMAQnTGOOQWUjN2u2y12vxR48nt79CFVOvjK+2/yjeEaJQQ9SEAAQj0QwAhOiP33EJqxm4RossQKC10SttX8S/df+v2FT+EaJQQ9SEAAQj0Q6CYEFXDqU3YteZvlF+0vuKhypXQSf2qPHf7VD61ty/tX2n7Kt9Ueap/pe2X9k/5TzkEIACBvgggRGckX9tGEfUnWn9GLDOf2PqKuYWk8leNX5Wn2u+7fenxlbav+KnyVP9K2y/tn/KfcghAAAJ9EUCIzki+to0i6k+0/oxYEKInCKTyLd2+dfu58zH6h5DqvzRf1T/lEIAABFolgBCdMXKpG82M3cxcLepPtP7MjixTka/mY48bS42Paq/KVbxVe1Weal+1V+Wp/pW2X9o/5T/lEIAABPoiMBghqoSPB6xORFqzFx2Pqp87IfveaEv3n2q/dPva7Kv5lTs/VX/R9cHXL80393zEHgQgAIFaCCBE5zzRi25cuTfC6MYXrZ87QYfef+r4Srevzb6aDwjR2Il67vmKPQhAAAJdEUCIIkQ7ybVUIZTqZOn+U+2Xbl+bfYSozejU+KTOD9pDAAIQ6IsAQhQh2knu9b3Rlu4/1X7p9rXZR4giRDtZeOgEAhConkCzQrT0xuojl9pfNBNUf6o82l/p+qX9LS1sSttX+abiE/0qW40n9epJ9F3sXedHlJfin+p/anvlH+UQgAAEaiWAED0RGbUxdb1RqP5UeW0JV9pfJaxUfBWv0vYRousNgtR4KZ612S89P1R+Uw4BCECgLwIIUYRoJ7lXeqMtLRRL21fCSQUpKqzUeDgRVcRteWp+p7aPeUttCEAAAvUQQIgiRDvJxtIbrRJWUaEWFYap9qP9RYViafsqvqnlqUmq+u/bfmn/UsdHewhAAAKlCCBEOxKiSiipAEfv3Cl7XZfn3mhz21NCLbfQzN2f4qHKVT6o9iq/FT9lX/mnymu3X9o/xYdyCEAAAn0RQIgiRDvJvdwbbW57uYVhFGrqeFR7Va78Ve0Roml3XBVfFR/KIQABCLRKACGKEO0kd3NvtLntIUSnp4HijRBFiHaykNAJBCAwOAIIUYRoJ0mthEzUidz2EKII0WgOLq2fmo+p7VN8py0EIACBPgkgRAsJ0dSNRbVX5X0Lq9z9R8cb7b9v+333rxYh5Z8qT7Wv2qvyVP9K2y/tn/KfcghAAAJ9EUCIIkQ7yb3UjbZ0+77t992/SgLlnypPta/aq/JU/0rbL+2f8p9yCEAAAn0RQIgiRDvJvdSNtnT7vu333b9KAuWfKk+1r9qr8lT/Stsv7Z/yn3IIQAACfRFAiCJEO8m91I22dPu+7ffdv0oC5Z8qT7Wv2qvyVP9K2y/tn/KfcghAAAJ9EWhWiHpgfiFXQNVzDVX76MYR9c/3r/xV/qhyNV5Vnjo+Nd6h2Y/GU/FX9rqeL9F4Rf1XPFLHq+wrf2sbvxoP5RCAAAT6IoAQnZN8VNhFNyYlzNRG2/UD8FPHp8Y7NPt9C5koT+Wvykc1zaL2lb1Uf5R95W9pvso/yiEAAQi0QgAhOmekEKIWXHTjVdiVkFbtVXnf9vsWMtF4KX9ThV/Uvopvqj/KvvK3NF/lH+UQgAAEWiGAEJ0zUghRhOi01FFCt28hU1oolbYfnbZRf5T9vuOn/KMcAhCAQCsEehOirQDCTwjkIBD9wyVHn9iAAAQgAAEI1E4AIVp7hPBvEAQQooMII4OAAAQgAIHMBBCimYFiDgKnIoAQJS8gAAEIQAACJxNAiJIVEOiAAEK0A8h0AQEIQAACzRFAiDYXMhyGAAQgAAEIQAACwyCAEB1GHBkFBCAAAQhAAAIQaI4AQrS5kOEwBCAAAQhAAAIQGAYBhOgw4sgoIAABCEAAAhCAQHMEEKLNhQyHIQABCEAAAhCAwDAIIESHEUdGAQEIQAACEIAABJojgBBtLmQ4DAEIQAACEIAABIZBACE6jDgyCghAAAIQgAAEINAcgWJCNPUB3qntm4sEDk8l4PNB4dq3b5+qYspL21fOqP6j40ntT7X35d6/1Pmb2l75H7Ufra/6Ty2P5kuq/6q9KlfjVe2j41X9UQ4BCNRDACFaTyzwZAoBtREpYaTglraf2j9CNPaHRZS34quEkuovd7nK167/MEjlo9pHx5ubN/YgAIFyBBCi5dhiOSMBtREhRGOwozyV9a6Fj/JHlSvh49tH66v+U8tV/LqORyof1T463lS+tIcABLojgBDtjjU9JRBQGxFCNAY3ylNZ71r4KH9UuRI+CFFLQPFS5anxUPmqTrRV/5RDAAL9EUCI9se+6Z5TNx41+FT7qr0qb92/0v6Xtp8an9xCMrc/il9t/qvxq3I13r7bK/8ohwAEyhFAiJZjO2jLqRuHgpNqX7VX5a37V9r/0vZT41ObkFO8VHkqj9LtS9svzUfZpxwCEChHACFaju2gLaduPApOqn3VXpW37l9p/0vbT40PQtQSSOWp2qvy1vJF+Us5BCCQjwBCNB/LUVlK3XgUrFT7qr0qb92/0v6Xtp8aH4QoQlTlKOUQgEAdBAYjRNVldoVbXXaP2lf21Eap/PXlqr/c/ucWCtHxqvrKP1Weal/FNxovVV/5q/xR7aP9d81X+R/1J/d8Uf6p+ET5K3tRf9R6E+Wr/Ms93lR7qbxoDwEILE8AIXqCjVqoSm9MUftqY1ALvZoUUR6qvuovd7naGFW58ifavnR95W/pfFD2o/kR5aXGH7UXnY/R8eX2N2pP1VfltT8lIRpvNV7KIQCBcgQQogjRU2aX2lhrX+iVf6pcTblo+9L1lb9KKKr2Kh+U/a7bp/qDEJ2eEQhRNWMohwAEZiWAEEWIIkRfJVBaKCFEY29GivJSC17UHkIUIapyinIIQCAPgWaFaHRjyYNrdivKP1WuelLtVXmqfdW+dLkSCqnCUvmv7NfOP9U/xSfVft/tU09UFR9Vnjr+3P4rf1R5a+NV/lIOAQjkI4AQzcfSWFILsypXbqn2qjzVvmpfuhwhmkY4NT9U76n2+26fW8gpXqX7K82ztP2++UX7pz4EIDA7AYTo7KxCNdXCrMpVZ6q9Kk+1r9qXLkeIphFOzQ/Ve6r9vtuXFoal+eX2X8VDlbc2XuUv5RCAQD4CCNF8LI0ltTCrcuWWaq/KU+2r9qXLEaJphFPzQ/Wear/v9rmFnOJVur/SPEvb75tftH/qQwACsxNoVoiqhVshUHf8Uu379l3/ylQJNcVH+R9t33V9tTGqcuWval87f+W/Gr8qT7UfbR+tr/xX8z+6fvTdXyqfaHtVX5VHefUdr1R/aQ+BMRNAiM4Y/VRhgRCdEXSmamqjU+XKDdU+NV9K/yGg/FfjV+Wp9qPto/WV/30Lm9zjSbUXba/qq/JofPqOV6q/tIfAmAkgRGeMfqqwQIjOCDpTNbXRqXLlhmqfmi8I0fUGgTqBVPFQ8VTlpe2XFlKp/kfbq/qqXMVDlZe2r/qnHAIQmJ0AQnRGVqnCAiE6I+hM1dRGpMqVG6p9ar4gRBGiS3NACfHUfM3dPjo/UsdXWsgrPpRDAALzExiMEI0iKL1QKvtq4YyOJ7fQVf1Hx6fsKR7RjUr5p8qVv6ntsT+dQJRvtL7inzsfo/3l7j+VT7S9qq/Ko7xy24v2T30IQGB+AgjRE+xyC7nowph6gpbbf5VS0fEpe11vvKn+p7ZXPMZuPzr+aH3FP3c+RvvL3X8qn2h7VV+VR3nlthftn/oQgMD8BBCiCNG5sqf0wp9qX7VX5QpKanvscyKqcmBpeWq+dd1e9afKI2x+Vje3vWj/1IcABOYngBBFiM6VPaUX/lT7qr0qV1BS22MfIapyACE6O6HS83F2T6gJAQhECRQTot6R6FfP6k5g1J73R9lP9T+1PxXI6MKbm1e0fzUeVR71v3R8o/bV+FS+5e4vylP5r/yL9he1p+or/6PlXee/yg+13qT6W1t7Nd5oPKkPAQj0RwAhOiP76EZaeqGMbgy5/Y/2PyPmZatF/Y8Kk9L2o+MvzTc6XuW/4h3tL2pP1Vf+R8tLx0f5o3jmvjOeOt7c7Uuvr4o/5RCAQD4CCNEZWaqFX5nJvVFGF/bc/kf7V3xUedT/KO/S9tX41IlXdDyqv+h4lT3lX7S/qD1VX/kfLe86/1V+KGGW6m9t7dV4o/GkPgQg0B8BhOiM7KMbaemFMrox5PY/2v+MmJetFvU/KkxK24+OvzTf6HiV/4p3tL+oPVVf+R8tLx0f5Y/iyYmoIkg5BCBQC4HOhGgtA67FD7WRKD+73niVP5RDAAIQgAAEIACBKAGEaJRYpvoI0UwgMQMBCEAAAhCAQLMEEKI9hQ4h2hN4uoUABCAAAQhAoBoCCNGeQoEQ7Qk83UIAAhCAAAQgUA0BhGg1ocARCEAAAhCAAAQgMC4CCNFxxZvRQgACEIAABCAAgWoIIESrCQWOQAACEIAABCAAgXERQIiOK96MFgIQgAAEIAABCFRDACFaTShwBAIQgAAEIAABCIyLAEJ0XPFmtBCAAAQgAAEIQKAaAgjRakKBIxCAAAQgAAEIQGBcBBCi44o3o4UABCAAAQhAAALVECgmRFMf2O4J+Xere/u8ez1vTpXmq/KDeOaNJ9YgAAEIQAACNRJAiNYYlQp8QohWEARcgAAEIAABCAycAEJ04AGed3gI0XnJ0Q4CEIAABCAAgVkJIERnJTWyegjRkQWc4UIAAhCAAAR6IFBMiKqxlBY6qv/ay7vmU/rOZtfjqT2++AcBCEAAAhCAwIoVCNFKs6Br4YYQrTQRcAsCEIAABCAwYAII0UqDixCtNDC4BQEIQAACEIBANgII0Wwo8xpCiObliTUIQAACEIAABOoj0KwQVUIt+lWzsqdCp/rz7dVzMlP9Uf6q8tT+U9sr/3KXR+OXGk/lv8oP3z7qf2n7UT6KB+UQgAAEIDBMAgjRE3FNFU65hUCqP6npmtp/avtU/6Pto/GLCq2o/dJCsbT9KJ9ovKgPAQhAAALDIIAQRYieMpNThWRq+66nV1QoRoVW1H5poVjafpRP1/GmPwhAAAIQqIMAQhQhihB9lUBUKEaFVtR+aaFY2n6UTx3LIV5AAAIQgEDXBEYjRKPvqlcneqpcBTK1vbKfWp7qX1R4dS1cUsen+KbaV+1Veap/qfZV/5RDAAIQgAAEfkYAIXoiD3ILVZVetW/0qf4hRNebFEg9gYzmZ2r+pcZf9U85BCAAAQhAACG6JAeiG33qRp3avnT6pvqHEEWIls5R7EMAAhCAQPsEOBHlRPSUWYwQTZvcuflF/1BS3iv/VLmyTzkEIAABCEBgFgII0UxCdBbY0+pEv7pN7U+1TxUifbdX4/Pl0RNcFa+oPeVvbiGq+ivNJ9o/9SEAAQhAYJgEEKII0U5ORJVwU8In2j46XaPCUfkTtaf8RYgqQpRDAAIQgECLBBCiCFGE6KsEosIRITp9uVN8Wlws8RkCEIAABPITQIgiRBGiCFG5suQW6rJDKkAAAhCAwCgIjFaIquiqO46qXNlX5aXtl+4/1f/U9mp8qeXKP1Veun9lv3b/lP+UQwACEIDAMAggRJeJo9qoVXlqepS2r/xL7b/v9mp8qeVqfKq8dP/Kfu3+Kf8phwAEIACBYRBAiCJET0kgVaj03b709FTjU+Wp/qXaT22v/C9tX/VPOQQgAAEItEEAIYoQRYjOMVeV0FLlc3RpmqTaT22v/C9tX/VPOQQgAAEItEEAITqnEPXNoj/m8O27fjxPqr/K/1Q+pX91nTr+qH+l+4vaV/5H7UXzoY3lES8hAAEIQKA0AYQoQjRLjuUWNspeqtNdC63S/UXtK75RewjR1IykPQQgAIFxEkCIIkSzZH5uYaPspTrdtdAq3V/UvuIbtYcQTc1I2kMAAhAYJwGEKEI0S+bnFjbKXqrTXQut0v1F7Su+UXsI0dSMpD0EIACBcRLoTYiOEzejhgAEIAABCEAAAhCYEECIkgsQgAAEIAABCEAAAr0QQIj2gp1OIQABCEAAAhCAAAQQouQABCAAAQhAAAIQgEAvBBCivWCnUwhAAAIQgAAEIAABhCg5AAEIQAACEIAABCDQCwGEaC/Y6RQCEIAABCAAAQhAACFKDkAAAhCAAAQgAAEI9EIAIdoLdjqFAAQgAAEIQAACEECIkgMQgAAEIAABCEAAAr0QQIj2gp1OIQABCEAAAhCAAAQQouQABCAAAQhAAAIQgEAvBBCivWCnUwhAAAIQgAAEIAABhCg5AAEIQAACEIAABCDQCwGEaC/Y6RQCEIAABCAAAQhA4P8DmVJJtCxeEgUAAAAASUVORK5CYII=;" vertex="1" parent="1">
          <mxGeometry x="-2654" y="305.5042857142858" width="674" height="580" as="geometry" />
        </mxCell>
        <mxCell id="TFOJBvLKXQj2atVjrU41-23" style="edgeStyle=none;curved=1;rounded=0;orthogonalLoop=1;jettySize=auto;html=1;fontSize=12;startSize=8;endSize=8;strokeWidth=10;" edge="1" parent="1" source="TFOJBvLKXQj2atVjrU41-21" target="TFOJBvLKXQj2atVjrU41-17">
          <mxGeometry relative="1" as="geometry" />
        </mxCell>
        <mxCell id="TFOJBvLKXQj2atVjrU41-21" value="&lt;font style=&quot;font-size: 40px;&quot;&gt;Hydrogen cell&lt;/font&gt;" style="text;strokeColor=#b85450;fillColor=#f8cecc;html=1;align=center;verticalAlign=middle;whiteSpace=wrap;rounded=0;fontSize=16;strokeWidth=5;" vertex="1" parent="1">
          <mxGeometry x="-2520.5" y="-3" width="407" height="196" as="geometry" />
        </mxCell>
        <mxCell id="TFOJBvLKXQj2atVjrU41-25" style="edgeStyle=none;curved=1;rounded=0;orthogonalLoop=1;jettySize=auto;html=1;entryX=0;entryY=0.5;entryDx=0;entryDy=0;fontSize=12;startSize=8;endSize=8;strokeWidth=10;" edge="1" parent="1" source="TFOJBvLKXQj2atVjrU41-24" target="TFOJBvLKXQj2atVjrU41-17">
          <mxGeometry relative="1" as="geometry" />
        </mxCell>
        <mxCell id="TFOJBvLKXQj2atVjrU41-24" value="&lt;font style=&quot;font-size: 40px;&quot;&gt;Nitrogen&lt;/font&gt;" style="text;strokeColor=#b85450;fillColor=#f8cecc;html=1;align=center;verticalAlign=middle;whiteSpace=wrap;rounded=0;fontSize=16;strokeWidth=5;" vertex="1" parent="1">
          <mxGeometry x="-3256" y="501" width="407" height="196" as="geometry" />
        </mxCell>
        <mxCell id="TFOJBvLKXQj2atVjrU41-27" value="&lt;font style=&quot;font-size: 40px;&quot;&gt;Water source&lt;/font&gt;" style="text;strokeColor=#6c8ebf;fillColor=#dae8fc;html=1;align=center;verticalAlign=middle;whiteSpace=wrap;rounded=0;fontSize=16;strokeWidth=5;" vertex="1" parent="1">
          <mxGeometry x="330" y="521" width="407" height="196" as="geometry" />
        </mxCell>
        <mxCell id="TFOJBvLKXQj2atVjrU41-28" style="edgeStyle=none;curved=1;rounded=0;orthogonalLoop=1;jettySize=auto;html=1;entryX=0.531;entryY=0.99;entryDx=0;entryDy=0;entryPerimeter=0;fontSize=12;startSize=8;endSize=8;strokeWidth=10;" edge="1" parent="1" source="TFOJBvLKXQj2atVjrU41-27" target="TFOJBvLKXQj2atVjrU41-1">
          <mxGeometry relative="1" as="geometry" />
        </mxCell>
        <mxCell id="TFOJBvLKXQj2atVjrU41-30" value="&lt;font style=&quot;font-size: 40px;&quot;&gt;Nitric Acid&lt;/font&gt;" style="text;strokeColor=#d6b656;fillColor=#fff2cc;html=1;align=center;verticalAlign=middle;whiteSpace=wrap;rounded=0;fontSize=16;strokeWidth=5;" vertex="1" parent="1">
          <mxGeometry x="1114" y="-23" width="407" height="196" as="geometry" />
        </mxCell>
        <mxCell id="TFOJBvLKXQj2atVjrU41-32" style="edgeStyle=none;curved=1;rounded=0;orthogonalLoop=1;jettySize=auto;html=1;entryX=0;entryY=0.25;entryDx=0;entryDy=0;fontSize=12;startSize=8;endSize=8;strokeWidth=10;" edge="1" parent="1" source="TFOJBvLKXQj2atVjrU41-31" target="TFOJBvLKXQj2atVjrU41-1">
          <mxGeometry relative="1" as="geometry">
            <Array as="points">
              <mxPoint x="-223" y="-87" />
            </Array>
          </mxGeometry>
        </mxCell>
        <mxCell id="TFOJBvLKXQj2atVjrU41-33" style="edgeStyle=none;curved=1;rounded=0;orthogonalLoop=1;jettySize=auto;html=1;exitX=0.75;exitY=1;exitDx=0;exitDy=0;entryX=0.5;entryY=0;entryDx=0;entryDy=0;fontSize=12;startSize=8;endSize=8;strokeWidth=10;" edge="1" parent="1" source="TFOJBvLKXQj2atVjrU41-31" target="TFOJBvLKXQj2atVjrU41-2">
          <mxGeometry relative="1" as="geometry" />
        </mxCell>
        <mxCell id="TFOJBvLKXQj2atVjrU41-35" style="edgeStyle=none;curved=1;rounded=0;orthogonalLoop=1;jettySize=auto;html=1;exitX=0.25;exitY=1;exitDx=0;exitDy=0;entryX=0.5;entryY=0;entryDx=0;entryDy=0;fontSize=12;startSize=8;endSize=8;strokeWidth=10;" edge="1" parent="1" source="TFOJBvLKXQj2atVjrU41-31" target="TFOJBvLKXQj2atVjrU41-15">
          <mxGeometry relative="1" as="geometry" />
        </mxCell>
        <mxCell id="TFOJBvLKXQj2atVjrU41-31" value="&lt;font style=&quot;font-size: 32px;&quot;&gt;Oxygen Cell&lt;/font&gt;" style="text;strokeColor=#6c8ebf;fillColor=#dae8fc;html=1;align=center;verticalAlign=middle;whiteSpace=wrap;rounded=0;fontSize=16;strokeWidth=5;" vertex="1" parent="1">
          <mxGeometry x="-1007" y="-219" width="407" height="196" as="geometry" />
        </mxCell>
      </root>
    </mxGraphModel>
  </diagram>
</mxfile>
